<?xml version="1.0" encoding="UTF-8"?><!DOCTYPE svg PUBLIC "-//W3C//DTD SVG 1.1//EN" "http://www.w3.org/Graphics/SVG/1.1/DTD/svg11.dtd"><svg xmlns="http://www.w3.org/2000/svg" xmlns:xlink="http://www.w3.org/1999/xlink"><defs><linearGradient id="blue-gradient" x1="0%" y1="0%" x2="0%" y2="100%"><stop offset="0%" stop-color="#bee9e8" stop-opacity=".9"/><stop offset="50%" stop-color="#002868"/><stop offset="100%" stop-color="#bee9e8" stop-opacity=".9"/></linearGradient><linearGradient id="red-gradient" x1="0%" y1="0%" x2="0%" y2="100%"><stop offset="0%" stop-color="#d16666" stop-opacity=".9"/><stop offset="50%" stop-color="#bf0a30"/><stop offset="100%" stop-color="#d16666" stop-opacity=".9"/></linearGradient></defs><symbol id="chevron-small-right" viewBox="0 0 20 20"><path d="M11 10L7.859 6.58a.695.695 0 0 1 0-.978.68.68 0 0 1 .969 0l3.83 3.908a.697.697 0 0 1 0 .979l-3.83 3.908c-.267.272-.701.27-.969 0s-.268-.707 0-.978L11 10z"/></symbol><symbol id="courthouse" viewBox="0 0 32 32"><path d="M29.235 15.171v-.587h1.14a.518.518 0 0 0 .518-.518v-1.693h.587a.518.518 0 0 0 .518-.518v-1.659a.518.518 0 0 0-.259-.449l-.003-.001L16.254.899a.513.513 0 0 0-.517.002L15.739.9.257 9.747a.519.519 0 0 0-.261.45v1.659c0 .286.232.518.518.518h.587v1.693c0 .286.232.518.518.518h1.14v.587c0 .403.224.754.553.937v9.603H1.619a.518.518 0 0 0-.518.518v1.693H.514a.518.518 0 0 0-.518.518v2.212c0 .286.232.518.518.518h30.963a.518.518 0 0 0 .518-.518v-2.212a.518.518 0 0 0-.518-.518h-.587V26.23a.518.518 0 0 0-.518-.518h-1.693v-9.603c.329-.183.553-.534.553-.937zm-1.036 0a.035.035 0 0 1-.035.035h-2.212a.035.035 0 0 1-.035-.035v-.587h2.281v.587zm-5.046 10.54v-9.603c.329-.183.553-.534.553-.937v-.587h1.175v.587c0 .403.224.754.553.937v9.603h-2.281zm-2.211 0v-9.469h1.175v9.469h-1.175zm-3.318 0v-9.603c.329-.183.553-.534.553-.937v-.587h1.175v.587c0 .403.224.754.553.937v9.603h-2.281zm-2.211 0v-9.469h1.175v9.469h-1.175zm-3.318 0v-9.603c.329-.183.553-.534.553-.937v-.587h1.175v.587c0 .403.224.754.553.937v9.603h-2.281zm-2.212 0v-9.469h1.175v9.469H9.883zm-3.317 0v-9.603c.329-.183.553-.534.553-.937v-.587h1.175v.587c0 .403.224.754.553.937v9.603H6.566zm5.045-11.128v.587a.035.035 0 0 1-.035.035H9.364a.035.035 0 0 1-.035-.035v-.587h2.281zm5.529 0v.587a.035.035 0 0 1-.035.035h-2.212a.035.035 0 0 1-.035-.035v-.587h2.281zm5.53 0v.587a.035.035 0 0 1-.035.035h-2.212a.035.035 0 0 1-.035-.035v-.587h2.281zM1.037 10.495L16 1.945l14.963 8.55v.84H1.036v-.84zm1.106 1.876h27.715v1.175H2.143v-1.175zm3.939 2.212v.587a.035.035 0 0 1-.035.035H3.835a.035.035 0 0 1-.035-.035v-.587h2.281zm-1.728 1.659h1.175v9.469H4.354v-9.469zm26.609 13.892H1.036v-1.175h29.927v1.175zm-1.106-2.212H2.142v-1.175h27.715v1.175zm-3.386-2.211v-9.469h1.175v9.469h-1.175z"/></symbol><symbol id="facebook" viewBox="0 0 20 20"><path d="M17 1H3c-1.1 0-2 .9-2 2v14c0 1.101.9 2 2 2h7v-7H8V9.525h2v-2.05c0-2.164 1.212-3.684 3.766-3.684l1.803.002v2.605h-1.197c-.994 0-1.372.746-1.372 1.438v1.69h2.568L15 12h-2v7h4c1.1 0 2-.899 2-2V3c0-1.1-.9-2-2-2z"/></symbol><symbol id="family" viewBox="0 0 32 32"><path d="M11.521 13.075a1.477 1.477 0 0 1-2.95.003v-.002c0-.814.66-1.475 1.475-1.475h.004c.813 0 1.473.659 1.473 1.473v.003zm-1.318 10.094l.316 5.438a.346.346 0 0 0 .691.002v-.002l.297-5.438h.962l-.995-6.096 2.001 3.986a.345.345 0 0 0 .456.183l-.002.001a.343.343 0 0 0 .18-.454l.001.002s-1.468-3.969-1.83-4.709c-.358-.74-.717-1.19-2.093-1.19h-.281c-1.374 0-1.733.45-2.095 1.187-.361.742-1.834 4.708-1.834 4.708a.35.35 0 0 0 .182.454l.002.001a.345.345 0 0 0 .453-.181l.001-.002 2.003-3.986-.996 6.096h.962l.299 5.438a.346.346 0 0 0 .692 0l.297-5.438h.33zm11.758-11.573h-.003c-.814 0-1.474.66-1.474 1.474v.001a1.475 1.475 0 0 0 1.475 1.471h.003a1.47 1.47 0 0 0 1.469-1.469v-.003a1.47 1.47 0 0 0-1.469-1.475zm1.528 8.68l.098-3.208 1.8 3.988a.346.346 0 0 0 .456.183l-.002.001a.347.347 0 0 0 .185-.456l.001.002s-1.269-3.967-1.632-4.709c-.36-.738-.919-1.188-2.296-1.188h-.281c-1.373 0-1.937.45-2.298 1.188-.363.742-1.63 4.709-1.63 4.709a.347.347 0 0 0 .637.273l.001-.002 1.802-3.988.1 3.208-.286 8.056a.578.578 0 0 0 .533.619h.002l.042.002h.001a.58.58 0 0 0 .578-.536v-.002l.657-6.232.656 6.232a.578.578 0 0 0 .576.538h.003c.012 0 .027 0 .04-.002a.578.578 0 0 0 .537-.62v.002l-.282-8.056zm-7.487.283A.902.902 0 1 0 16 22.365h.002a.904.904 0 1 0 0-1.806zm0 5.327l.407 2.831a.367.367 0 0 0 .692-.022c.004-.006.012-.175.004-.202l-.167-3.475.051-1.192c.047-.406.055-.288.519-.563.471-.283 1.274-1.525 1.312-1.587.039-.06.113-.171.128-.24a.233.233 0 0 0-.181-.269h-.001c-.096-.017-.175.033-.235.1-.062.064-.985 1.294-1.679 1.412-.153-.023-.322-.104-.762-.104h-.175c-.44 0-.606.081-.762.104-.694-.119-1.617-1.348-1.679-1.412-.059-.067-.138-.117-.232-.1a.23.23 0 0 0-.182.27v-.001c.012.069.088.179.126.24.039.062.843 1.304 1.311 1.587.464.275.472.157.519.563l.049 1.192-.165 3.475c-.008.029 0 .196.004.202a.365.365 0 0 0 .691.024l.001-.003.406-2.831zM31.75 14.785a1.408 1.408 0 0 0-.35-1.961l-.005-.003-13.042-9.074c-1.339-.933-3.363-.933-4.7 0L.608 12.821a1.41 1.41 0 0 0-.352 1.969l-.003-.005a1.41 1.41 0 0 0 1.97.352l-.005.003 13.043-9.074c.368-.254 1.112-.254 1.479 0l13.042 9.074c.224.158.503.253.804.254.48-.001.903-.239 1.159-.604l.003-.005z"/></symbol><symbol id="fill-gradient"/><symbol id="instagram" viewBox="0 0 20 20"><path d="M17 1H3c-1.1 0-2 .9-2 2v14c0 1.101.9 2 2 2h14c1.1 0 2-.899 2-2V3c0-1.1-.9-2-2-2zM9.984 15.523a5.539 5.539 0 0 0 5.538-5.539c0-.338-.043-.664-.103-.984H17v7.216a.69.69 0 0 1-.693.69H3.693a.69.69 0 0 1-.693-.69V9h1.549c-.061.32-.104.646-.104.984a5.54 5.54 0 0 0 5.539 5.539zM6.523 9.984c0-1.912 1.55-3.461 3.462-3.461a3.461 3.461 0 1 1 0 6.923 3.461 3.461 0 0 1-3.462-3.462zM16.307 6h-1.615A.694.694 0 0 1 14 5.308V3.691c0-.382.31-.691.691-.691h1.615c.384 0 .694.309.694.691v1.616c0 .381-.31.693-.693.693z"/></symbol><symbol id="legal-agreement" viewBox="0 0 32 32"><path d="M9.316 24.383h-.001a.5.5 0 0 1-.427-.24l-.001-.002-2.122-3.533a.5.5 0 0 1 .856-.517l.001.002 2.122 3.533a.5.5 0 0 1-.429.757zm6.717-7.425h-.002a.49.49 0 0 1-.243-.064l.002.001-3.182-1.768a.5.5 0 0 1 .485-.875l3.182 1.768a.5.5 0 0 1-.242.937h-.001z"/><path d="M6.486 21.556a.495.495 0 0 1-.353-.147.497.497 0 0 1 0-.708l7.073-7.075a.497.497 0 0 1 .708 0 .499.499 0 0 1 .001.708l-7.073 7.075a.494.494 0 0 1-.352.147h-.001z"/><path d="M13.559 14.482h-.001a.498.498 0 0 1-.353-.146l-1.064-1.064a.497.497 0 0 1 0-.708.497.497 0 0 1 .708 0l1.064 1.064a.499.499 0 0 1 0 .708.503.503 0 0 1-.354.147zm-7.073 7.074a.495.495 0 0 1-.353-.147l-1.064-1.065a.499.499 0 0 1 .354-.854c.139 0 .263.056.354.147l1.064 1.065a.499.499 0 0 1-.352.854h-.001zm16.617 2.476h-.001a.497.497 0 0 1-.245-.064l.002.001a.501.501 0 0 1-.193-.682l-.001.003 1.767-3.179a.501.501 0 0 1 .682-.193l-.003-.001a.501.501 0 0 1 .193.683l.001-.003-1.767 3.179a.503.503 0 0 1-.438.257zm-6.717-7.424h-.001a.498.498 0 0 1-.446-.274l-.001-.003a.5.5 0 0 1 .221-.67l.003-.001 2.827-1.415a.5.5 0 0 1 .451.894l-.003.001-2.828 1.414a.496.496 0 0 1-.223.053z"/><path d="M25.578 21.559a.495.495 0 0 1-.353-.147l-7.073-7.073a.497.497 0 0 1 0-.708.495.495 0 0 1 .707 0l7.073 7.073a.497.497 0 0 1 0 .708.494.494 0 0 1-.352.147h-.001z"/><path d="M18.506 14.486h-.001a.495.495 0 0 1-.353-.147.497.497 0 0 1 0-.708l1.063-1.064a.495.495 0 0 1 .707 0 .497.497 0 0 1 0 .708l-1.063 1.064a.495.495 0 0 1-.353.147h-.001zm7.072 7.073a.495.495 0 0 1-.353-.147.5.5 0 0 1-.001-.708l1.064-1.065a.497.497 0 0 1 .708 0 .497.497 0 0 1 0 .708l-1.064 1.065a.494.494 0 0 1-.352.147h-.001zm-12.373-1.773h-.001a.499.499 0 0 1-.353-.853l3.183-3.18a.497.497 0 0 1 .708 0 .497.497 0 0 1 0 .708l-3.183 3.18a.495.495 0 0 1-.353.147h-.001zm1.593 1.947h-.001a.495.495 0 0 1-.353-.147.497.497 0 0 1 0-.708l2.298-2.299a.497.497 0 0 1 .708 0 .497.497 0 0 1 0 .708l-2.298 2.299a.498.498 0 0 1-.353.146z"/><path d="M18.511 19.434a.502.502 0 0 1-.354-.146.492.492 0 0 0-.352-.147h-.003a.492.492 0 0 0-.352.147.497.497 0 0 1-.708 0 .497.497 0 0 1 0-.708 1.49 1.49 0 0 1 1.059-.44h.002c.401 0 .778.157 1.061.44a.502.502 0 0 1-.001.708.498.498 0 0 1-.353.146h-.001z"/><path d="M23.107 24.03a.495.495 0 0 1-.353-.147l-4.595-4.595a.497.497 0 0 1 0-.708.497.497 0 0 1 .708 0l4.595 4.595a.497.497 0 0 1 0 .708.502.502 0 0 1-.354.146zm-9.193-1.932c-.448 0-.896-.171-1.238-.511a1.753 1.753 0 0 1 0-2.475.497.497 0 0 1 .708 0 .497.497 0 0 1 0 .708.75.75 0 1 0 1.061 1.061.499.499 0 0 1 .853.354.497.497 0 0 1-.147.354c-.34.34-.789.511-1.237.511zM15.326 32c-.001 0-.001 0 0 0-.468 0-.907-.181-1.237-.512a1.752 1.752 0 0 1 .001-2.475l.354-.355c.662-.661 1.814-.661 2.475.001a1.752 1.752 0 0 1 0 2.474l-.354.354c-.331.331-.77.513-1.238.513zm.354-2.855h-.002a.741.741 0 0 0-.527.219l-.353.355a.751.751 0 0 0 .527 1.28h.001c.2 0 .389-.078.531-.22l.354-.354a.75.75 0 0 0-.532-1.28z"/><path d="M13.558 30.231c-.468 0-.907-.182-1.237-.512a1.754 1.754 0 0 1 0-2.476l.354-.354c.66-.66 1.814-.661 2.475 0 .331.33.513.77.513 1.238s-.182.907-.513 1.238l-.354.354a1.74 1.74 0 0 1-1.238.513zm.354-2.854c-.2 0-.388.078-.53.219l-.354.354a.75.75 0 0 0 .528 1.28h.002a.749.749 0 0 0 .532-.22l.354-.354a.742.742 0 0 0 .22-.528v-.002a.746.746 0 0 0-.751-.75z"/><path d="M11.791 28.463c-.467 0-.907-.182-1.237-.513-.33-.329-.513-.768-.513-1.236s.181-.908.513-1.239l.354-.354c.662-.662 1.816-.661 2.475 0 .33.331.513.77.513 1.238s-.182.907-.513 1.238l-.354.354a1.74 1.74 0 0 1-1.237.513zm.353-2.854c-.2 0-.389.078-.531.22l-.354.354a.744.744 0 0 0-.22.529v.004c0 .206.084.393.22.527a.77.77 0 0 0 1.061.001l.354-.354a.743.743 0 0 0 .22-.529v-.002a.745.745 0 0 0-.22-.531.74.74 0 0 0-.527-.22h-.003z"/><path d="M10.022 26.695c-.468 0-.907-.182-1.238-.513s-.513-.77-.513-1.238.183-.907.513-1.238l.353-.354c.661-.661 1.814-.661 2.475 0 .331.331.513.77.513 1.238s-.182.907-.513 1.238l-.354.354c-.33.33-.769.512-1.237.512zm.354-2.855c-.2 0-.389.078-.531.22l-.354.354a.747.747 0 0 0 0 1.062.768.768 0 0 0 1.06 0l.354-.354c.142-.141.22-.33.22-.53s-.077-.389-.22-.531a.741.741 0 0 0-.528-.219h-.002zM17.447 32c-.448 0-.896-.171-1.236-.511a.497.497 0 0 1 0-.708.497.497 0 0 1 .708 0 .751.751 0 0 0 1.061-1.062.498.498 0 0 1 .001-.707.5.5 0 0 1 .707.001.74.74 0 0 0 .526.219h.003a.751.751 0 0 0 .531-1.281.498.498 0 0 1-.146-.353v-.001-.001a.5.5 0 0 1 .146-.353.497.497 0 0 1 .708 0 .75.75 0 0 0 1.061-1.06.498.498 0 0 1-.146-.353v-.001a.498.498 0 0 1 .5-.5c.139 0 .263.056.354.147a.767.767 0 0 0 1.06-.001.75.75 0 0 0 .001-1.06.497.497 0 0 1 0-.708.5.5 0 0 1 .708-.001 1.752 1.752 0 0 1-1.239 2.987h-.018v.021a1.747 1.747 0 0 1-1.75 1.746h-.018a1.748 1.748 0 0 1-1.749 1.769h-.019a1.75 1.75 0 0 1-1.751 1.768z"/><path d="M16.565 31.636a.495.495 0 0 1-.353-.147l-.178-.178a.497.497 0 0 1 0-.708.497.497 0 0 1 .708 0l.178.178a.497.497 0 0 1 0 .708.507.507 0 0 1-.354.147zm1.769-1.769h-.001a.495.495 0 0 1-.353-.147l-.532-.532a.497.497 0 0 1 0-.708.5.5 0 0 1 .708-.001l.532.532a.497.497 0 0 1 0 .708.495.495 0 0 1-.353.147zm1.768-1.769h-.001a.495.495 0 0 1-.353-.147l-.531-.532a.499.499 0 0 1 .354-.854c.139 0 .263.056.354.147l.531.532a.5.5 0 0 1-.353.854h-.001zm1.768-1.769a.495.495 0 0 1-.353-.147l-.531-.53a.5.5 0 0 1 .708-.707l.531.531a.499.499 0 0 1-.352.853h-.001zm1.769-1.768a.498.498 0 0 1-.353-.146l-.532-.532a.497.497 0 0 1 0-.708.497.497 0 0 1 .708 0l.532.532a.497.497 0 0 1 0 .708.497.497 0 0 1-.352.146h-.001zM5.072 20.847a.499.499 0 0 1-.354-.147L2.95 18.933a.5.5 0 0 1 0-.707l7.781-7.781a.502.502 0 0 1 .708 0l1.768 1.768a.497.497 0 0 1 0 .708l-7.781 7.78a.494.494 0 0 1-.352.147h-.001zM4.011 18.58l1.061 1.06 7.073-7.073-1.06-1.061zm22.985 2.267a.499.499 0 0 1-.354-.147l-7.779-7.779a.497.497 0 0 1 0-.708l1.767-1.768a.514.514 0 0 1 .707 0l7.781 7.779a.5.5 0 0 1-.001.707l-1.769 1.767a.494.494 0 0 1-.352.147h-.001zm-7.072-8.279l7.072 7.072 1.061-1.06-7.073-7.073zm-3.89-1.565c-3.033 0-5.502-2.468-5.502-5.502S13-.001 16.034-.001s5.502 2.468 5.502 5.502-2.468 5.502-5.502 5.502zm0-10.003c-2.482 0-4.501 2.019-4.501 4.501s2.019 4.501 4.501 4.501 4.501-2.019 4.501-4.501S18.516 1 16.034 1z"/><path d="M18.043 8.002h-4.001a.5.5 0 1 1 0-1h4.001a.499.499 0 1 1 0 1z"/><path d="M16.042 8.002a.5.5 0 0 1-.5-.5V3.001a.499.499 0 1 1 1 0v4.501a.5.5 0 0 1-.5.5z"/><path d="M18.043 4.001h-4.001a.499.499 0 1 1 0-1h4.001a.499.499 0 1 1 0 1zm.5 1.501h-1a.499.499 0 1 1 0-1h1a.499.499 0 1 1 0 1zm-4.001 0h-1a.499.499 0 1 1 0-1h1a.499.499 0 1 1 0 1z"/></symbol><symbol id="legal-balance" viewBox="0 0 32 32"><path d="M31.999 13.126l.001-.037a.746.746 0 0 0-.071-.32l.002.005-4.87-10.539-.006-.011c-.005-.011-.012-.021-.018-.032a.687.687 0 0 0-.08-.119l.001.001a.956.956 0 0 0-.075-.08h-.001l-.014-.014a.84.84 0 0 0-.101-.073l-.003-.002-.033-.018a.81.81 0 0 0-.083-.039l-.005-.002-.036-.013a.778.778 0 0 0-.122-.03l-.004-.001-.014-.001a.88.88 0 0 0-.094-.007l-.026.002-.039.003a.682.682 0 0 0-.11.018l-.02.003-8.664 2.307v-.794c0-.835-.679-1.514-1.514-1.514s-1.514.679-1.514 1.514v1.6L5.432 7.344l-.008.003a.783.783 0 0 0-.125.047l-.032.017a.74.74 0 0 0-.084.053l-.033.024a.787.787 0 0 0-.094.089l-.005.007a.757.757 0 0 0-.069.096l-.002.003-.019.035c-.007.013-.016.026-.022.04L.069 18.297a.75.75 0 0 0-.069.315v.025-.001a1.51 1.51 0 0 0-.002.071c0 2.977 2.525 5.399 5.628 5.399s5.628-2.422 5.628-5.399l-.001-.057.001-.037a.746.746 0 0 0-.071-.32l.002.005-4.492-9.721 7.793-2.075v16.381a4.516 4.516 0 0 1-4.511 4.511 2.049 2.049 0 0 0-2.044 2.054c0 .418.339.758.758.758h14.624a.766.766 0 0 0 .758-.768 2.046 2.046 0 0 0-2.044-2.044 4.516 4.516 0 0 1-4.511-4.511V5.696L25.01 3.7l-4.193 9.073a.75.75 0 0 0-.069.315v.025-.001a1.73 1.73 0 0 0-.002.072c0 2.977 2.525 5.399 5.628 5.399s5.628-2.422 5.628-5.399L32 13.12v.006zM1.942 17.858l3.685-7.975 3.686 7.975H1.942zm24.431-13.5l3.685 7.975h-7.371l3.686-7.975z"/></symbol><symbol id="legal-document-with-valid-period" viewBox="0 0 32 32"><path d="M22.875 6.875a9.07 9.07 0 0 0-3.17.579v1.81a7.337 7.337 0 0 1 2.964-.734v.724h.171l-1.104 2.21h.749v4.539c0 .037.03.061.04.095.007.033-.006.067.013.098l1.492 2.583-.648.375 2.125 1.403-.153-2.542-.648.374-1.439-2.492v-4.434h.749l-1.104-2.21h.166l.004-.724c1.21.033 2.34.368 3.344.915l-.353.61.357.204.356-.62a7.531 7.531 0 0 1 2.433 2.42l.018.032-.619.359.205.353.608-.353a7.428 7.428 0 0 1 .917 3.344h-.724v.41h.724a7.442 7.442 0 0 1-.917 3.347l-.608-.353-.203.355.618.358a7.587 7.587 0 0 1-2.422 2.433l-.032.018-.357-.618-.354.202.352.61a7.368 7.368 0 0 1-3.344.915v-.723h-.41v.723a7.29 7.29 0 0 1-2.965-.734v1.811a9.06 9.06 0 0 0 3.17.579c5.032 0 9.127-4.094 9.127-9.129-.001-5.031-4.096-9.125-9.128-9.125zm-6.738-1.777H2.181A2.181 2.181 0 0 0 0 7.278v17.446c0 1.204.978 2.18 2.181 2.18h13.956a2.181 2.181 0 0 0 2.181-2.18V7.278c0-1.203-.977-2.18-2.181-2.18zm.781 19.627a.782.782 0 0 1-.782.781H2.18a.783.783 0 0 1-.782-.781V7.279a.782.782 0 0 1 .782-.781h13.956c.431 0 .781.35.782.781v17.446z"/><path d="M14.977 11.059H3.341h-.002a.4.4 0 0 0-.399.399v.003a.4.4 0 0 0 .399.399H14.977a.4.4 0 0 0 .399-.399v-.002-.002a.398.398 0 0 0-.398-.398h-.002zm0 1.827H3.341 3.34a.399.399 0 0 0-.399.399v.002c0 .221.179.399.4.399H14.98a.4.4 0 0 0 .399-.399v-.002-.001a.4.4 0 0 0-.399-.399h-.002zm0 1.825H3.341a.4.4 0 0 0-.4.4v.003a.4.4 0 0 0 .399.399h11.64a.4.4 0 0 0 .399-.399v-.002-.001a.4.4 0 0 0-.4-.4h-.001zm-4.598 1.826H3.341a.4.4 0 0 0-.4.4v.003c0 .221.179.399.399.399h7.04c.22 0 .398-.178.398-.398v-.003-.002a.4.4 0 0 0-.399-.399zm-1.38 3.607H3.341 3.34a.4.4 0 0 0-.399.399v.003c0 .221.179.399.399.399H9a.4.4 0 0 0 .399-.399v-.002-.002a.398.398 0 0 0-.398-.398h-.002z"/></symbol><symbol id="legal-file-document" viewBox="0 0 32 32"><path d="M17.453 8.634a.72.72 0 0 1 0 1.022l-4.473 4.468a.72.72 0 0 1-1.018.008.73.73 0 0 1-.004-1.03l4.475-4.468a.718.718 0 0 1 1.02-.001zm2.125 13.109a.72.72 0 0 0 1.021.004l4.473-4.475a.716.716 0 0 0 0-1.022.726.726 0 0 0-1.024 0l-4.471 4.471a.723.723 0 0 0 0 1.024zM30.3 8.786v21.36H7.081v-.344l-2.058 2.201-3.32-3.326 5.378-5.029V.001h14.76L30.3 8.787zm-8.065-.715h3.986l-3.986-4.138v4.138zm5.623 1.833h-7.454V2.446H9.524V21.36l5.46-5.106-1.639-1.636 4.596-4.601 5.746 5.75-4.592 4.595-1.646-1.648-7.925 8.474v.515h18.334V9.905z"/></symbol><symbol id="location-pin" viewBox="0 0 20 20"><path d="M10 2.009c-2.762 0-5 2.229-5 4.99 0 4.774 5 11 5 11s5-6.227 5-11c0-2.76-2.238-4.99-5-4.99zm0 7.751a2.7 2.7 0 1 1 0-5.4 2.7 2.7 0 0 1 0 5.4z"/></symbol><symbol id="logo-combination" viewBox="0 0 59 32"><path d="M13.79 14.16v.768c0 .148.028.25.074.305s.157.083.314.083h.074v.268h-1.748v-.268h.056c.157 0 .268-.028.314-.092.046-.056.074-.157.074-.305v-1.914c0-.148-.028-.25-.074-.305s-.157-.083-.314-.083h-.074v-.268l1.313-.028c.324 0 .583.009.758.028s.342.065.49.148c.148.083.259.185.333.314s.111.277.111.425a.826.826 0 0 1-.194.546c-.129.148-.296.25-.49.296s-.453.074-.777.074h-.24zm0-.287h.157c.25 0 .425-.056.509-.166s.129-.259.129-.444c0-.166-.028-.296-.092-.398s-.139-.166-.231-.203a1.751 1.751 0 0 0-.462-.046v1.258zm3.227 1.507c-.12.083-.24.148-.361.185a1.162 1.162 0 0 1-.398.065c-.185 0-.324-.037-.407-.12a.397.397 0 0 1-.139-.305c0-.176.092-.324.277-.462.185-.129.509-.277.99-.444v-.176c0-.129-.028-.203-.093-.24s-.129-.056-.213-.056c-.203 0-.314.074-.333.222-.018.102-.046.176-.093.222s-.12.065-.222.065a.3.3 0 0 1-.213-.074.208.208 0 0 1-.083-.166c0-.148.102-.277.296-.379s.453-.157.786-.157c.185 0 .333.009.462.037s.222.065.296.12c.074.065.129.12.148.194a.714.714 0 0 1 .037.268v.906c0 .139.037.203.12.203.074 0 .12-.046.139-.129h.194c-.009.166-.065.287-.176.361s-.25.12-.416.12c-.305-.009-.499-.092-.601-.259zm-.046-.259v-.555c-.222.092-.361.176-.435.25a.348.348 0 0 0-.102.231c0 .065.018.111.055.166a.199.199 0 0 0 .157.074.358.358 0 0 0 .166-.037.535.535 0 0 0 .157-.129zm2.488-1.072c.093-.166.194-.287.314-.37s.25-.12.388-.12.24.046.305.129a.398.398 0 0 1 .102.277c0 .092-.028.176-.083.24s-.129.102-.231.102a.238.238 0 0 1-.129-.028c-.037-.018-.083-.065-.139-.129s-.12-.092-.185-.092c-.102 0-.185.065-.231.185-.055.129-.074.314-.074.564v.213c0 .12.018.203.055.25s.12.074.25.074h.046v.25h-1.443v-.25c.139 0 .222-.018.259-.065s.055-.129.055-.25v-.694c0-.12-.018-.203-.055-.25s-.129-.065-.268-.065v-.25l.99-.213c.046.129.065.287.074.49zm2.543.222v.749c0 .12.018.203.055.25s.12.065.24.065v.25h-1.434v-.25h.065c.139 0 .222-.028.259-.074s.055-.129.055-.24v-.666c0-.12-.018-.203-.055-.25s-.129-.065-.268-.065v-.259l1.054-.176a.907.907 0 0 1 .037.305c.111-.12.231-.213.37-.277s.287-.092.453-.092c.185 0 .333.037.444.102.12.065.203.176.25.314.102-.139.222-.24.351-.314a1.076 1.076 0 0 1 .85-.028c.12.056.203.12.268.194s.102.157.12.231.028.185.028.333v.629c0 .12.018.203.065.25.037.046.139.065.287.065v.25H24.09v-.25c.12 0 .203-.018.24-.065s.055-.129.055-.24v-.675c0-.129-.028-.231-.074-.296s-.12-.102-.222-.102c-.093 0-.185.028-.268.083s-.157.139-.231.25v.749c0 .12.018.203.055.24.037.046.12.065.24.065v.25h-1.36v-.25c.12 0 .194-.028.231-.065.037-.046.055-.129.055-.24v-.675c0-.129-.028-.231-.074-.296s-.12-.102-.222-.102c-.083 0-.166.028-.259.083s-.176.129-.259.24zm4.985 1.109c-.12.083-.24.148-.361.185a1.162 1.162 0 0 1-.398.065c-.185 0-.324-.037-.407-.12a.393.393 0 0 1-.139-.305c0-.176.093-.324.277-.462.185-.129.509-.277.99-.444v-.176c0-.129-.028-.203-.093-.24s-.129-.056-.213-.056c-.203 0-.314.074-.333.222-.018.102-.046.176-.093.222s-.12.065-.222.065a.298.298 0 0 1-.213-.074.211.211 0 0 1-.083-.166c0-.148.102-.277.296-.379s.453-.157.786-.157a2.2 2.2 0 0 1 .462.037c.12.018.222.065.296.12.074.065.129.12.148.194a.714.714 0 0 1 .037.268v.906c0 .139.037.203.12.203.074 0 .12-.046.139-.129h.194c-.009.166-.065.287-.176.361s-.25.12-.416.12c-.305-.009-.499-.092-.601-.259zm-.046-.259v-.555c-.222.092-.361.176-.435.25a.348.348 0 0 0-.102.231c0 .065.018.111.055.166a.199.199 0 0 0 .157.074.358.358 0 0 0 .166-.037c.055-.037.111-.074.157-.129zm2.488-1.072c.093-.166.194-.287.314-.37s.25-.12.388-.12.24.046.305.129a.398.398 0 0 1 .102.277c0 .092-.028.176-.083.24s-.129.102-.231.102a.238.238 0 0 1-.129-.028c-.037-.018-.083-.065-.139-.129s-.12-.092-.185-.092c-.102 0-.185.065-.231.185-.055.129-.074.314-.074.564v.213c0 .12.018.203.055.25s.12.074.25.074h.046v.25h-1.443v-.25c.139 0 .222-.018.259-.065s.055-.129.055-.25v-.694c0-.12-.018-.203-.055-.25s-.129-.065-.268-.065v-.25l.99-.213c.037.129.065.287.074.49zm3.246.665l-.065.157a.72.72 0 0 0-.065.24c0 .074.028.129.074.166a.586.586 0 0 0 .259.046v.268h-1.064v-.268c.203 0 .37-.176.509-.518l.99-2.506h.277l1.008 2.497c.102.25.194.398.268.444a.483.483 0 0 0 .231.074v.268h-1.6v-.268c.148 0 .231-.018.268-.046s.056-.065.056-.102a.395.395 0 0 0-.046-.148l-.028-.074-.093-.231h-.98zm.102-.277h.786l-.407-.962-.379.962z"/><path d="M36.171 14.271v.749c0 .12.019.203.056.25s.12.065.24.065v.25h-1.434v-.25h.065c.139 0 .222-.028.259-.074s.056-.129.056-.24v-.666c0-.12-.019-.203-.056-.25s-.129-.065-.268-.065v-.259l1.054-.176a.907.907 0 0 1 .037.305c.111-.12.231-.213.37-.277s.287-.092.453-.092c.185 0 .333.037.444.102.12.065.203.176.25.314.102-.139.222-.24.351-.314a1.076 1.076 0 0 1 .85-.028c.12.056.203.12.268.194s.102.157.12.231.028.185.028.333v.629c0 .12.019.203.065.25.037.046.139.065.287.065v.25H38.26v-.25c.12 0 .203-.018.24-.065s.056-.129.056-.24v-.675c0-.129-.028-.231-.074-.296s-.12-.102-.222-.102c-.093 0-.185.028-.268.083s-.157.139-.231.25v.749c0 .12.019.203.056.24.037.046.12.065.24.065v.25h-1.36v-.25c.12 0 .194-.028.231-.065.037-.046.056-.129.056-.24v-.675c0-.129-.028-.231-.074-.296s-.12-.102-.222-.102c-.083 0-.166.028-.259.083s-.176.129-.259.24zm4.578.314c0 .259.046.453.129.583s.222.194.398.194c.185 0 .361-.092.518-.287l.222.129c-.093.129-.222.24-.388.324s-.361.129-.564.129c-.314 0-.583-.092-.805-.287s-.333-.453-.333-.777.111-.583.324-.768c.213-.185.481-.277.786-.277s.555.083.758.259c.194.166.296.425.296.777h-1.341zm0-.24h.601c-.009-.351-.111-.527-.305-.527a.239.239 0 0 0-.222.129.896.896 0 0 0-.074.398zm2.747-.296c.093-.166.194-.287.314-.37s.25-.12.388-.12.24.046.305.129a.398.398 0 0 1 .102.277c0 .092-.028.176-.083.24s-.129.102-.231.102a.235.235 0 0 1-.129-.028c-.037-.018-.083-.065-.139-.129s-.12-.092-.185-.092c-.102 0-.185.065-.231.185-.056.129-.074.314-.074.564v.213c0 .12.019.203.056.25s.12.074.25.074h.046v.25h-1.443v-.25c.139 0 .222-.018.259-.065s.056-.129.056-.25v-.694c0-.12-.019-.203-.056-.25s-.129-.065-.268-.065v-.25l.99-.213c.037.129.065.287.074.49zm2.432-.491v1.461c0 .12.019.203.056.25s.129.065.268.065v.25h-1.461v-.25h.056c.139 0 .222-.028.259-.074s.056-.129.056-.25v-.712c0-.12-.019-.203-.056-.25s-.12-.074-.259-.074h-.056v-.25l1.138-.166zm-.804-.832c0-.12.046-.222.129-.305s.185-.129.305-.129.222.046.305.129.12.185.12.305-.046.222-.129.305-.185.129-.305.129-.222-.046-.305-.129-.12-.185-.12-.305zm3.32 2.257l.24.111c-.065.185-.185.324-.361.425s-.379.148-.61.148c-.324 0-.592-.092-.814-.268s-.333-.425-.333-.74c0-.333.12-.592.361-.795s.555-.305.934-.305c.24 0 .425.046.564.129s.213.203.213.342c0 .083-.028.148-.083.213s-.129.092-.213.092c-.176 0-.287-.111-.333-.342-.019-.065-.037-.111-.065-.139s-.074-.046-.148-.046c-.139 0-.25.056-.314.166-.074.111-.102.277-.102.499 0 .305.046.527.129.657.083.139.222.203.398.203.25.009.425-.111.536-.351zm1.942.397c-.12.083-.24.148-.361.185a1.162 1.162 0 0 1-.398.065c-.185 0-.324-.037-.407-.12a.393.393 0 0 1-.139-.305c0-.176.093-.324.277-.462.185-.129.509-.277.99-.444v-.176c0-.129-.028-.203-.093-.24s-.129-.056-.213-.056c-.203 0-.314.074-.333.222-.019.102-.046.176-.093.222s-.12.065-.222.065a.298.298 0 0 1-.213-.074.208.208 0 0 1-.083-.166c0-.148.102-.277.296-.379s.453-.157.786-.157a2.2 2.2 0 0 1 .462.037c.12.018.222.065.296.12.074.065.129.12.148.194a.714.714 0 0 1 .037.268v.906c0 .139.037.203.12.203.074 0 .12-.046.139-.129h.194c-.009.166-.065.287-.176.361s-.25.12-.416.12c-.305-.009-.499-.092-.601-.259zm-.046-.259v-.555c-.222.092-.361.176-.435.25a.348.348 0 0 0-.102.231c0 .065.019.111.056.166a.199.199 0 0 0 .157.074.355.355 0 0 0 .166-.037.683.683 0 0 0 .157-.129zm2.506-.878v.777c0 .111.019.194.046.24.037.046.093.074.176.074v.25h-1.332v-.25c.139 0 .222-.018.268-.065.037-.046.056-.129.056-.25v-.666c0-.12-.019-.203-.056-.25s-.129-.065-.268-.065v-.259l1.054-.176a.732.732 0 0 1 .046.287c.102-.111.213-.203.333-.259a.788.788 0 0 1 .361-.083c.222 0 .398.065.527.185s.194.296.194.509v.777c0 .12.019.203.056.25s.12.065.25.065v.25h-1.323v-.25c.065 0 .12-.018.166-.056s.065-.12.065-.259v-.712c0-.129-.019-.222-.056-.268s-.083-.074-.157-.074a.344.344 0 0 0-.203.065c-.056.056-.129.12-.203.213zM14.021 20.254l-1.101-2.479a5.644 5.644 0 0 0-.185-.388c-.037-.055-.074-.102-.129-.129s-.148-.046-.268-.046v-.268h1.72v.268c-.24 0-.361.055-.361.176 0 .065.037.176.102.324l.666 1.461.62-1.471a.739.739 0 0 0 .065-.277c0-.148-.12-.222-.361-.222v-.268h1.138v.268a.449.449 0 0 0-.305.102c-.065.074-.176.277-.324.638l-.98 2.312h-.296zm2.987-2.09v1.461c0 .12.018.203.055.25s.129.065.268.065v.25H15.87v-.25h.056c.139 0 .222-.028.259-.074s.055-.129.055-.25v-.712c0-.12-.018-.203-.055-.25s-.12-.074-.259-.074h-.056v-.25l1.138-.166zm-.805-.832c0-.12.046-.222.129-.305s.185-.129.305-.129.222.046.305.129.12.185.12.305-.046.222-.129.305c-.083.083-.185.129-.305.129s-.222-.046-.305-.129a.47.47 0 0 1-.12-.305zm1.508 2.932l-.018-.647h.231c.12.268.351.407.684.407.139 0 .25-.028.342-.074s.139-.102.139-.166c0-.055-.028-.093-.074-.12s-.166-.055-.342-.093c-.277-.055-.472-.111-.601-.157s-.231-.129-.314-.231a.55.55 0 0 1-.12-.361c0-.194.083-.361.24-.481.166-.12.379-.185.647-.185.213 0 .425.037.638.12a.61.61 0 0 0 .093-.12h.194l.018.592h-.194c-.12-.24-.37-.361-.731-.361a.705.705 0 0 0-.296.055c-.074.037-.111.093-.111.148 0 .065.028.111.093.139s.203.065.444.111c.24.046.425.102.555.148a.7.7 0 0 1 .287.222.555.555 0 0 1 .102.342c0 .213-.093.379-.277.509s-.416.194-.684.194a1.98 1.98 0 0 1-.657-.129.23.23 0 0 0-.093.129h-.194zm3.699-.278c-.12.083-.24.148-.361.185a1.162 1.162 0 0 1-.398.065c-.185 0-.324-.037-.407-.12a.393.393 0 0 1-.139-.305c0-.176.093-.324.277-.462.185-.129.509-.277.99-.444v-.176c0-.129-.028-.203-.093-.24s-.129-.055-.213-.055c-.203 0-.314.074-.333.222-.018.102-.046.176-.093.222s-.12.065-.222.065a.298.298 0 0 1-.213-.074.211.211 0 0 1-.083-.166c0-.148.102-.277.296-.379s.453-.157.786-.157c.185 0 .333.009.462.037s.222.065.296.12c.074.065.129.12.148.194a.714.714 0 0 1 .037.268v.906c0 .139.037.203.12.203.074 0 .12-.046.139-.129h.194c-.009.166-.065.287-.176.361s-.25.12-.416.12c-.296-.009-.499-.093-.601-.259zm-.037-.259v-.555c-.222.093-.361.176-.435.25a.348.348 0 0 0-.102.231c0 .065.018.111.055.166a.199.199 0 0 0 .157.074.358.358 0 0 0 .166-.037c.055-.037.102-.083.157-.129zm5.642-.61l-.018 1.073h-2.941v-.268h.046c.166 0 .268-.028.314-.093.046-.055.074-.157.074-.305V17.61c0-.148-.028-.25-.074-.305s-.157-.083-.314-.083h-.046v-.268h1.729v.268h-.065c-.166 0-.268.028-.314.093-.046.055-.074.157-.074.305v1.84c0 .139.009.231.028.277s.055.083.129.111c.065.037.185.046.351.046.287 0 .49-.074.638-.213.139-.139.231-.333.287-.573h.25zm1.637.869c-.12.083-.24.148-.361.185a1.162 1.162 0 0 1-.398.065c-.185 0-.324-.037-.407-.12a.393.393 0 0 1-.139-.305c0-.176.093-.324.277-.462.185-.129.509-.277.99-.444v-.176c0-.129-.028-.203-.093-.24s-.129-.055-.213-.055c-.203 0-.314.074-.333.222-.018.102-.046.176-.093.222s-.12.065-.222.065a.298.298 0 0 1-.213-.074.211.211 0 0 1-.083-.166c0-.148.102-.277.296-.379s.453-.157.786-.157a2.2 2.2 0 0 1 .462.037c.12.018.222.065.296.12.074.065.129.12.148.194a.714.714 0 0 1 .037.268v.906c0 .139.037.203.12.203.074 0 .12-.046.139-.129h.194c-.009.166-.065.287-.176.361s-.25.12-.416.12c-.305-.009-.499-.093-.601-.259zm-.046-.259v-.555c-.222.093-.361.176-.435.25a.348.348 0 0 0-.102.231c0 .065.018.111.055.166a.199.199 0 0 0 .157.074.358.358 0 0 0 .166-.037c.055-.037.111-.083.157-.129zm2.219.509l-.61-1.415c-.065-.148-.12-.24-.157-.277s-.102-.046-.185-.046v-.25h1.304v.25c-.166 0-.25.028-.25.093 0 .028.018.093.055.176l.305.731.573-1.249h.407l.583 1.249.305-.768a.32.32 0 0 0 .028-.102c0-.083-.093-.12-.277-.12v-.25h.851v.25c-.083 0-.157.028-.203.083s-.111.176-.185.361l-.546 1.304h-.416l-.592-1.249-.564 1.249h-.425zm4.07-.648v.324c0 .065.009.102.028.129s.065.037.129.037h.028v.111h-.731v-.111h.028c.065 0 .111-.009.129-.037s.028-.065.028-.129v-.805c0-.065-.009-.102-.028-.129s-.065-.037-.129-.037h-.037v-.111l.546-.009c.139 0 .24 0 .314.009s.148.028.203.065c.065.037.111.074.139.129s.046.111.046.185c0 .093-.028.166-.083.231s-.12.102-.203.129-.194.028-.324.028h-.083zm0-.12h.065c.102 0 .176-.028.213-.074s.056-.111.056-.185c0-.065-.009-.129-.037-.166s-.056-.074-.102-.083a.865.865 0 0 0-.194-.018v.527zm2.007.268l-.009.453h-1.239v-.111h.019c.065 0 .111-.009.129-.037s.028-.065.028-.129v-.805c0-.065-.009-.102-.028-.129s-.065-.037-.129-.037h-.019v-.111h.731v.111h-.028c-.065 0-.111.009-.129.037s-.028.065-.028.129v.777c0 .055 0 .093.009.111s.028.037.056.046a.489.489 0 0 0 .148.018c.12 0 .203-.028.268-.093a.448.448 0 0 0 .12-.24h.102zm1.304 0l-.009.453h-1.239v-.111h.019c.065 0 .111-.009.129-.037s.028-.065.028-.129v-.805c0-.065-.009-.102-.028-.129s-.065-.037-.129-.037h-.019v-.111h.731v.111h-.028c-.065 0-.111.009-.129.037s-.028.065-.028.129v.777c0 .055 0 .093.009.111s.028.037.056.046.074.018.148.018c.12 0 .203-.028.268-.093a.448.448 0 0 0 .12-.24h.102zm1.396-.064v.509h-.111a.234.234 0 0 0-.056-.129.6.6 0 0 1-.444.166c-.213 0-.379-.065-.499-.203a.679.679 0 0 1-.185-.49c0-.185.065-.351.185-.499s.296-.213.518-.213c.166 0 .305.055.416.166.019-.037.028-.074.046-.12h.111l.019.499h-.111c-.037-.139-.083-.24-.157-.305a.361.361 0 0 0-.268-.102.302.302 0 0 0-.268.139c-.056.093-.093.231-.093.435 0 .139.009.25.028.324.019.083.065.139.129.185s.129.065.203.065a.419.419 0 0 0 .268-.102.636.636 0 0 0 .166-.314h.102zM10.247 12.643a2.34 2.34 0 0 0-1.165-.731c-.472-.139-1.156-.203-2.035-.203-.481 0-1.147.018-1.998.046l-1.073.028v.287h.157c.435 0 .712.037.842.111s.213.213.25.407c.019.083.028.213.037.379a8.793 8.793 0 0 0 1.443.194c.61.028 1.11-.009 1.35.314a.532.532 0 0 1 .111.268.85.85 0 0 1 .518.222c.092.083.222.203.213.379a.422.422 0 0 1-.129.259.503.503 0 0 0-.12-.12c-.425-.314-1.249.129-1.526.277-.24.129-1.683.953-1.84 2.321-.037.342-.009.851-.009.999.028.555.037.888-.056 1.36-.037.194-.129.342-.268.435s-.388.139-.758.139h-.213v.287h3.903v-.287h-.287c-.379 0-.638-.046-.777-.148s-.222-.259-.259-.462-.046-.647-.046-1.313v-1.794h.934c.98 0 1.656-.093 2.044-.277s.684-.453.888-.814c.203-.351.314-.768.314-1.23.009-.536-.139-.98-.444-1.332z"/></symbol><symbol id="logo-symbol" viewBox="0 0 59 32"><path d="M36.106 8.102c-.712-.823-1.628-1.406-2.747-1.729s-2.71-.49-4.782-.49c-1.119 0-2.691.037-4.698.102l-2.516.093v.684h.37c1.017 0 1.674.093 1.979.268s.499.499.592.962c.037.194.065.49.083.888 1.387.305 2.543.416 3.385.462 1.434.074 2.608-.018 3.172.749.166.231.231.472.259.638.268.028.786.12 1.23.518.203.185.536.472.509.888-.019.305-.222.527-.305.61a1.336 1.336 0 0 0-.277-.287c-1.008-.749-2.932.305-3.579.666-.555.305-3.958 2.247-4.338 5.447-.093.805-.028 1.988-.009 2.34.065 1.313.083 2.09-.129 3.2-.093.462-.296.795-.629 1.008s-.925.324-1.785.324h-.527v.684h9.175v-.694h-.666c-.897 0-1.508-.12-1.831-.351s-.527-.601-.601-1.082c-.074-.49-.111-1.517-.111-3.098v-4.208h2.201c2.294 0 3.903-.213 4.809-.647a4.724 4.724 0 0 0 2.099-1.905c.49-.842.731-1.803.731-2.895.009-1.276-.351-2.312-1.064-3.145z"/></symbol><symbol id="logo-text" viewBox="0 0 59 32"><path d="M13.79 14.16v.768c0 .148.028.25.074.305s.157.083.314.083h.074v.268h-1.748v-.268h.056c.157 0 .268-.028.314-.092.046-.056.074-.157.074-.305v-1.914c0-.148-.028-.25-.074-.305s-.157-.083-.314-.083h-.074v-.268l1.313-.028c.324 0 .583.009.758.028s.342.065.49.148c.148.083.259.185.333.314s.111.277.111.425a.826.826 0 0 1-.194.546c-.129.148-.296.25-.49.296s-.453.074-.777.074h-.24zm0-.287h.157c.25 0 .425-.056.509-.166s.129-.259.129-.444c0-.166-.028-.296-.092-.398s-.139-.166-.231-.203a1.751 1.751 0 0 0-.462-.046v1.258zm3.227 1.507c-.12.083-.24.148-.361.185a1.162 1.162 0 0 1-.398.065c-.185 0-.324-.037-.407-.12a.397.397 0 0 1-.139-.305c0-.176.092-.324.277-.462.185-.129.509-.277.99-.444v-.176c0-.129-.028-.203-.093-.24s-.129-.056-.213-.056c-.203 0-.314.074-.333.222-.018.102-.046.176-.093.222s-.12.065-.222.065a.3.3 0 0 1-.213-.074.208.208 0 0 1-.083-.166c0-.148.102-.277.296-.379s.453-.157.786-.157c.185 0 .333.009.462.037s.222.065.296.12c.074.065.129.12.148.194a.714.714 0 0 1 .037.268v.906c0 .139.037.203.12.203.074 0 .12-.046.139-.129h.194c-.009.166-.065.287-.176.361s-.25.12-.416.12c-.305-.009-.499-.092-.601-.259zm-.046-.259v-.555c-.222.092-.361.176-.435.25a.348.348 0 0 0-.102.231c0 .065.018.111.055.166a.199.199 0 0 0 .157.074.358.358 0 0 0 .166-.037.535.535 0 0 0 .157-.129zm2.488-1.072c.093-.166.194-.287.314-.37s.25-.12.388-.12.24.046.305.129a.398.398 0 0 1 .102.277c0 .092-.028.176-.083.24s-.129.102-.231.102a.238.238 0 0 1-.129-.028c-.037-.018-.083-.065-.139-.129s-.12-.092-.185-.092c-.102 0-.185.065-.231.185-.055.129-.074.314-.074.564v.213c0 .12.018.203.055.25s.12.074.25.074h.046v.25h-1.443v-.25c.139 0 .222-.018.259-.065s.055-.129.055-.25v-.694c0-.12-.018-.203-.055-.25s-.129-.065-.268-.065v-.25l.99-.213c.046.129.065.287.074.49zm2.543.222v.749c0 .12.018.203.055.25s.12.065.24.065v.25h-1.434v-.25h.065c.139 0 .222-.028.259-.074s.055-.129.055-.24v-.666c0-.12-.018-.203-.055-.25s-.129-.065-.268-.065v-.259l1.054-.176a.907.907 0 0 1 .037.305c.111-.12.231-.213.37-.277s.287-.092.453-.092c.185 0 .333.037.444.102.12.065.203.176.25.314.102-.139.222-.24.351-.314a1.076 1.076 0 0 1 .85-.028c.12.056.203.12.268.194s.102.157.12.231.028.185.028.333v.629c0 .12.018.203.065.25.037.046.139.065.287.065v.25H24.09v-.25c.12 0 .203-.018.24-.065s.055-.129.055-.24v-.675c0-.129-.028-.231-.074-.296s-.12-.102-.222-.102c-.093 0-.185.028-.268.083s-.157.139-.231.25v.749c0 .12.018.203.055.24.037.046.12.065.24.065v.25h-1.36v-.25c.12 0 .194-.028.231-.065.037-.046.055-.129.055-.24v-.675c0-.129-.028-.231-.074-.296s-.12-.102-.222-.102c-.083 0-.166.028-.259.083s-.176.129-.259.24zm4.985 1.109c-.12.083-.24.148-.361.185a1.162 1.162 0 0 1-.398.065c-.185 0-.324-.037-.407-.12a.393.393 0 0 1-.139-.305c0-.176.093-.324.277-.462.185-.129.509-.277.99-.444v-.176c0-.129-.028-.203-.093-.24s-.129-.056-.213-.056c-.203 0-.314.074-.333.222-.018.102-.046.176-.093.222s-.12.065-.222.065a.298.298 0 0 1-.213-.074.211.211 0 0 1-.083-.166c0-.148.102-.277.296-.379s.453-.157.786-.157a2.2 2.2 0 0 1 .462.037c.12.018.222.065.296.12.074.065.129.12.148.194a.714.714 0 0 1 .037.268v.906c0 .139.037.203.12.203.074 0 .12-.046.139-.129h.194c-.009.166-.065.287-.176.361s-.25.12-.416.12c-.305-.009-.499-.092-.601-.259zm-.046-.259v-.555c-.222.092-.361.176-.435.25a.348.348 0 0 0-.102.231c0 .065.018.111.055.166a.199.199 0 0 0 .157.074.358.358 0 0 0 .166-.037c.055-.037.111-.074.157-.129zm2.488-1.072c.093-.166.194-.287.314-.37s.25-.12.388-.12.24.046.305.129a.398.398 0 0 1 .102.277c0 .092-.028.176-.083.24s-.129.102-.231.102a.238.238 0 0 1-.129-.028c-.037-.018-.083-.065-.139-.129s-.12-.092-.185-.092c-.102 0-.185.065-.231.185-.055.129-.074.314-.074.564v.213c0 .12.018.203.055.25s.12.074.25.074h.046v.25h-1.443v-.25c.139 0 .222-.018.259-.065s.055-.129.055-.25v-.694c0-.12-.018-.203-.055-.25s-.129-.065-.268-.065v-.25l.99-.213c.037.129.065.287.074.49zm3.246.665l-.065.157a.72.72 0 0 0-.065.24c0 .074.028.129.074.166a.586.586 0 0 0 .259.046v.268h-1.064v-.268c.203 0 .37-.176.509-.518l.99-2.506h.277l1.008 2.497c.102.25.194.398.268.444a.483.483 0 0 0 .231.074v.268h-1.6v-.268c.148 0 .231-.018.268-.046s.056-.065.056-.102a.395.395 0 0 0-.046-.148l-.028-.074-.093-.231h-.98zm.102-.277h.786l-.407-.962-.379.962z"/><path d="M36.171 14.271v.749c0 .12.019.203.056.25s.12.065.24.065v.25h-1.434v-.25h.065c.139 0 .222-.028.259-.074s.056-.129.056-.24v-.666c0-.12-.019-.203-.056-.25s-.129-.065-.268-.065v-.259l1.054-.176a.907.907 0 0 1 .037.305c.111-.12.231-.213.37-.277s.287-.092.453-.092c.185 0 .333.037.444.102.12.065.203.176.25.314.102-.139.222-.24.351-.314a1.076 1.076 0 0 1 .85-.028c.12.056.203.12.268.194s.102.157.12.231.028.185.028.333v.629c0 .12.019.203.065.25.037.046.139.065.287.065v.25H38.26v-.25c.12 0 .203-.018.24-.065s.056-.129.056-.24v-.675c0-.129-.028-.231-.074-.296s-.12-.102-.222-.102c-.093 0-.185.028-.268.083s-.157.139-.231.25v.749c0 .12.019.203.056.24.037.046.12.065.24.065v.25h-1.36v-.25c.12 0 .194-.028.231-.065.037-.046.056-.129.056-.24v-.675c0-.129-.028-.231-.074-.296s-.12-.102-.222-.102c-.083 0-.166.028-.259.083s-.176.129-.259.24zm4.578.314c0 .259.046.453.129.583s.222.194.398.194c.185 0 .361-.092.518-.287l.222.129c-.093.129-.222.24-.388.324s-.361.129-.564.129c-.314 0-.583-.092-.805-.287s-.333-.453-.333-.777.111-.583.324-.768c.213-.185.481-.277.786-.277s.555.083.758.259c.194.166.296.425.296.777h-1.341zm0-.24h.601c-.009-.351-.111-.527-.305-.527a.239.239 0 0 0-.222.129.896.896 0 0 0-.074.398zm2.747-.296c.093-.166.194-.287.314-.37s.25-.12.388-.12.24.046.305.129a.398.398 0 0 1 .102.277c0 .092-.028.176-.083.24s-.129.102-.231.102a.235.235 0 0 1-.129-.028c-.037-.018-.083-.065-.139-.129s-.12-.092-.185-.092c-.102 0-.185.065-.231.185-.056.129-.074.314-.074.564v.213c0 .12.019.203.056.25s.12.074.25.074h.046v.25h-1.443v-.25c.139 0 .222-.018.259-.065s.056-.129.056-.25v-.694c0-.12-.019-.203-.056-.25s-.129-.065-.268-.065v-.25l.99-.213c.037.129.065.287.074.49zm2.432-.491v1.461c0 .12.019.203.056.25s.129.065.268.065v.25h-1.461v-.25h.056c.139 0 .222-.028.259-.074s.056-.129.056-.25v-.712c0-.12-.019-.203-.056-.25s-.12-.074-.259-.074h-.056v-.25l1.138-.166zm-.804-.832c0-.12.046-.222.129-.305s.185-.129.305-.129.222.046.305.129.12.185.12.305-.046.222-.129.305-.185.129-.305.129-.222-.046-.305-.129-.12-.185-.12-.305zm3.32 2.257l.24.111c-.065.185-.185.324-.361.425s-.379.148-.61.148c-.324 0-.592-.092-.814-.268s-.333-.425-.333-.74c0-.333.12-.592.361-.795s.555-.305.934-.305c.24 0 .425.046.564.129s.213.203.213.342c0 .083-.028.148-.083.213s-.129.092-.213.092c-.176 0-.287-.111-.333-.342-.019-.065-.037-.111-.065-.139s-.074-.046-.148-.046c-.139 0-.25.056-.314.166-.074.111-.102.277-.102.499 0 .305.046.527.129.657.083.139.222.203.398.203.25.009.425-.111.536-.351zm1.942.397c-.12.083-.24.148-.361.185a1.162 1.162 0 0 1-.398.065c-.185 0-.324-.037-.407-.12a.393.393 0 0 1-.139-.305c0-.176.093-.324.277-.462.185-.129.509-.277.99-.444v-.176c0-.129-.028-.203-.093-.24s-.129-.056-.213-.056c-.203 0-.314.074-.333.222-.019.102-.046.176-.093.222s-.12.065-.222.065a.298.298 0 0 1-.213-.074.208.208 0 0 1-.083-.166c0-.148.102-.277.296-.379s.453-.157.786-.157a2.2 2.2 0 0 1 .462.037c.12.018.222.065.296.12.074.065.129.12.148.194a.714.714 0 0 1 .037.268v.906c0 .139.037.203.12.203.074 0 .12-.046.139-.129h.194c-.009.166-.065.287-.176.361s-.25.12-.416.12c-.305-.009-.499-.092-.601-.259zm-.046-.259v-.555c-.222.092-.361.176-.435.25a.348.348 0 0 0-.102.231c0 .065.019.111.056.166a.199.199 0 0 0 .157.074.355.355 0 0 0 .166-.037.683.683 0 0 0 .157-.129zm2.506-.878v.777c0 .111.019.194.046.24.037.046.093.074.176.074v.25h-1.332v-.25c.139 0 .222-.018.268-.065.037-.046.056-.129.056-.25v-.666c0-.12-.019-.203-.056-.25s-.129-.065-.268-.065v-.259l1.054-.176a.732.732 0 0 1 .046.287c.102-.111.213-.203.333-.259a.788.788 0 0 1 .361-.083c.222 0 .398.065.527.185s.194.296.194.509v.777c0 .12.019.203.056.25s.12.065.25.065v.25h-1.323v-.25c.065 0 .12-.018.166-.056s.065-.12.065-.259v-.712c0-.129-.019-.222-.056-.268s-.083-.074-.157-.074a.344.344 0 0 0-.203.065c-.056.056-.129.12-.203.213zM14.021 20.254l-1.101-2.479a5.644 5.644 0 0 0-.185-.388c-.037-.055-.074-.102-.129-.129s-.148-.046-.268-.046v-.268h1.72v.268c-.24 0-.361.055-.361.176 0 .065.037.176.102.324l.666 1.461.62-1.471a.739.739 0 0 0 .065-.277c0-.148-.12-.222-.361-.222v-.268h1.138v.268a.449.449 0 0 0-.305.102c-.065.074-.176.277-.324.638l-.98 2.312h-.296zm2.987-2.09v1.461c0 .12.018.203.055.25s.129.065.268.065v.25H15.87v-.25h.056c.139 0 .222-.028.259-.074s.055-.129.055-.25v-.712c0-.12-.018-.203-.055-.25s-.12-.074-.259-.074h-.056v-.25l1.138-.166zm-.805-.832c0-.12.046-.222.129-.305s.185-.129.305-.129.222.046.305.129.12.185.12.305-.046.222-.129.305c-.083.083-.185.129-.305.129s-.222-.046-.305-.129a.47.47 0 0 1-.12-.305zm1.508 2.932l-.018-.647h.231c.12.268.351.407.684.407.139 0 .25-.028.342-.074s.139-.102.139-.166c0-.055-.028-.093-.074-.12s-.166-.055-.342-.093c-.277-.055-.472-.111-.601-.157s-.231-.129-.314-.231a.55.55 0 0 1-.12-.361c0-.194.083-.361.24-.481.166-.12.379-.185.647-.185.213 0 .425.037.638.12a.61.61 0 0 0 .093-.12h.194l.018.592h-.194c-.12-.24-.37-.361-.731-.361a.705.705 0 0 0-.296.055c-.074.037-.111.093-.111.148 0 .065.028.111.093.139s.203.065.444.111c.24.046.425.102.555.148a.7.7 0 0 1 .287.222.555.555 0 0 1 .102.342c0 .213-.093.379-.277.509s-.416.194-.684.194a1.98 1.98 0 0 1-.657-.129.23.23 0 0 0-.093.129h-.194zm3.699-.278c-.12.083-.24.148-.361.185a1.162 1.162 0 0 1-.398.065c-.185 0-.324-.037-.407-.12a.393.393 0 0 1-.139-.305c0-.176.093-.324.277-.462.185-.129.509-.277.99-.444v-.176c0-.129-.028-.203-.093-.24s-.129-.055-.213-.055c-.203 0-.314.074-.333.222-.018.102-.046.176-.093.222s-.12.065-.222.065a.298.298 0 0 1-.213-.074.211.211 0 0 1-.083-.166c0-.148.102-.277.296-.379s.453-.157.786-.157c.185 0 .333.009.462.037s.222.065.296.12c.074.065.129.12.148.194a.714.714 0 0 1 .037.268v.906c0 .139.037.203.12.203.074 0 .12-.046.139-.129h.194c-.009.166-.065.287-.176.361s-.25.12-.416.12c-.296-.009-.499-.093-.601-.259zm-.037-.259v-.555c-.222.093-.361.176-.435.25a.348.348 0 0 0-.102.231c0 .065.018.111.055.166a.199.199 0 0 0 .157.074.358.358 0 0 0 .166-.037c.055-.037.102-.083.157-.129zm5.642-.61l-.018 1.073h-2.941v-.268h.046c.166 0 .268-.028.314-.093.046-.055.074-.157.074-.305V17.61c0-.148-.028-.25-.074-.305s-.157-.083-.314-.083h-.046v-.268h1.729v.268h-.065c-.166 0-.268.028-.314.093-.046.055-.074.157-.074.305v1.84c0 .139.009.231.028.277s.055.083.129.111c.065.037.185.046.351.046.287 0 .49-.074.638-.213.139-.139.231-.333.287-.573h.25zm1.637.869c-.12.083-.24.148-.361.185a1.162 1.162 0 0 1-.398.065c-.185 0-.324-.037-.407-.12a.393.393 0 0 1-.139-.305c0-.176.093-.324.277-.462.185-.129.509-.277.99-.444v-.176c0-.129-.028-.203-.093-.24s-.129-.055-.213-.055c-.203 0-.314.074-.333.222-.018.102-.046.176-.093.222s-.12.065-.222.065a.298.298 0 0 1-.213-.074.211.211 0 0 1-.083-.166c0-.148.102-.277.296-.379s.453-.157.786-.157a2.2 2.2 0 0 1 .462.037c.12.018.222.065.296.12.074.065.129.12.148.194a.714.714 0 0 1 .037.268v.906c0 .139.037.203.12.203.074 0 .12-.046.139-.129h.194c-.009.166-.065.287-.176.361s-.25.12-.416.12c-.305-.009-.499-.093-.601-.259zm-.046-.259v-.555c-.222.093-.361.176-.435.25a.348.348 0 0 0-.102.231c0 .065.018.111.055.166a.199.199 0 0 0 .157.074.358.358 0 0 0 .166-.037c.055-.037.111-.083.157-.129zm2.219.509l-.61-1.415c-.065-.148-.12-.24-.157-.277s-.102-.046-.185-.046v-.25h1.304v.25c-.166 0-.25.028-.25.093 0 .028.018.093.055.176l.305.731.573-1.249h.407l.583 1.249.305-.768a.32.32 0 0 0 .028-.102c0-.083-.093-.12-.277-.12v-.25h.851v.25c-.083 0-.157.028-.203.083s-.111.176-.185.361l-.546 1.304h-.416l-.592-1.249-.564 1.249h-.425zm4.07-.648v.324c0 .065.009.102.028.129s.065.037.129.037h.028v.111h-.731v-.111h.028c.065 0 .111-.009.129-.037s.028-.065.028-.129v-.805c0-.065-.009-.102-.028-.129s-.065-.037-.129-.037h-.037v-.111l.546-.009c.139 0 .24 0 .314.009s.148.028.203.065c.065.037.111.074.139.129s.046.111.046.185c0 .093-.028.166-.083.231s-.12.102-.203.129-.194.028-.324.028h-.083zm0-.12h.065c.102 0 .176-.028.213-.074s.056-.111.056-.185c0-.065-.009-.129-.037-.166s-.056-.074-.102-.083a.865.865 0 0 0-.194-.018v.527zm2.007.268l-.009.453h-1.239v-.111h.019c.065 0 .111-.009.129-.037s.028-.065.028-.129v-.805c0-.065-.009-.102-.028-.129s-.065-.037-.129-.037h-.019v-.111h.731v.111h-.028c-.065 0-.111.009-.129.037s-.028.065-.028.129v.777c0 .055 0 .093.009.111s.028.037.056.046a.489.489 0 0 0 .148.018c.12 0 .203-.028.268-.093a.448.448 0 0 0 .12-.24h.102zm1.304 0l-.009.453h-1.239v-.111h.019c.065 0 .111-.009.129-.037s.028-.065.028-.129v-.805c0-.065-.009-.102-.028-.129s-.065-.037-.129-.037h-.019v-.111h.731v.111h-.028c-.065 0-.111.009-.129.037s-.028.065-.028.129v.777c0 .055 0 .093.009.111s.028.037.056.046.074.018.148.018c.12 0 .203-.028.268-.093a.448.448 0 0 0 .12-.24h.102zm1.396-.064v.509h-.111a.234.234 0 0 0-.056-.129.6.6 0 0 1-.444.166c-.213 0-.379-.065-.499-.203a.679.679 0 0 1-.185-.49c0-.185.065-.351.185-.499s.296-.213.518-.213c.166 0 .305.055.416.166.019-.037.028-.074.046-.12h.111l.019.499h-.111c-.037-.139-.083-.24-.157-.305a.361.361 0 0 0-.268-.102.302.302 0 0 0-.268.139c-.056.093-.093.231-.093.435 0 .139.009.25.028.324.019.083.065.139.129.185s.129.065.203.065a.419.419 0 0 0 .268-.102.636.636 0 0 0 .166-.314h.102z"/></symbol><symbol id="logo-wordmark" viewBox="0 0 59 32"><path d="M3.052 16.139v.592c0 .111.018.194.055.24s.12.065.24.065h.055v.203H2.061v-.203h.046c.12 0 .203-.018.24-.065s.055-.12.055-.24V15.26c0-.111-.018-.194-.055-.24s-.12-.065-.24-.065h-.065v-.203l1.008-.018c.25 0 .444.009.583.018s.268.046.379.111c.111.065.203.139.259.24s.083.213.083.333a.588.588 0 0 1-.148.416c-.102.12-.231.194-.379.231s-.351.055-.601.055H3.05zm0-.222h.12c.194 0 .324-.046.388-.129s.102-.194.102-.342a.574.574 0 0 0-.074-.305c-.046-.083-.111-.129-.185-.157s-.194-.037-.351-.037v.971zm2.488 1.165a1.36 1.36 0 0 1-.277.148.874.874 0 0 1-.305.046c-.139 0-.25-.028-.314-.093a.291.291 0 0 1-.102-.24c0-.129.074-.25.213-.351s.398-.213.768-.342v-.139c0-.093-.028-.157-.074-.185s-.102-.037-.166-.037c-.157 0-.24.056-.259.166-.009.074-.037.129-.074.166s-.093.055-.166.055-.129-.018-.166-.055c-.037-.037-.065-.083-.065-.129 0-.111.074-.213.222-.287.148-.083.351-.12.601-.12.139 0 .259.009.351.028s.176.046.231.092a.425.425 0 0 1 .12.148c.019.056.028.12.028.213v.694c0 .102.028.157.093.157.056 0 .093-.037.102-.102h.148c0 .129-.046.222-.139.277s-.194.093-.314.093c-.222-.009-.379-.074-.453-.203zm-.037-.203v-.425c-.166.074-.277.139-.333.194s-.074.12-.074.176c0 .046.019.093.046.129s.074.055.12.055.083-.009.129-.028c.037-.028.074-.055.111-.102zm1.914-.824c.074-.129.148-.222.24-.287s.194-.092.296-.092.185.037.24.102c.056.065.083.139.083.213s-.018.129-.065.185-.102.074-.176.074c-.046 0-.074-.009-.102-.028s-.065-.046-.111-.102c-.046-.046-.093-.074-.139-.074-.083 0-.139.046-.176.148s-.056.24-.056.435v.166c0 .093.019.157.046.194s.093.055.194.055h.037v.194H6.6v-.194c.111 0 .176-.018.203-.055s.046-.102.046-.194v-.518c0-.093-.019-.157-.046-.194s-.093-.055-.203-.055v-.194l.758-.157c.037.092.056.222.056.379zm1.961.167v.583c0 .093.018.157.046.185.028.037.092.055.185.055v.194h-1.11v-.194h.046c.102 0 .176-.018.194-.055.028-.037.037-.102.037-.185v-.518c0-.093-.018-.157-.046-.194s-.102-.055-.203-.055v-.194l.814-.129a.786.786 0 0 1 .028.24.816.816 0 0 1 .287-.213.856.856 0 0 1 .351-.074c.139 0 .259.028.342.083a.425.425 0 0 1 .194.24.725.725 0 0 1 .619-.323c.111 0 .213.018.296.056a.5.5 0 0 1 .295.324c.018.055.018.148.018.259v.481c0 .093.018.157.046.194s.102.046.222.046v.194h-1.091v-.194c.092 0 .157-.018.185-.055s.037-.102.037-.185v-.509c0-.102-.018-.176-.056-.231s-.092-.074-.176-.074c-.074 0-.139.018-.203.065s-.12.111-.176.194v.583c0 .093.018.157.046.185.028.037.092.055.185.055v.194H9.745v-.194c.092 0 .148-.018.176-.055s.046-.093.046-.185v-.536a.396.396 0 0 0-.056-.231.203.203 0 0 0-.166-.074.32.32 0 0 0-.194.065c-.046.046-.111.102-.176.185zm3.847.86a1.335 1.335 0 0 1-.277.148.874.874 0 0 1-.305.046c-.139 0-.25-.028-.314-.093a.291.291 0 0 1-.102-.24c0-.129.074-.25.213-.351s.398-.213.768-.342v-.139c0-.093-.028-.157-.074-.185s-.102-.037-.166-.037c-.157 0-.24.056-.259.166-.009.074-.037.129-.074.166s-.092.055-.166.055-.129-.018-.166-.055c-.037-.037-.065-.083-.065-.129 0-.111.074-.213.222-.287.148-.083.351-.12.601-.12.139 0 .259.009.351.028s.176.046.231.092a.436.436 0 0 1 .12.148c.018.056.028.12.028.213v.694c0 .102.028.157.092.157.056 0 .092-.037.102-.102h.148c0 .129-.046.222-.139.277s-.194.093-.314.093c-.222-.009-.379-.074-.453-.203zm-.037-.203v-.425c-.166.074-.277.139-.333.194s-.074.12-.074.176c0 .046.018.093.046.129s.074.055.12.055.083-.009.129-.028c.037-.028.074-.055.111-.102zm1.915-.824c.074-.129.148-.222.24-.287s.194-.092.296-.092.185.037.24.102c.056.065.083.139.083.213s-.018.129-.065.185c-.046.055-.102.074-.176.074-.046 0-.074-.009-.102-.028s-.065-.046-.111-.102c-.046-.046-.092-.074-.139-.074-.083 0-.139.046-.176.148s-.056.24-.056.435v.166c0 .093.018.157.046.194s.092.055.194.055h.037v.194h-1.119v-.194c.111 0 .176-.018.203-.055s.046-.102.046-.194v-.518c0-.093-.018-.157-.046-.194s-.092-.055-.203-.055v-.194l.758-.157c.018.092.046.222.046.379zm2.506.509l-.046.12a.535.535 0 0 0-.055.185c0 .055.018.102.065.129.037.028.111.037.194.037v.203h-.823v-.203c.157 0 .287-.129.398-.398l.768-1.933h.213l.777 1.933c.074.194.148.305.213.342s.12.055.176.055v.203H18.25v-.203c.111 0 .185-.009.203-.028.028-.018.037-.046.037-.083a.272.272 0 0 0-.037-.12l-.028-.055-.074-.185h-.74zm.083-.213h.601l-.314-.74-.287.74z"/><path d="M20.31 16.222v.583c0 .093.018.157.046.185.028.037.093.055.185.055v.194h-1.11v-.194h.046c.102 0 .176-.018.194-.055.028-.037.037-.102.037-.185v-.518c0-.093-.018-.157-.046-.194s-.102-.055-.203-.055v-.194l.814-.129a.786.786 0 0 1 .028.24.816.816 0 0 1 .287-.213.856.856 0 0 1 .351-.074c.139 0 .259.028.342.083a.42.42 0 0 1 .194.24.725.725 0 0 1 .619-.323c.111 0 .213.018.296.056a.494.494 0 0 1 .296.324c.018.055.018.148.018.259v.481c0 .093.018.157.046.194s.102.046.222.046v.194h-1.091v-.194c.093 0 .157-.018.185-.055s.037-.102.037-.185v-.509c0-.102-.018-.176-.055-.231s-.093-.074-.176-.074c-.074 0-.139.018-.203.065s-.12.111-.176.194v.583c0 .093.018.157.046.185.028.037.093.055.185.055v.194h-1.045v-.194c.093 0 .148-.018.176-.055s.046-.093.046-.185v-.536a.404.404 0 0 0-.055-.231.204.204 0 0 0-.166-.074.32.32 0 0 0-.194.065c-.046.046-.111.102-.176.185zm3.533.25c0 .203.037.351.102.453s.166.148.305.148c.148 0 .277-.074.398-.222l.166.102c-.074.102-.166.185-.296.25s-.277.102-.435.102a.912.912 0 0 1-.62-.222c-.176-.148-.259-.351-.259-.601s.083-.444.25-.592a.916.916 0 0 1 .601-.213c.24 0 .435.065.583.194s.231.333.231.601h-1.027zm-.009-.185h.462c-.009-.268-.083-.407-.24-.407-.074 0-.129.037-.166.102s-.055.166-.055.305zm2.117-.232c.074-.129.148-.222.24-.287s.194-.092.296-.092.185.037.24.102c.055.065.083.139.083.213s-.018.129-.065.185-.102.074-.176.074c-.046 0-.074-.009-.102-.028s-.065-.046-.111-.102c-.046-.046-.093-.074-.139-.074-.083 0-.139.046-.176.148s-.055.24-.055.435v.166c0 .093.018.157.046.194s.093.055.194.055h.037v.194h-1.119v-.194c.111 0 .176-.018.203-.055s.046-.102.046-.194v-.518c0-.093-.018-.157-.046-.194s-.093-.055-.203-.055v-.194l.758-.157c.018.092.037.222.046.379zm1.878-.379v1.128c0 .093.018.157.046.194s.102.055.203.055v.194H26.95v-.194h.046c.102 0 .166-.018.194-.055s.037-.102.037-.185v-.546c0-.093-.018-.157-.046-.194s-.093-.055-.194-.055h-.046v-.203l.888-.139zm-.62-.638c0-.092.037-.166.102-.231s.139-.102.231-.102.166.037.231.102.093.139.093.231-.028.166-.093.231-.139.102-.231.102a.334.334 0 0 1-.333-.333zm2.562 1.739l.185.083a.633.633 0 0 1-.277.324.988.988 0 0 1-.472.111.973.973 0 0 1-.629-.203.706.706 0 0 1-.259-.573c0-.259.093-.462.277-.62s.425-.231.721-.231c.185 0 .333.037.435.102a.292.292 0 0 1 .157.268c0 .065-.018.12-.065.166s-.093.074-.166.074c-.129 0-.222-.083-.259-.259-.009-.056-.028-.092-.046-.111s-.055-.037-.111-.037c-.111 0-.194.046-.25.129s-.083.213-.083.388c0 .24.037.407.102.509s.166.157.305.157a.437.437 0 0 0 .435-.277zm1.489.305a1.36 1.36 0 0 1-.277.148.874.874 0 0 1-.305.046c-.139 0-.25-.028-.314-.093a.291.291 0 0 1-.102-.24c0-.129.074-.25.213-.351s.398-.213.768-.342v-.139c0-.093-.028-.157-.074-.185s-.102-.037-.166-.037c-.157 0-.24.056-.259.166-.009.074-.037.129-.074.166s-.093.055-.166.055-.129-.018-.166-.055c-.037-.037-.065-.083-.065-.129 0-.111.074-.213.222-.287.148-.083.351-.12.601-.12.139 0 .259.009.351.028s.176.046.231.092a.436.436 0 0 1 .12.148c.018.056.028.12.028.213v.694c0 .102.028.157.093.157.055 0 .093-.037.102-.102h.148c0 .129-.046.222-.139.277s-.194.093-.314.093c-.222-.009-.37-.074-.453-.203zm-.028-.203v-.425c-.166.074-.277.139-.333.194s-.074.12-.074.176c0 .046.018.093.046.129s.074.055.12.055.083-.009.129-.028c.037-.028.074-.055.111-.102zm1.933-.676v.601c0 .083.009.148.037.185s.074.055.139.055v.194h-1.027v-.194c.111 0 .176-.018.203-.046.028-.037.046-.093.046-.194v-.518c0-.093-.019-.157-.046-.194s-.093-.055-.203-.055v-.194l.814-.129c.019.046.037.12.037.222a.705.705 0 0 1 .259-.194.613.613 0 0 1 .277-.065c.176 0 .305.046.407.139s.148.222.148.388v.601c0 .093.019.157.046.185.028.037.093.055.194.055v.194h-1.027v-.194c.056 0 .093-.018.129-.046s.056-.093.056-.194v-.555c0-.102-.009-.166-.037-.203s-.065-.056-.12-.056a.27.27 0 0 0-.157.056.713.713 0 0 0-.176.157zm3.617 1.083l-.851-1.914c-.065-.157-.12-.25-.139-.296a.277.277 0 0 0-.102-.102.54.54 0 0 0-.203-.037v-.203h1.323v.203c-.185 0-.277.046-.277.139 0 .046.028.129.083.25l.509 1.128.481-1.128a.556.556 0 0 0 .056-.213c0-.111-.093-.166-.277-.166v-.203h.879v.203c-.102 0-.176.028-.231.083s-.139.213-.25.49l-.758 1.766h-.24zm2.302-1.61v1.128c0 .093.019.157.046.194s.102.055.203.055v.194h-1.128v-.194h.046c.102 0 .166-.018.194-.055s.037-.102.037-.185v-.546c0-.093-.019-.157-.046-.194s-.093-.055-.194-.055h-.046v-.203l.888-.139zm-.619-.638c0-.092.037-.166.102-.231s.139-.102.231-.102.166.037.231.102.093.139.093.231-.028.166-.093.231-.139.102-.231.102a.334.334 0 0 1-.333-.333zm1.165 2.257l-.009-.499h.176c.093.203.268.314.527.314.111 0 .194-.018.268-.055s.102-.074.102-.129c0-.037-.019-.074-.056-.093s-.129-.046-.259-.074a3.38 3.38 0 0 1-.462-.12.522.522 0 0 1-.24-.176.435.435 0 0 1-.093-.277c0-.157.065-.277.185-.37s.296-.139.499-.139c.157 0 .324.028.49.092a.365.365 0 0 0 .074-.092h.148l.019.453h-.148c-.093-.185-.287-.277-.564-.277-.093 0-.166.018-.222.046s-.093.065-.093.111.028.083.074.111c.046.028.157.055.342.093s.333.074.425.12a.464.464 0 0 1 .222.176.428.428 0 0 1 .083.259c0 .157-.074.296-.213.398s-.314.148-.527.148c-.157 0-.324-.037-.499-.102a.204.204 0 0 0-.074.102h-.176zm2.849-.213a1.36 1.36 0 0 1-.277.148.874.874 0 0 1-.305.046c-.139 0-.25-.028-.314-.093a.291.291 0 0 1-.102-.24c0-.129.074-.25.213-.351s.398-.213.768-.342v-.139c0-.093-.028-.157-.074-.185s-.102-.037-.166-.037c-.157 0-.24.056-.259.166-.009.074-.037.129-.074.166s-.093.055-.166.055-.129-.018-.166-.055c-.037-.037-.065-.083-.065-.129 0-.111.074-.213.222-.287.148-.083.351-.12.601-.12.139 0 .259.009.351.028s.176.046.231.092a.425.425 0 0 1 .12.148c.019.056.028.12.028.213v.694c0 .102.028.157.093.157.056 0 .093-.037.102-.102h.148c0 .129-.046.222-.139.277s-.194.093-.314.093c-.222-.009-.37-.074-.453-.203zm-.028-.203v-.425c-.166.074-.277.139-.333.194s-.074.12-.074.176c0 .046.019.093.046.129s.074.055.12.055.083-.009.129-.028c.028-.028.065-.055.111-.102zm4.347-.472l-.009.832h-2.266v-.203h.037c.12 0 .203-.018.24-.065s.056-.12.056-.24V15.26c0-.111-.019-.194-.056-.24s-.12-.065-.24-.065h-.037v-.203h1.332v.203h-.046c-.129 0-.203.018-.24.065s-.056.12-.056.24v1.424c0 .111.009.176.019.213s.046.065.093.093c.056.028.139.037.268.037.222 0 .379-.055.49-.166s.185-.259.222-.444h.194zm1.267.675a1.36 1.36 0 0 1-.277.148.874.874 0 0 1-.305.046c-.139 0-.25-.028-.314-.093a.291.291 0 0 1-.102-.24c0-.129.074-.25.213-.351s.398-.213.768-.342v-.139c0-.093-.028-.157-.074-.185s-.102-.037-.166-.037c-.157 0-.24.056-.259.166-.009.074-.037.129-.074.166s-.093.055-.166.055-.129-.018-.166-.055c-.037-.037-.065-.083-.065-.129 0-.111.074-.213.222-.287.148-.083.351-.12.601-.12.139 0 .259.009.351.028s.176.046.231.092a.425.425 0 0 1 .12.148c.019.056.028.12.028.213v.694c0 .102.028.157.093.157.056 0 .093-.037.102-.102h.148c0 .129-.046.222-.139.277s-.194.093-.314.093c-.222-.009-.379-.074-.453-.203zm-.037-.203v-.425c-.166.074-.277.139-.333.194s-.074.12-.074.176c0 .046.019.093.046.129s.074.055.12.055.083-.009.129-.028c.037-.028.074-.055.111-.102zm1.711.388l-.472-1.091c-.046-.12-.093-.185-.12-.213s-.083-.037-.139-.037v-.194h1.008v.194c-.129 0-.185.028-.185.074 0 .028.009.065.037.129l.231.564.435-.962h.314l.444.962.24-.592c.009-.037.019-.065.019-.083 0-.065-.074-.092-.213-.092v-.194h.657v.194c-.065 0-.12.018-.157.065-.037.037-.083.129-.139.277l-.425.999h-.324l-.453-.962-.435.962h-.324zm3.135-.49v.25c0 .046.009.083.028.102s.046.028.102.028h.028v.083h-.564v-.083h.019c.056 0 .083-.009.102-.028s.028-.055.028-.102v-.62c0-.046-.009-.083-.028-.102s-.046-.028-.102-.028h-.028v-.083l.425-.009c.102 0 .185 0 .25.009s.111.018.157.046.083.055.111.102a.26.26 0 0 1 .037.139c0 .065-.019.129-.065.176s-.093.083-.157.093a.952.952 0 0 1-.25.028h-.093zm0-.093h.046c.083 0 .139-.018.166-.055s.037-.083.037-.139-.009-.093-.028-.129-.046-.055-.074-.065a.538.538 0 0 0-.148-.018v.407zm1.554.204v.351h-.953v-.083h.019c.056 0 .083-.009.102-.028s.028-.055.028-.102v-.62c0-.046-.009-.083-.028-.102s-.046-.028-.102-.028h-.019v-.083h.564v.083h-.019c-.056 0-.083.009-.102.028s-.028.055-.028.102v.592c0 .046 0 .074.009.093s.019.028.037.037a.276.276 0 0 0 .111.018c.093 0 .157-.018.203-.065s.074-.111.093-.185h.083zm.999 0v.351h-.953v-.083h.019c.056 0 .083-.009.102-.028s.028-.055.028-.102v-.62c0-.046-.009-.083-.028-.102s-.046-.028-.102-.028h-.019v-.083h.564v.083h-.019c-.056 0-.083.009-.102.028s-.028.055-.028.102v.592c0 .046 0 .074.009.093s.019.028.037.037a.276.276 0 0 0 .111.018c.093 0 .157-.018.203-.065s.074-.111.093-.185h.083zm1.072-.046v.388h-.083a.352.352 0 0 0-.046-.102.474.474 0 0 1-.342.129.527.527 0 0 1-.388-.157.553.553 0 0 1-.148-.379c0-.139.046-.268.148-.379s.231-.166.398-.166c.129 0 .231.046.324.129.009-.028.019-.055.028-.093h.083l.009.388h-.083c-.028-.102-.065-.185-.12-.24s-.129-.083-.203-.083a.232.232 0 0 0-.203.102c-.046.074-.065.185-.065.333 0 .102.009.194.028.25.019.065.046.111.102.139a.242.242 0 0 0 .157.046c.074 0 .148-.028.203-.083s.102-.129.129-.24h.074z"/></symbol><symbol id="mail" viewBox="0 0 20 20"><path d="M1.574 5.286l7.5 4.029c.252.135.578.199.906.199.328 0 .654-.064.906-.199l7.5-4.029c.489-.263.951-1.286.054-1.286H1.521c-.897 0-.435 1.023.053 1.286zm17.039 2.203l-7.727 4.027c-.34.178-.578.199-.906.199s-.566-.021-.906-.199-7.133-3.739-7.688-4.028C.996 7.284 1 7.523 1 7.707V15c0 .42.566 1 1 1h16c.434 0 1-.58 1-1V7.708c0-.184.004-.423-.387-.219z"/></symbol><symbol id="parenthood" viewBox="0 0 32 32"><path d="M13.72 4.644c.609.103 1.121.45 1.442.934l.005.008a2.145 2.145 0 0 1-.621 2.969l-1.763 1.153v.767l-3.277 2.132a1.043 1.043 0 1 0 1.138 1.748l3.037-1.977c.227.122.497.194.783.194h.002c.93 0 1.683-.754 1.683-1.683V6.152c0-1.25-1.316-2.06-2.429-1.509zM14.584 2.066a2.066 2.066 0 1 1-4.132 0 2.066 2.066 0 0 1 4.132 0zM10.052 5.571a1.043 1.043 0 0 0-.859 1.36l2.374-1.553-1.515.193zM7.072 4.627a2.377 2.377 0 1 1-4.753 0 2.377 2.377 0 0 1 4.753 0z"/><path d="M14.339 6.128a1.154 1.154 0 0 0-1.599-.334L7.671 9.109l-4.084.479 2.938-1.035a1.737 1.737 0 0 0-1.366-.394l-3.071.434a1.74 1.74 0 0 0-1.479 1.966l1.398 8.815 1.259 5.292-1.445 5.602a1.386 1.386 0 0 0 2.684.692l1.531-5.935c.056-.218.059-.448.006-.667l-1.278-5.374.632-.089 2.632 4.071.593 7.754a1.386 1.386 0 1 0 2.764-.212l-.62-8.105a1.385 1.385 0 0 0-.221-.652l.003.005-2.188-3.384-.863-6.104-3.641-.385 4.354-.51c.187-.023.356-.087.502-.183l-.004.003 5.297-3.464a1.154 1.154 0 0 0 .334-1.599zm17.055 14.459L28.893 7.953a1.634 1.634 0 0 0-1.604-1.32h-2.327c.299.224.522.535.631.896l.003.012a1.76 1.76 0 0 1-1.734 2.262l-1.083 1.572-4.066-.069a1.175 1.175 0 1 0-.039 2.351l4.716.079c.4 0 .753-.2.965-.505l.003-.004 2.521-3.658-1.553 4.325a1.553 1.553 0 0 1-1.481 1.025l-2.36-.04-1.13 5.707a.696.696 0 0 0 .682.831h1.509v9.08a1.501 1.501 0 1 0 3.004 0v-9.08h.649v9.08a1.501 1.501 0 1 0 3.004 0v-9.08h1.509a.697.697 0 0 0 .682-.831z"/><path d="M22.487 9.817l-.074.376.243.004.45-.386zm2.215-1.894a1.045 1.045 0 0 0-1.189-.877l-1.787.27-1.579-.641.694.105a1.684 1.684 0 0 0-3.138.846v2.721c.29-.138.63-.219.988-.219h.045-.002l2.336.04V9.74c-.07-.042-1.709-1.13-1.709-1.13l1.845.749a1.016 1.016 0 0 0 .555.065l-.006.001 2.071-.313c.571-.086.964-.619.878-1.189zM25.875.48a2.595 2.595 0 0 0-2.586 2.394 2.065 2.065 0 1 0 .094.924 2.596 2.596 0 0 0 5.086-.722A2.594 2.594 0 0 0 25.875.482z"/></symbol><symbol id="phone" viewBox="0 0 20 20"><path d="M11.229 11.229c-1.583 1.582-3.417 3.096-4.142 2.371-1.037-1.037-1.677-1.941-3.965-.102-2.287 1.838-.53 3.064.475 4.068 1.16 1.16 5.484.062 9.758-4.211 4.273-4.274 5.368-8.598 4.207-9.758-1.005-1.006-2.225-2.762-4.063-.475s-.936 2.927.103 3.965c.722.725-.791 2.559-2.373 4.142z"/></symbol><symbol id="twitter" viewBox="0 0 20 20"><path d="M17.316 6.246c.008.162.011.326.011.488 0 4.99-3.797 10.742-10.74 10.742-2.133 0-4.116-.625-5.787-1.697a7.577 7.577 0 0 0 5.588-1.562 3.779 3.779 0 0 1-3.526-2.621 3.858 3.858 0 0 0 1.705-.065 3.779 3.779 0 0 1-3.028-3.703v-.047a3.766 3.766 0 0 0 1.71.473 3.775 3.775 0 0 1-1.168-5.041 10.716 10.716 0 0 0 7.781 3.945 3.813 3.813 0 0 1-.097-.861 3.773 3.773 0 0 1 3.774-3.773 3.77 3.77 0 0 1 2.756 1.191 7.602 7.602 0 0 0 2.397-.916 3.789 3.789 0 0 1-1.66 2.088 7.55 7.55 0 0 0 2.168-.594 7.623 7.623 0 0 1-1.884 1.953z"/></symbol></svg>