<svg xmlns="http://www.w3.org/2000/svg" width="32" height="32" viewBox="0 0 32 32"><path d="M29.235 15.171v-.587h1.14a.518.518 0 0 0 .518-.518v-1.693h.587a.518.518 0 0 0 .518-.518v-1.659a.518.518 0 0 0-.259-.449l-.003-.001L16.254.899a.513.513 0 0 0-.517.002L15.739.9.257 9.747a.519.519 0 0 0-.261.45v1.659c0 .286.232.518.518.518h.587v1.693c0 .286.232.518.518.518h1.14v.587c0 .403.224.754.553.937v9.603H1.619a.518.518 0 0 0-.518.518v1.693H.514a.518.518 0 0 0-.518.518v2.212c0 .286.232.518.518.518h30.963a.518.518 0 0 0 .518-.518v-2.212a.518.518 0 0 0-.518-.518h-.587V26.23a.518.518 0 0 0-.518-.518h-1.693v-9.603c.329-.183.553-.534.553-.937zm-1.036 0a.035.035 0 0 1-.035.035h-2.212a.035.035 0 0 1-.035-.035v-.587h2.281v.587zm-5.046 10.54v-9.603c.329-.183.553-.534.553-.937v-.587h1.175v.587c0 .403.224.754.553.937v9.603h-2.281zm-2.211 0v-9.469h1.175v9.469h-1.175zm-3.318 0v-9.603c.329-.183.553-.534.553-.937v-.587h1.175v.587c0 .403.224.754.553.937v9.603h-2.281zm-2.211 0v-9.469h1.175v9.469h-1.175zm-3.318 0v-9.603c.329-.183.553-.534.553-.937v-.587h1.175v.587c0 .403.224.754.553.937v9.603h-2.281zm-2.212 0v-9.469h1.175v9.469H9.883zm-3.317 0v-9.603c.329-.183.553-.534.553-.937v-.587h1.175v.587c0 .403.224.754.553.937v9.603H6.566zm5.045-11.128v.587a.035.035 0 0 1-.035.035H9.364a.035.035 0 0 1-.035-.035v-.587h2.281zm5.529 0v.587a.035.035 0 0 1-.035.035h-2.212a.035.035 0 0 1-.035-.035v-.587h2.281zm5.53 0v.587a.035.035 0 0 1-.035.035h-2.212a.035.035 0 0 1-.035-.035v-.587h2.281zM1.037 10.495L16 1.945l14.963 8.55v.84H1.036v-.84zm1.106 1.876h27.715v1.175H2.143v-1.175zm3.939 2.212v.587a.035.035 0 0 1-.035.035H3.835a.035.035 0 0 1-.035-.035v-.587h2.281zm-1.728 1.659h1.175v9.469H4.354v-9.469zm26.609 13.892H1.036v-1.175h29.927v1.175zm-1.106-2.212H2.142v-1.175h27.715v1.175zm-3.386-2.211v-9.469h1.175v9.469h-1.175z"/></svg>