<svg xmlns="http://www.w3.org/2000/svg" width="32" height="32" viewBox="0 0 32 32"><path d="M11.521 13.075a1.477 1.477 0 0 1-2.95.003v-.002c0-.814.66-1.475 1.475-1.475h.004c.813 0 1.473.659 1.473 1.473v.003zm-1.318 10.094l.316 5.438a.346.346 0 0 0 .691.002v-.002l.297-5.438h.962l-.995-6.096 2.001 3.986a.345.345 0 0 0 .456.183l-.002.001a.343.343 0 0 0 .18-.454l.001.002s-1.468-3.969-1.83-4.709c-.358-.74-.717-1.19-2.093-1.19h-.281c-1.374 0-1.733.45-2.095 1.187-.361.742-1.834 4.708-1.834 4.708a.35.35 0 0 0 .182.454l.002.001a.345.345 0 0 0 .453-.181l.001-.002 2.003-3.986-.996 6.096h.962l.299 5.438a.346.346 0 0 0 .692 0l.297-5.438h.33zm11.758-11.573h-.003c-.814 0-1.474.66-1.474 1.474v.001a1.475 1.475 0 0 0 1.475 1.471h.003a1.47 1.47 0 0 0 1.469-1.469v-.003a1.47 1.47 0 0 0-1.469-1.475zm1.528 8.68l.098-3.208 1.8 3.988a.346.346 0 0 0 .456.183l-.002.001a.347.347 0 0 0 .185-.456l.001.002s-1.269-3.967-1.632-4.709c-.36-.738-.919-1.188-2.296-1.188h-.281c-1.373 0-1.937.45-2.298 1.188-.363.742-1.63 4.709-1.63 4.709a.347.347 0 0 0 .637.273l.001-.002 1.802-3.988.1 3.208-.286 8.056a.578.578 0 0 0 .533.619h.002l.042.002h.001a.58.58 0 0 0 .578-.536v-.002l.657-6.232.656 6.232a.578.578 0 0 0 .576.538h.003c.012 0 .027 0 .04-.002a.578.578 0 0 0 .537-.62v.002l-.282-8.056zm-7.487.283A.902.902 0 1 0 16 22.365h.002a.904.904 0 1 0 0-1.806zm0 5.327l.407 2.831a.367.367 0 0 0 .692-.022c.004-.006.012-.175.004-.202l-.167-3.475.051-1.192c.047-.406.055-.288.519-.563.471-.283 1.274-1.525 1.312-1.587.039-.06.113-.171.128-.24a.233.233 0 0 0-.181-.269h-.001c-.096-.017-.175.033-.235.1-.062.064-.985 1.294-1.679 1.412-.153-.023-.322-.104-.762-.104h-.175c-.44 0-.606.081-.762.104-.694-.119-1.617-1.348-1.679-1.412-.059-.067-.138-.117-.232-.1a.23.23 0 0 0-.182.27v-.001c.012.069.088.179.126.24.039.062.843 1.304 1.311 1.587.464.275.472.157.519.563l.049 1.192-.165 3.475c-.008.029 0 .196.004.202a.365.365 0 0 0 .691.024l.001-.003.406-2.831zM31.75 14.785a1.408 1.408 0 0 0-.35-1.961l-.005-.003-13.042-9.074c-1.339-.933-3.363-.933-4.7 0L.608 12.821a1.41 1.41 0 0 0-.352 1.969l-.003-.005a1.41 1.41 0 0 0 1.97.352l-.005.003 13.043-9.074c.368-.254 1.112-.254 1.479 0l13.042 9.074c.224.158.503.253.804.254.48-.001.903-.239 1.159-.604l.003-.005z"/></svg>