<svg xmlns="http://www.w3.org/2000/svg" width="32" height="32" viewBox="0 0 32 32"><path d="M9.316 24.383h-.001a.5.5 0 0 1-.427-.24l-.001-.002-2.122-3.533a.5.5 0 0 1 .856-.517l.001.002 2.122 3.533a.5.5 0 0 1-.429.757zm6.717-7.425h-.002a.49.49 0 0 1-.243-.064l.002.001-3.182-1.768a.5.5 0 0 1 .485-.875l3.182 1.768a.5.5 0 0 1-.242.937h-.001z"/><path d="M6.486 21.556a.495.495 0 0 1-.353-.147.497.497 0 0 1 0-.708l7.073-7.075a.497.497 0 0 1 .708 0 .499.499 0 0 1 .001.708l-7.073 7.075a.494.494 0 0 1-.352.147h-.001z"/><path d="M13.559 14.482h-.001a.498.498 0 0 1-.353-.146l-1.064-1.064a.497.497 0 0 1 0-.708.497.497 0 0 1 .708 0l1.064 1.064a.499.499 0 0 1 0 .708.503.503 0 0 1-.354.147zm-7.073 7.074a.495.495 0 0 1-.353-.147l-1.064-1.065a.499.499 0 0 1 .354-.854c.139 0 .263.056.354.147l1.064 1.065a.499.499 0 0 1-.352.854h-.001zm16.617 2.476h-.001a.497.497 0 0 1-.245-.064l.002.001a.501.501 0 0 1-.193-.682l-.001.003 1.767-3.179a.501.501 0 0 1 .682-.193l-.003-.001a.501.501 0 0 1 .193.683l.001-.003-1.767 3.179a.503.503 0 0 1-.438.257zm-6.717-7.424h-.001a.498.498 0 0 1-.446-.274l-.001-.003a.5.5 0 0 1 .221-.67l.003-.001 2.827-1.415a.5.5 0 0 1 .451.894l-.003.001-2.828 1.414a.496.496 0 0 1-.223.053z"/><path d="M25.578 21.559a.495.495 0 0 1-.353-.147l-7.073-7.073a.497.497 0 0 1 0-.708.495.495 0 0 1 .707 0l7.073 7.073a.497.497 0 0 1 0 .708.494.494 0 0 1-.352.147h-.001z"/><path d="M18.506 14.486h-.001a.495.495 0 0 1-.353-.147.497.497 0 0 1 0-.708l1.063-1.064a.495.495 0 0 1 .707 0 .497.497 0 0 1 0 .708l-1.063 1.064a.495.495 0 0 1-.353.147h-.001zm7.072 7.073a.495.495 0 0 1-.353-.147.5.5 0 0 1-.001-.708l1.064-1.065a.497.497 0 0 1 .708 0 .497.497 0 0 1 0 .708l-1.064 1.065a.494.494 0 0 1-.352.147h-.001zm-12.373-1.773h-.001a.499.499 0 0 1-.353-.853l3.183-3.18a.497.497 0 0 1 .708 0 .497.497 0 0 1 0 .708l-3.183 3.18a.495.495 0 0 1-.353.147h-.001zm1.593 1.947h-.001a.495.495 0 0 1-.353-.147.497.497 0 0 1 0-.708l2.298-2.299a.497.497 0 0 1 .708 0 .497.497 0 0 1 0 .708l-2.298 2.299a.498.498 0 0 1-.353.146z"/><path d="M18.511 19.434a.502.502 0 0 1-.354-.146.492.492 0 0 0-.352-.147h-.003a.492.492 0 0 0-.352.147.497.497 0 0 1-.708 0 .497.497 0 0 1 0-.708 1.49 1.49 0 0 1 1.059-.44h.002c.401 0 .778.157 1.061.44a.502.502 0 0 1-.001.708.498.498 0 0 1-.353.146h-.001z"/><path d="M23.107 24.03a.495.495 0 0 1-.353-.147l-4.595-4.595a.497.497 0 0 1 0-.708.497.497 0 0 1 .708 0l4.595 4.595a.497.497 0 0 1 0 .708.502.502 0 0 1-.354.146zm-9.193-1.932c-.448 0-.896-.171-1.238-.511a1.753 1.753 0 0 1 0-2.475.497.497 0 0 1 .708 0 .497.497 0 0 1 0 .708.75.75 0 1 0 1.061 1.061.499.499 0 0 1 .853.354.497.497 0 0 1-.147.354c-.34.34-.789.511-1.237.511zM15.326 32c-.001 0-.001 0 0 0-.468 0-.907-.181-1.237-.512a1.752 1.752 0 0 1 .001-2.475l.354-.355c.662-.661 1.814-.661 2.475.001a1.752 1.752 0 0 1 0 2.474l-.354.354c-.331.331-.77.513-1.238.513zm.354-2.855h-.002a.741.741 0 0 0-.527.219l-.353.355a.751.751 0 0 0 .527 1.28h.001c.2 0 .389-.078.531-.22l.354-.354a.75.75 0 0 0-.532-1.28z"/><path d="M13.558 30.231c-.468 0-.907-.182-1.237-.512a1.754 1.754 0 0 1 0-2.476l.354-.354c.66-.66 1.814-.661 2.475 0 .331.33.513.77.513 1.238s-.182.907-.513 1.238l-.354.354a1.74 1.74 0 0 1-1.238.513zm.354-2.854c-.2 0-.388.078-.53.219l-.354.354a.75.75 0 0 0 .528 1.28h.002a.749.749 0 0 0 .532-.22l.354-.354a.742.742 0 0 0 .22-.528v-.002a.746.746 0 0 0-.751-.75z"/><path d="M11.791 28.463c-.467 0-.907-.182-1.237-.513-.33-.329-.513-.768-.513-1.236s.181-.908.513-1.239l.354-.354c.662-.662 1.816-.661 2.475 0 .33.331.513.77.513 1.238s-.182.907-.513 1.238l-.354.354a1.74 1.74 0 0 1-1.237.513zm.353-2.854c-.2 0-.389.078-.531.22l-.354.354a.744.744 0 0 0-.22.529v.004c0 .206.084.393.22.527a.77.77 0 0 0 1.061.001l.354-.354a.743.743 0 0 0 .22-.529v-.002a.745.745 0 0 0-.22-.531.74.74 0 0 0-.527-.22h-.003z"/><path d="M10.022 26.695c-.468 0-.907-.182-1.238-.513s-.513-.77-.513-1.238.183-.907.513-1.238l.353-.354c.661-.661 1.814-.661 2.475 0 .331.331.513.77.513 1.238s-.182.907-.513 1.238l-.354.354c-.33.33-.769.512-1.237.512zm.354-2.855c-.2 0-.389.078-.531.22l-.354.354a.747.747 0 0 0 0 1.062.768.768 0 0 0 1.06 0l.354-.354c.142-.141.22-.33.22-.53s-.077-.389-.22-.531a.741.741 0 0 0-.528-.219h-.002zM17.447 32c-.448 0-.896-.171-1.236-.511a.497.497 0 0 1 0-.708.497.497 0 0 1 .708 0 .751.751 0 0 0 1.061-1.062.498.498 0 0 1 .001-.707.5.5 0 0 1 .707.001.74.74 0 0 0 .526.219h.003a.751.751 0 0 0 .531-1.281.498.498 0 0 1-.146-.353v-.001-.001a.5.5 0 0 1 .146-.353.497.497 0 0 1 .708 0 .75.75 0 0 0 1.061-1.06.498.498 0 0 1-.146-.353v-.001a.498.498 0 0 1 .5-.5c.139 0 .263.056.354.147a.767.767 0 0 0 1.06-.001.75.75 0 0 0 .001-1.06.497.497 0 0 1 0-.708.5.5 0 0 1 .708-.001 1.752 1.752 0 0 1-1.239 2.987h-.018v.021a1.747 1.747 0 0 1-1.75 1.746h-.018a1.748 1.748 0 0 1-1.749 1.769h-.019a1.75 1.75 0 0 1-1.751 1.768z"/><path d="M16.565 31.636a.495.495 0 0 1-.353-.147l-.178-.178a.497.497 0 0 1 0-.708.497.497 0 0 1 .708 0l.178.178a.497.497 0 0 1 0 .708.507.507 0 0 1-.354.147zm1.769-1.769h-.001a.495.495 0 0 1-.353-.147l-.532-.532a.497.497 0 0 1 0-.708.5.5 0 0 1 .708-.001l.532.532a.497.497 0 0 1 0 .708.495.495 0 0 1-.353.147zm1.768-1.769h-.001a.495.495 0 0 1-.353-.147l-.531-.532a.499.499 0 0 1 .354-.854c.139 0 .263.056.354.147l.531.532a.5.5 0 0 1-.353.854h-.001zm1.768-1.769a.495.495 0 0 1-.353-.147l-.531-.53a.5.5 0 0 1 .708-.707l.531.531a.499.499 0 0 1-.352.853h-.001zm1.769-1.768a.498.498 0 0 1-.353-.146l-.532-.532a.497.497 0 0 1 0-.708.497.497 0 0 1 .708 0l.532.532a.497.497 0 0 1 0 .708.497.497 0 0 1-.352.146h-.001zM5.072 20.847a.499.499 0 0 1-.354-.147L2.95 18.933a.5.5 0 0 1 0-.707l7.781-7.781a.502.502 0 0 1 .708 0l1.768 1.768a.497.497 0 0 1 0 .708l-7.781 7.78a.494.494 0 0 1-.352.147h-.001zM4.011 18.58l1.061 1.06 7.073-7.073-1.06-1.061zm22.985 2.267a.499.499 0 0 1-.354-.147l-7.779-7.779a.497.497 0 0 1 0-.708l1.767-1.768a.514.514 0 0 1 .707 0l7.781 7.779a.5.5 0 0 1-.001.707l-1.769 1.767a.494.494 0 0 1-.352.147h-.001zm-7.072-8.279l7.072 7.072 1.061-1.06-7.073-7.073zm-3.89-1.565c-3.033 0-5.502-2.468-5.502-5.502S13-.001 16.034-.001s5.502 2.468 5.502 5.502-2.468 5.502-5.502 5.502zm0-10.003c-2.482 0-4.501 2.019-4.501 4.501s2.019 4.501 4.501 4.501 4.501-2.019 4.501-4.501S18.516 1 16.034 1z"/><path d="M18.043 8.002h-4.001a.5.5 0 1 1 0-1h4.001a.499.499 0 1 1 0 1z"/><path d="M16.042 8.002a.5.5 0 0 1-.5-.5V3.001a.499.499 0 1 1 1 0v4.501a.5.5 0 0 1-.5.5z"/><path d="M18.043 4.001h-4.001a.499.499 0 1 1 0-1h4.001a.499.499 0 1 1 0 1zm.5 1.501h-1a.499.499 0 1 1 0-1h1a.499.499 0 1 1 0 1zm-4.001 0h-1a.499.499 0 1 1 0-1h1a.499.499 0 1 1 0 1z"/></svg>