<svg xmlns="http://www.w3.org/2000/svg" width="32" height="32" viewBox="0 0 32 32"><path d="M17.453 8.634a.72.72 0 0 1 0 1.022l-4.473 4.468a.72.72 0 0 1-1.018.008.73.73 0 0 1-.004-1.03l4.475-4.468a.718.718 0 0 1 1.02-.001zm2.125 13.109a.72.72 0 0 0 1.021.004l4.473-4.475a.716.716 0 0 0 0-1.022.726.726 0 0 0-1.024 0l-4.471 4.471a.723.723 0 0 0 0 1.024zM30.3 8.786v21.36H7.081v-.344l-2.058 2.201-3.32-3.326 5.378-5.029V.001h14.76L30.3 8.787zm-8.065-.715h3.986l-3.986-4.138v4.138zm5.623 1.833h-7.454V2.446H9.524V21.36l5.46-5.106-1.639-1.636 4.596-4.601 5.746 5.75-4.592 4.595-1.646-1.648-7.925 8.474v.515h18.334V9.905z"/></svg>