<svg xmlns="http://www.w3.org/2000/svg" width="32" height="32" viewBox="0 0 32 32"><path d="M31.999 13.126l.001-.037a.746.746 0 0 0-.071-.32l.002.005-4.87-10.539-.006-.011c-.005-.011-.012-.021-.018-.032a.687.687 0 0 0-.08-.119l.001.001a.956.956 0 0 0-.075-.08h-.001l-.014-.014a.84.84 0 0 0-.101-.073l-.003-.002-.033-.018a.81.81 0 0 0-.083-.039l-.005-.002-.036-.013a.778.778 0 0 0-.122-.03l-.004-.001-.014-.001a.88.88 0 0 0-.094-.007l-.026.002-.039.003a.682.682 0 0 0-.11.018l-.02.003-8.664 2.307v-.794c0-.835-.679-1.514-1.514-1.514s-1.514.679-1.514 1.514v1.6L5.432 7.344l-.008.003a.783.783 0 0 0-.125.047l-.032.017a.74.74 0 0 0-.084.053l-.033.024a.787.787 0 0 0-.094.089l-.005.007a.757.757 0 0 0-.069.096l-.002.003-.019.035c-.007.013-.016.026-.022.04L.069 18.297a.75.75 0 0 0-.069.315v.025-.001a1.51 1.51 0 0 0-.002.071c0 2.977 2.525 5.399 5.628 5.399s5.628-2.422 5.628-5.399l-.001-.057.001-.037a.746.746 0 0 0-.071-.32l.002.005-4.492-9.721 7.793-2.075v16.381a4.516 4.516 0 0 1-4.511 4.511 2.049 2.049 0 0 0-2.044 2.054c0 .418.339.758.758.758h14.624a.766.766 0 0 0 .758-.768 2.046 2.046 0 0 0-2.044-2.044 4.516 4.516 0 0 1-4.511-4.511V5.696L25.01 3.7l-4.193 9.073a.75.75 0 0 0-.069.315v.025-.001a1.73 1.73 0 0 0-.002.072c0 2.977 2.525 5.399 5.628 5.399s5.628-2.422 5.628-5.399L32 13.12v.006zM1.942 17.858l3.685-7.975 3.686 7.975H1.942zm24.431-13.5l3.685 7.975h-7.371l3.686-7.975z"/></svg>