<svg xmlns="http://www.w3.org/2000/svg" width="59" height="32" viewBox="0 0 59 32"><path d="M3.052 16.139v.592c0 .111.018.194.055.24s.12.065.24.065h.055v.203H2.061v-.203h.046c.12 0 .203-.018.24-.065s.055-.12.055-.24V15.26c0-.111-.018-.194-.055-.24s-.12-.065-.24-.065h-.065v-.203l1.008-.018c.25 0 .444.009.583.018s.268.046.379.111c.111.065.203.139.259.24s.083.213.083.333a.588.588 0 0 1-.148.416c-.102.12-.231.194-.379.231s-.351.055-.601.055H3.05zm0-.222h.12c.194 0 .324-.046.388-.129s.102-.194.102-.342a.574.574 0 0 0-.074-.305c-.046-.083-.111-.129-.185-.157s-.194-.037-.351-.037v.971zm2.488 1.165a1.36 1.36 0 0 1-.277.148.874.874 0 0 1-.305.046c-.139 0-.25-.028-.314-.093a.291.291 0 0 1-.102-.24c0-.129.074-.25.213-.351s.398-.213.768-.342v-.139c0-.093-.028-.157-.074-.185s-.102-.037-.166-.037c-.157 0-.24.056-.259.166-.009.074-.037.129-.074.166s-.093.055-.166.055-.129-.018-.166-.055c-.037-.037-.065-.083-.065-.129 0-.111.074-.213.222-.287.148-.083.351-.12.601-.12.139 0 .259.009.351.028s.176.046.231.092a.425.425 0 0 1 .12.148c.019.056.028.12.028.213v.694c0 .102.028.157.093.157.056 0 .093-.037.102-.102h.148c0 .129-.046.222-.139.277s-.194.093-.314.093c-.222-.009-.379-.074-.453-.203zm-.037-.203v-.425c-.166.074-.277.139-.333.194s-.074.12-.074.176c0 .046.019.093.046.129s.074.055.12.055.083-.009.129-.028c.037-.028.074-.055.111-.102zm1.914-.824c.074-.129.148-.222.24-.287s.194-.092.296-.092.185.037.24.102c.056.065.083.139.083.213s-.018.129-.065.185-.102.074-.176.074c-.046 0-.074-.009-.102-.028s-.065-.046-.111-.102c-.046-.046-.093-.074-.139-.074-.083 0-.139.046-.176.148s-.056.24-.056.435v.166c0 .093.019.157.046.194s.093.055.194.055h.037v.194H6.6v-.194c.111 0 .176-.018.203-.055s.046-.102.046-.194v-.518c0-.093-.019-.157-.046-.194s-.093-.055-.203-.055v-.194l.758-.157c.037.092.056.222.056.379zm1.961.167v.583c0 .093.018.157.046.185.028.037.092.055.185.055v.194h-1.11v-.194h.046c.102 0 .176-.018.194-.055.028-.037.037-.102.037-.185v-.518c0-.093-.018-.157-.046-.194s-.102-.055-.203-.055v-.194l.814-.129a.786.786 0 0 1 .028.24.816.816 0 0 1 .287-.213.856.856 0 0 1 .351-.074c.139 0 .259.028.342.083a.425.425 0 0 1 .194.24.725.725 0 0 1 .619-.323c.111 0 .213.018.296.056a.5.5 0 0 1 .295.324c.018.055.018.148.018.259v.481c0 .093.018.157.046.194s.102.046.222.046v.194h-1.091v-.194c.092 0 .157-.018.185-.055s.037-.102.037-.185v-.509c0-.102-.018-.176-.056-.231s-.092-.074-.176-.074c-.074 0-.139.018-.203.065s-.12.111-.176.194v.583c0 .093.018.157.046.185.028.037.092.055.185.055v.194H9.745v-.194c.092 0 .148-.018.176-.055s.046-.093.046-.185v-.536a.396.396 0 0 0-.056-.231.203.203 0 0 0-.166-.074.32.32 0 0 0-.194.065c-.046.046-.111.102-.176.185zm3.847.86a1.335 1.335 0 0 1-.277.148.874.874 0 0 1-.305.046c-.139 0-.25-.028-.314-.093a.291.291 0 0 1-.102-.24c0-.129.074-.25.213-.351s.398-.213.768-.342v-.139c0-.093-.028-.157-.074-.185s-.102-.037-.166-.037c-.157 0-.24.056-.259.166-.009.074-.037.129-.074.166s-.092.055-.166.055-.129-.018-.166-.055c-.037-.037-.065-.083-.065-.129 0-.111.074-.213.222-.287.148-.083.351-.12.601-.12.139 0 .259.009.351.028s.176.046.231.092a.436.436 0 0 1 .12.148c.018.056.028.12.028.213v.694c0 .102.028.157.092.157.056 0 .092-.037.102-.102h.148c0 .129-.046.222-.139.277s-.194.093-.314.093c-.222-.009-.379-.074-.453-.203zm-.037-.203v-.425c-.166.074-.277.139-.333.194s-.074.12-.074.176c0 .046.018.093.046.129s.074.055.12.055.083-.009.129-.028c.037-.028.074-.055.111-.102zm1.915-.824c.074-.129.148-.222.24-.287s.194-.092.296-.092.185.037.24.102c.056.065.083.139.083.213s-.018.129-.065.185c-.046.055-.102.074-.176.074-.046 0-.074-.009-.102-.028s-.065-.046-.111-.102c-.046-.046-.092-.074-.139-.074-.083 0-.139.046-.176.148s-.056.24-.056.435v.166c0 .093.018.157.046.194s.092.055.194.055h.037v.194h-1.119v-.194c.111 0 .176-.018.203-.055s.046-.102.046-.194v-.518c0-.093-.018-.157-.046-.194s-.092-.055-.203-.055v-.194l.758-.157c.018.092.046.222.046.379zm2.506.509l-.046.12a.535.535 0 0 0-.055.185c0 .055.018.102.065.129.037.028.111.037.194.037v.203h-.823v-.203c.157 0 .287-.129.398-.398l.768-1.933h.213l.777 1.933c.074.194.148.305.213.342s.12.055.176.055v.203H18.25v-.203c.111 0 .185-.009.203-.028.028-.018.037-.046.037-.083a.272.272 0 0 0-.037-.12l-.028-.055-.074-.185h-.74zm.083-.213h.601l-.314-.74-.287.74z"/><path d="M20.31 16.222v.583c0 .093.018.157.046.185.028.037.093.055.185.055v.194h-1.11v-.194h.046c.102 0 .176-.018.194-.055.028-.037.037-.102.037-.185v-.518c0-.093-.018-.157-.046-.194s-.102-.055-.203-.055v-.194l.814-.129a.786.786 0 0 1 .028.24.816.816 0 0 1 .287-.213.856.856 0 0 1 .351-.074c.139 0 .259.028.342.083a.42.42 0 0 1 .194.24.725.725 0 0 1 .619-.323c.111 0 .213.018.296.056a.494.494 0 0 1 .296.324c.018.055.018.148.018.259v.481c0 .093.018.157.046.194s.102.046.222.046v.194h-1.091v-.194c.093 0 .157-.018.185-.055s.037-.102.037-.185v-.509c0-.102-.018-.176-.055-.231s-.093-.074-.176-.074c-.074 0-.139.018-.203.065s-.12.111-.176.194v.583c0 .093.018.157.046.185.028.037.093.055.185.055v.194h-1.045v-.194c.093 0 .148-.018.176-.055s.046-.093.046-.185v-.536a.404.404 0 0 0-.055-.231.204.204 0 0 0-.166-.074.32.32 0 0 0-.194.065c-.046.046-.111.102-.176.185zm3.533.25c0 .203.037.351.102.453s.166.148.305.148c.148 0 .277-.074.398-.222l.166.102c-.074.102-.166.185-.296.25s-.277.102-.435.102a.912.912 0 0 1-.62-.222c-.176-.148-.259-.351-.259-.601s.083-.444.25-.592a.916.916 0 0 1 .601-.213c.24 0 .435.065.583.194s.231.333.231.601h-1.027zm-.009-.185h.462c-.009-.268-.083-.407-.24-.407-.074 0-.129.037-.166.102s-.055.166-.055.305zm2.117-.232c.074-.129.148-.222.24-.287s.194-.092.296-.092.185.037.24.102c.055.065.083.139.083.213s-.018.129-.065.185-.102.074-.176.074c-.046 0-.074-.009-.102-.028s-.065-.046-.111-.102c-.046-.046-.093-.074-.139-.074-.083 0-.139.046-.176.148s-.055.24-.055.435v.166c0 .093.018.157.046.194s.093.055.194.055h.037v.194h-1.119v-.194c.111 0 .176-.018.203-.055s.046-.102.046-.194v-.518c0-.093-.018-.157-.046-.194s-.093-.055-.203-.055v-.194l.758-.157c.018.092.037.222.046.379zm1.878-.379v1.128c0 .093.018.157.046.194s.102.055.203.055v.194H26.95v-.194h.046c.102 0 .166-.018.194-.055s.037-.102.037-.185v-.546c0-.093-.018-.157-.046-.194s-.093-.055-.194-.055h-.046v-.203l.888-.139zm-.62-.638c0-.092.037-.166.102-.231s.139-.102.231-.102.166.037.231.102.093.139.093.231-.028.166-.093.231-.139.102-.231.102a.334.334 0 0 1-.333-.333zm2.562 1.739l.185.083a.633.633 0 0 1-.277.324.988.988 0 0 1-.472.111.973.973 0 0 1-.629-.203.706.706 0 0 1-.259-.573c0-.259.093-.462.277-.62s.425-.231.721-.231c.185 0 .333.037.435.102a.292.292 0 0 1 .157.268c0 .065-.018.12-.065.166s-.093.074-.166.074c-.129 0-.222-.083-.259-.259-.009-.056-.028-.092-.046-.111s-.055-.037-.111-.037c-.111 0-.194.046-.25.129s-.083.213-.083.388c0 .24.037.407.102.509s.166.157.305.157a.437.437 0 0 0 .435-.277zm1.489.305a1.36 1.36 0 0 1-.277.148.874.874 0 0 1-.305.046c-.139 0-.25-.028-.314-.093a.291.291 0 0 1-.102-.24c0-.129.074-.25.213-.351s.398-.213.768-.342v-.139c0-.093-.028-.157-.074-.185s-.102-.037-.166-.037c-.157 0-.24.056-.259.166-.009.074-.037.129-.074.166s-.093.055-.166.055-.129-.018-.166-.055c-.037-.037-.065-.083-.065-.129 0-.111.074-.213.222-.287.148-.083.351-.12.601-.12.139 0 .259.009.351.028s.176.046.231.092a.436.436 0 0 1 .12.148c.018.056.028.12.028.213v.694c0 .102.028.157.093.157.055 0 .093-.037.102-.102h.148c0 .129-.046.222-.139.277s-.194.093-.314.093c-.222-.009-.37-.074-.453-.203zm-.028-.203v-.425c-.166.074-.277.139-.333.194s-.074.12-.074.176c0 .046.018.093.046.129s.074.055.12.055.083-.009.129-.028c.037-.028.074-.055.111-.102zm1.933-.676v.601c0 .083.009.148.037.185s.074.055.139.055v.194h-1.027v-.194c.111 0 .176-.018.203-.046.028-.037.046-.093.046-.194v-.518c0-.093-.019-.157-.046-.194s-.093-.055-.203-.055v-.194l.814-.129c.019.046.037.12.037.222a.705.705 0 0 1 .259-.194.613.613 0 0 1 .277-.065c.176 0 .305.046.407.139s.148.222.148.388v.601c0 .093.019.157.046.185.028.037.093.055.194.055v.194h-1.027v-.194c.056 0 .093-.018.129-.046s.056-.093.056-.194v-.555c0-.102-.009-.166-.037-.203s-.065-.056-.12-.056a.27.27 0 0 0-.157.056.713.713 0 0 0-.176.157zm3.617 1.083l-.851-1.914c-.065-.157-.12-.25-.139-.296a.277.277 0 0 0-.102-.102.54.54 0 0 0-.203-.037v-.203h1.323v.203c-.185 0-.277.046-.277.139 0 .046.028.129.083.25l.509 1.128.481-1.128a.556.556 0 0 0 .056-.213c0-.111-.093-.166-.277-.166v-.203h.879v.203c-.102 0-.176.028-.231.083s-.139.213-.25.49l-.758 1.766h-.24zm2.302-1.61v1.128c0 .093.019.157.046.194s.102.055.203.055v.194h-1.128v-.194h.046c.102 0 .166-.018.194-.055s.037-.102.037-.185v-.546c0-.093-.019-.157-.046-.194s-.093-.055-.194-.055h-.046v-.203l.888-.139zm-.619-.638c0-.092.037-.166.102-.231s.139-.102.231-.102.166.037.231.102.093.139.093.231-.028.166-.093.231-.139.102-.231.102a.334.334 0 0 1-.333-.333zm1.165 2.257l-.009-.499h.176c.093.203.268.314.527.314.111 0 .194-.018.268-.055s.102-.074.102-.129c0-.037-.019-.074-.056-.093s-.129-.046-.259-.074a3.38 3.38 0 0 1-.462-.12.522.522 0 0 1-.24-.176.435.435 0 0 1-.093-.277c0-.157.065-.277.185-.37s.296-.139.499-.139c.157 0 .324.028.49.092a.365.365 0 0 0 .074-.092h.148l.019.453h-.148c-.093-.185-.287-.277-.564-.277-.093 0-.166.018-.222.046s-.093.065-.093.111.028.083.074.111c.046.028.157.055.342.093s.333.074.425.12a.464.464 0 0 1 .222.176.428.428 0 0 1 .083.259c0 .157-.074.296-.213.398s-.314.148-.527.148c-.157 0-.324-.037-.499-.102a.204.204 0 0 0-.074.102h-.176zm2.849-.213a1.36 1.36 0 0 1-.277.148.874.874 0 0 1-.305.046c-.139 0-.25-.028-.314-.093a.291.291 0 0 1-.102-.24c0-.129.074-.25.213-.351s.398-.213.768-.342v-.139c0-.093-.028-.157-.074-.185s-.102-.037-.166-.037c-.157 0-.24.056-.259.166-.009.074-.037.129-.074.166s-.093.055-.166.055-.129-.018-.166-.055c-.037-.037-.065-.083-.065-.129 0-.111.074-.213.222-.287.148-.083.351-.12.601-.12.139 0 .259.009.351.028s.176.046.231.092a.425.425 0 0 1 .12.148c.019.056.028.12.028.213v.694c0 .102.028.157.093.157.056 0 .093-.037.102-.102h.148c0 .129-.046.222-.139.277s-.194.093-.314.093c-.222-.009-.37-.074-.453-.203zm-.028-.203v-.425c-.166.074-.277.139-.333.194s-.074.12-.074.176c0 .046.019.093.046.129s.074.055.12.055.083-.009.129-.028c.028-.028.065-.055.111-.102zm4.347-.472l-.009.832h-2.266v-.203h.037c.12 0 .203-.018.24-.065s.056-.12.056-.24V15.26c0-.111-.019-.194-.056-.24s-.12-.065-.24-.065h-.037v-.203h1.332v.203h-.046c-.129 0-.203.018-.24.065s-.056.12-.056.24v1.424c0 .111.009.176.019.213s.046.065.093.093c.056.028.139.037.268.037.222 0 .379-.055.49-.166s.185-.259.222-.444h.194zm1.267.675a1.36 1.36 0 0 1-.277.148.874.874 0 0 1-.305.046c-.139 0-.25-.028-.314-.093a.291.291 0 0 1-.102-.24c0-.129.074-.25.213-.351s.398-.213.768-.342v-.139c0-.093-.028-.157-.074-.185s-.102-.037-.166-.037c-.157 0-.24.056-.259.166-.009.074-.037.129-.074.166s-.093.055-.166.055-.129-.018-.166-.055c-.037-.037-.065-.083-.065-.129 0-.111.074-.213.222-.287.148-.083.351-.12.601-.12.139 0 .259.009.351.028s.176.046.231.092a.425.425 0 0 1 .12.148c.019.056.028.12.028.213v.694c0 .102.028.157.093.157.056 0 .093-.037.102-.102h.148c0 .129-.046.222-.139.277s-.194.093-.314.093c-.222-.009-.379-.074-.453-.203zm-.037-.203v-.425c-.166.074-.277.139-.333.194s-.074.12-.074.176c0 .046.019.093.046.129s.074.055.12.055.083-.009.129-.028c.037-.028.074-.055.111-.102zm1.711.388l-.472-1.091c-.046-.12-.093-.185-.12-.213s-.083-.037-.139-.037v-.194h1.008v.194c-.129 0-.185.028-.185.074 0 .028.009.065.037.129l.231.564.435-.962h.314l.444.962.24-.592c.009-.037.019-.065.019-.083 0-.065-.074-.092-.213-.092v-.194h.657v.194c-.065 0-.12.018-.157.065-.037.037-.083.129-.139.277l-.425.999h-.324l-.453-.962-.435.962h-.324zm3.135-.49v.25c0 .046.009.083.028.102s.046.028.102.028h.028v.083h-.564v-.083h.019c.056 0 .083-.009.102-.028s.028-.055.028-.102v-.62c0-.046-.009-.083-.028-.102s-.046-.028-.102-.028h-.028v-.083l.425-.009c.102 0 .185 0 .25.009s.111.018.157.046.083.055.111.102a.26.26 0 0 1 .037.139c0 .065-.019.129-.065.176s-.093.083-.157.093a.952.952 0 0 1-.25.028h-.093zm0-.093h.046c.083 0 .139-.018.166-.055s.037-.083.037-.139-.009-.093-.028-.129-.046-.055-.074-.065a.538.538 0 0 0-.148-.018v.407zm1.554.204v.351h-.953v-.083h.019c.056 0 .083-.009.102-.028s.028-.055.028-.102v-.62c0-.046-.009-.083-.028-.102s-.046-.028-.102-.028h-.019v-.083h.564v.083h-.019c-.056 0-.083.009-.102.028s-.028.055-.028.102v.592c0 .046 0 .074.009.093s.019.028.037.037a.276.276 0 0 0 .111.018c.093 0 .157-.018.203-.065s.074-.111.093-.185h.083zm.999 0v.351h-.953v-.083h.019c.056 0 .083-.009.102-.028s.028-.055.028-.102v-.62c0-.046-.009-.083-.028-.102s-.046-.028-.102-.028h-.019v-.083h.564v.083h-.019c-.056 0-.083.009-.102.028s-.028.055-.028.102v.592c0 .046 0 .074.009.093s.019.028.037.037a.276.276 0 0 0 .111.018c.093 0 .157-.018.203-.065s.074-.111.093-.185h.083zm1.072-.046v.388h-.083a.352.352 0 0 0-.046-.102.474.474 0 0 1-.342.129.527.527 0 0 1-.388-.157.553.553 0 0 1-.148-.379c0-.139.046-.268.148-.379s.231-.166.398-.166c.129 0 .231.046.324.129.009-.028.019-.055.028-.093h.083l.009.388h-.083c-.028-.102-.065-.185-.12-.24s-.129-.083-.203-.083a.232.232 0 0 0-.203.102c-.046.074-.065.185-.065.333 0 .102.009.194.028.25.019.065.046.111.102.139a.242.242 0 0 0 .157.046c.074 0 .148-.028.203-.083s.102-.129.129-.24h.074z"/></svg>