<svg xmlns="http://www.w3.org/2000/svg" width="59" height="32" viewBox="0 0 59 32"><path d="M36.106 8.102c-.712-.823-1.628-1.406-2.747-1.729s-2.71-.49-4.782-.49c-1.119 0-2.691.037-4.698.102l-2.516.093v.684h.37c1.017 0 1.674.093 1.979.268s.499.499.592.962c.037.194.065.49.083.888 1.387.305 2.543.416 3.385.462 1.434.074 2.608-.018 3.172.749.166.231.231.472.259.638.268.028.786.12 1.23.518.203.185.536.472.509.888-.019.305-.222.527-.305.61a1.336 1.336 0 0 0-.277-.287c-1.008-.749-2.932.305-3.579.666-.555.305-3.958 2.247-4.338 5.447-.093.805-.028 1.988-.009 2.34.065 1.313.083 2.09-.129 3.2-.093.462-.296.795-.629 1.008s-.925.324-1.785.324h-.527v.684h9.175v-.694h-.666c-.897 0-1.508-.12-1.831-.351s-.527-.601-.601-1.082c-.074-.49-.111-1.517-.111-3.098v-4.208h2.201c2.294 0 3.903-.213 4.809-.647a4.724 4.724 0 0 0 2.099-1.905c.49-.842.731-1.803.731-2.895.009-1.276-.351-2.312-1.064-3.145z"/></svg>