<svg xmlns="http://www.w3.org/2000/svg" width="32" height="32" viewBox="0 0 32 32"><path d="M13.72 4.644c.609.103 1.121.45 1.442.934l.005.008a2.145 2.145 0 0 1-.621 2.969l-1.763 1.153v.767l-3.277 2.132a1.043 1.043 0 1 0 1.138 1.748l3.037-1.977c.227.122.497.194.783.194h.002c.93 0 1.683-.754 1.683-1.683V6.152c0-1.25-1.316-2.06-2.429-1.509zM14.584 2.066a2.066 2.066 0 1 1-4.132 0 2.066 2.066 0 0 1 4.132 0zM10.052 5.571a1.043 1.043 0 0 0-.859 1.36l2.374-1.553-1.515.193zM7.072 4.627a2.377 2.377 0 1 1-4.753 0 2.377 2.377 0 0 1 4.753 0z"/><path d="M14.339 6.128a1.154 1.154 0 0 0-1.599-.334L7.671 9.109l-4.084.479 2.938-1.035a1.737 1.737 0 0 0-1.366-.394l-3.071.434a1.74 1.74 0 0 0-1.479 1.966l1.398 8.815 1.259 5.292-1.445 5.602a1.386 1.386 0 0 0 2.684.692l1.531-5.935c.056-.218.059-.448.006-.667l-1.278-5.374.632-.089 2.632 4.071.593 7.754a1.386 1.386 0 1 0 2.764-.212l-.62-8.105a1.385 1.385 0 0 0-.221-.652l.003.005-2.188-3.384-.863-6.104-3.641-.385 4.354-.51c.187-.023.356-.087.502-.183l-.004.003 5.297-3.464a1.154 1.154 0 0 0 .334-1.599zm17.055 14.459L28.893 7.953a1.634 1.634 0 0 0-1.604-1.32h-2.327c.299.224.522.535.631.896l.003.012a1.76 1.76 0 0 1-1.734 2.262l-1.083 1.572-4.066-.069a1.175 1.175 0 1 0-.039 2.351l4.716.079c.4 0 .753-.2.965-.505l.003-.004 2.521-3.658-1.553 4.325a1.553 1.553 0 0 1-1.481 1.025l-2.36-.04-1.13 5.707a.696.696 0 0 0 .682.831h1.509v9.08a1.501 1.501 0 1 0 3.004 0v-9.08h.649v9.08a1.501 1.501 0 1 0 3.004 0v-9.08h1.509a.697.697 0 0 0 .682-.831z"/><path d="M22.487 9.817l-.074.376.243.004.45-.386zm2.215-1.894a1.045 1.045 0 0 0-1.189-.877l-1.787.27-1.579-.641.694.105a1.684 1.684 0 0 0-3.138.846v2.721c.29-.138.63-.219.988-.219h.045-.002l2.336.04V9.74c-.07-.042-1.709-1.13-1.709-1.13l1.845.749a1.016 1.016 0 0 0 .555.065l-.006.001 2.071-.313c.571-.086.964-.619.878-1.189zM25.875.48a2.595 2.595 0 0 0-2.586 2.394 2.065 2.065 0 1 0 .094.924 2.596 2.596 0 0 0 5.086-.722A2.594 2.594 0 0 0 25.875.482z"/></svg>