<!-- Generated by IcoMoon.io -->
<svg version="1.1" xmlns="http://www.w3.org/2000/svg" width="32" height="32" viewBox="0 0 32 32">
<title>courthouse</title>
<path d="M29.235 15.171v-0.587h1.14c0.286 0 0.518-0.232 0.518-0.518v0-1.693h0.587c0.286 0 0.518-0.232 0.518-0.518v0-1.659c0 0 0 0 0 0 0-0.192-0.104-0.359-0.259-0.449l-0.003-0.001-15.482-8.847c-0.074-0.043-0.163-0.068-0.257-0.068s-0.183 0.025-0.26 0.070l0.002-0.001-15.482 8.847c-0.157 0.091-0.261 0.258-0.261 0.45 0 0 0 0 0 0v0 1.659c0 0.286 0.232 0.518 0.518 0.518v0h0.587v1.693c0 0.286 0.232 0.518 0.518 0.518v0h1.14v0.587c0 0.403 0.224 0.754 0.553 0.937v9.603h-1.693c-0.286 0-0.518 0.232-0.518 0.518v0 1.693h-0.587c-0.286 0-0.518 0.232-0.518 0.518v0 2.212c0 0.286 0.232 0.518 0.518 0.518v0h30.963c0.286 0 0.518-0.232 0.518-0.518v0-2.212c0-0.286-0.232-0.518-0.518-0.518v0h-0.587v-1.693c0-0.286-0.232-0.518-0.518-0.518v0h-1.693v-9.603c0.329-0.183 0.553-0.534 0.553-0.937zM28.199 15.171c0 0.019-0.015 0.035-0.035 0.035v0h-2.212c-0.019 0-0.035-0.015-0.035-0.035v0-0.587h2.281v0.587zM23.153 25.711v-9.603c0.329-0.183 0.553-0.534 0.553-0.937v-0.587h1.175v0.587c0 0.403 0.224 0.754 0.553 0.937v9.603h-2.281zM20.942 25.711v-9.469h1.175v9.469h-1.175zM17.624 25.711v-9.603c0.329-0.183 0.553-0.534 0.553-0.937v-0.587h1.175v0.587c0 0.403 0.224 0.754 0.553 0.937v9.603h-2.281zM15.413 25.711v-9.469h1.175v9.469h-1.175zM12.095 25.711v-9.603c0.329-0.183 0.553-0.534 0.553-0.937v-0.587h1.175v0.587c0 0.403 0.224 0.754 0.553 0.937v9.603h-2.281zM9.883 25.711v-9.469h1.175v9.469h-1.175zM6.566 25.711v-9.603c0.329-0.183 0.553-0.534 0.553-0.937v-0.587h1.175v0.587c0 0.403 0.224 0.754 0.553 0.937v9.603h-2.281zM11.611 14.583v0.587c0 0.019-0.015 0.035-0.035 0.035v0h-2.212c-0.019 0-0.035-0.015-0.035-0.035v0-0.587h2.281zM17.14 14.583v0.587c0 0.019-0.015 0.035-0.035 0.035v0h-2.212c-0.019 0-0.035-0.015-0.035-0.035v0-0.587h2.281zM22.67 14.583v0.587c0 0.019-0.015 0.035-0.035 0.035v0h-2.212c-0.019 0-0.035-0.015-0.035-0.035v0-0.587h2.281zM1.037 10.495l14.963-8.55 14.963 8.55v0.84h-29.927v-0.84zM2.143 12.371h27.715v1.175h-27.715v-1.175zM6.082 14.583v0.587c0 0.019-0.015 0.035-0.035 0.035v0h-2.212c-0.019 0-0.035-0.015-0.035-0.035v0-0.587h2.281zM4.354 16.242h1.175v9.469h-1.175v-9.469zM30.963 30.134h-29.927v-1.175h29.927v1.175zM29.857 27.922h-27.715v-1.175h27.715v1.175zM26.471 25.711v-9.469h1.175v9.469h-1.175z"></path>
</svg>
