<!-- Generated by IcoMoon.io -->
<svg version="1.1" xmlns="http://www.w3.org/2000/svg" width="32" height="32" viewBox="0 0 32 32">
<title>family</title>
<path d="M11.521 13.075c-0.024 0.797-0.675 1.434-1.475 1.434s-1.452-0.637-1.475-1.431l-0-0.002c0-0 0-0 0-0 0-0.814 0.66-1.475 1.475-1.475 0.001 0 0.001 0 0.002 0h-0c0 0 0.001 0 0.002 0 0.813 0 1.473 0.659 1.473 1.473 0 0.001 0 0.002 0 0.003v-0zM10.203 23.169l0.316 5.438c0 0.192 0.155 0.348 0.345 0.348 0.191-0 0.346-0.155 0.346-0.346 0-0.001 0-0.001 0-0.002v0l0.297-5.438h0.962l-0.995-6.096 2.001 3.986c0.053 0.125 0.175 0.212 0.317 0.212 0.050 0 0.097-0.011 0.139-0.029l-0.002 0.001c0.124-0.053 0.21-0.174 0.21-0.315 0-0.049-0.011-0.097-0.030-0.139l0.001 0.002s-1.468-3.969-1.83-4.709c-0.358-0.74-0.717-1.19-2.093-1.19h-0.281c-1.374 0-1.733 0.45-2.095 1.187-0.361 0.742-1.834 4.708-1.834 4.708-0.017 0.040-0.027 0.086-0.027 0.134 0 0.143 0.086 0.266 0.209 0.32l0.002 0.001c0.040 0.018 0.087 0.028 0.136 0.028 0.142 0 0.264-0.086 0.317-0.209l0.001-0.002 2.003-3.986-0.996 6.096h0.962l0.299 5.438c0 0.191 0.155 0.346 0.346 0.346s0.346-0.155 0.346-0.346v0l0.297-5.438h0.33zM21.961 11.596c-0.001 0-0.002 0-0.003 0-0.814 0-1.474 0.66-1.474 1.474 0 0 0 0.001 0 0.001v-0c0.002 0.813 0.662 1.471 1.475 1.471 0.001 0 0.002 0 0.003 0h-0c0 0 0 0 0 0 0.811 0 1.469-0.658 1.469-1.469 0-0.001 0-0.002 0-0.003v0c0-0.817-0.656-1.475-1.469-1.475zM23.489 20.276l0.098-3.208 1.8 3.988c0.053 0.125 0.176 0.212 0.318 0.212 0.049 0 0.096-0.010 0.138-0.029l-0.002 0.001c0.126-0.054 0.213-0.176 0.213-0.319 0-0.049-0.010-0.095-0.028-0.137l0.001 0.002s-1.269-3.967-1.632-4.709c-0.36-0.738-0.919-1.188-2.296-1.188h-0.281c-1.373 0-1.937 0.45-2.298 1.188-0.363 0.742-1.63 4.709-1.63 4.709-0.019 0.041-0.030 0.089-0.030 0.14 0 0.192 0.155 0.347 0.347 0.347 0.144 0 0.268-0.088 0.32-0.214l0.001-0.002 1.802-3.988 0.1 3.208-0.286 8.056c-0.001 0.013-0.002 0.028-0.002 0.043 0 0.305 0.236 0.554 0.535 0.576l0.002 0c0.017 0 0.031 0.002 0.042 0.002 0 0 0.001 0 0.001 0 0.305 0 0.555-0.236 0.578-0.536l0-0.002 0.657-6.232 0.656 6.232c0.021 0.301 0.271 0.538 0.576 0.538 0.001 0 0.002 0 0.003 0h-0c0.012 0 0.027 0 0.040-0.002 0.302-0.021 0.539-0.271 0.539-0.576 0-0.015-0.001-0.030-0.002-0.044l0 0.002-0.282-8.056zM16.002 20.559c-0.499 0-0.904 0.405-0.904 0.904v0c0 0 0 0 0 0 0 0.498 0.404 0.902 0.902 0.902 0.001 0 0.001 0 0.002 0h-0c0.499 0 0.906-0.402 0.906-0.902s-0.406-0.904-0.906-0.904c-0 0-0 0-0 0h0zM16.002 25.886l0.407 2.831c0.055 0.139 0.188 0.235 0.344 0.235h0c0.165 0 0.299-0.109 0.348-0.257 0.004-0.006 0.012-0.175 0.004-0.202l-0.167-3.475 0.051-1.192c0.047-0.406 0.055-0.288 0.519-0.563 0.471-0.283 1.274-1.525 1.312-1.587 0.039-0.060 0.113-0.171 0.128-0.24 0.002-0.013 0.004-0.027 0.004-0.042 0-0.112-0.080-0.205-0.185-0.227l-0.001-0c-0.096-0.017-0.175 0.033-0.235 0.1-0.062 0.064-0.985 1.294-1.679 1.412-0.153-0.023-0.322-0.104-0.762-0.104h-0.175c-0.44 0-0.606 0.081-0.762 0.104-0.694-0.119-1.617-1.348-1.679-1.412-0.059-0.067-0.138-0.117-0.232-0.1-0.107 0.021-0.186 0.114-0.186 0.225 0 0.015 0.002 0.030 0.004 0.045l-0-0.001c0.012 0.069 0.088 0.179 0.126 0.24 0.039 0.062 0.843 1.304 1.311 1.587 0.464 0.275 0.472 0.157 0.519 0.563l0.049 1.192-0.165 3.475c-0.008 0.029 0 0.196 0.004 0.202 0.049 0.148 0.181 0.257 0.348 0.257 0.155-0.001 0.288-0.097 0.343-0.233l0.001-0.003c0.001-0.002 0.406-2.831 0.406-2.831zM31.75 14.785c0.158-0.225 0.253-0.504 0.253-0.805 0-0.478-0.238-0.901-0.603-1.156l-0.005-0.003-13.042-9.074c-1.339-0.933-3.363-0.933-4.7 0l-13.045 9.074c-0.369 0.258-0.607 0.681-0.607 1.159 0 0.301 0.095 0.581 0.255 0.81l-0.003-0.005c0.258 0.369 0.681 0.607 1.16 0.607 0.301 0 0.58-0.094 0.81-0.255l-0.005 0.003 13.043-9.074c0.368-0.254 1.112-0.254 1.479 0l13.042 9.074c0.224 0.158 0.503 0.253 0.804 0.254h0c0.48-0.001 0.903-0.239 1.159-0.604l0.003-0.005z"></path>
</svg>
