<!-- Generated by IcoMoon.io -->
<svg version="1.1" xmlns="http://www.w3.org/2000/svg" width="32" height="32" viewBox="0 0 32 32">
<title>legal-balance</title>
<path d="M31.999 13.126c0.001-0.011 0.001-0.024 0.001-0.037 0-0.114-0.025-0.223-0.071-0.32l0.002 0.005-4.87-10.539c-0.002-0.004-0.004-0.007-0.006-0.011-0.005-0.011-0.012-0.021-0.018-0.032-0.024-0.045-0.050-0.083-0.080-0.119l0.001 0.001c-0.024-0.029-0.049-0.055-0.075-0.080l-0.001-0c-0.005-0.005-0.009-0.010-0.014-0.014-0.031-0.026-0.065-0.051-0.101-0.073l-0.003-0.002c-0.011-0.006-0.022-0.012-0.033-0.018-0.024-0.013-0.053-0.027-0.083-0.039l-0.005-0.002c-0.012-0.005-0.024-0.009-0.036-0.013-0.036-0.012-0.078-0.023-0.122-0.030l-0.004-0.001c-0.005-0.001-0.009-0-0.014-0.001-0.028-0.004-0.061-0.006-0.094-0.007h-0c-0.009 0-0.017 0.002-0.026 0.002-0.013 0-0.026 0.002-0.039 0.003-0.037 0.003-0.074 0.009-0.11 0.018-0.007 0.002-0.014 0.002-0.020 0.003l-8.664 2.307v-0.794c0-0.835-0.679-1.514-1.514-1.514s-1.514 0.679-1.514 1.514v1.6l-9.054 2.411c-0.003 0.001-0.005 0.002-0.008 0.003-0.043 0.012-0.085 0.028-0.125 0.047-0.011 0.005-0.021 0.012-0.032 0.017-0.029 0.016-0.057 0.033-0.084 0.053-0.011 0.008-0.022 0.016-0.033 0.024-0.033 0.027-0.065 0.056-0.094 0.089-0.002 0.002-0.003 0.005-0.005 0.007-0.025 0.029-0.048 0.062-0.069 0.096l-0.002 0.003c-0.007 0.011-0.013 0.023-0.019 0.035-0.007 0.013-0.016 0.026-0.022 0.040l-4.87 10.539c-0.043 0.092-0.069 0.201-0.069 0.315 0 0.008 0 0.017 0 0.025l-0-0.001c-0.001 0.021-0.002 0.046-0.002 0.071v0c0 2.977 2.525 5.399 5.628 5.399s5.628-2.422 5.628-5.399c0-0.019-0.001-0.038-0.001-0.057 0.001-0.011 0.001-0.024 0.001-0.037 0-0.114-0.025-0.223-0.071-0.32l0.002 0.005-4.492-9.721 7.793-2.075v16.381c0 2.488-2.024 4.511-4.511 4.511-1.127 0-2.044 0.917-2.044 2.054 0 0.418 0.339 0.758 0.758 0.758v0h14.624c0.419 0 0.758-0.349 0.758-0.768 0-1.127-0.917-2.044-2.044-2.044-2.488 0-4.511-2.024-4.511-4.511v-17.187l7.494-1.996-4.193 9.073c-0.043 0.092-0.069 0.201-0.069 0.315 0 0.008 0 0.017 0 0.025l-0-0.001c-0.001 0.024-0.002 0.048-0.002 0.072 0 2.977 2.525 5.399 5.628 5.399s5.628-2.422 5.628-5.399c-0-0.024-0.001-0.044-0.002-0.064l0 0.006zM1.942 17.858l3.685-7.975 3.686 7.975h-7.371zM26.373 4.358l3.685 7.975h-7.371l3.686-7.975z"></path>
</svg>
