<!-- Generated by IcoMoon.io -->
<svg version="1.1" xmlns="http://www.w3.org/2000/svg" width="32" height="32" viewBox="0 0 32 32">
<title>legal-file-document</title>
<path d="M17.453 8.634c0.131 0.131 0.212 0.311 0.212 0.511s-0.081 0.38-0.212 0.511l-0 0-4.473 4.468c-0.131 0.132-0.313 0.213-0.513 0.213-0.196 0-0.374-0.078-0.505-0.205l0 0c-0.132-0.133-0.213-0.315-0.213-0.517 0-0.2 0.080-0.381 0.209-0.513l-0 0 4.475-4.468c0.13-0.131 0.311-0.213 0.51-0.213s0.38 0.081 0.51 0.212l0 0zM19.578 21.743c0.131 0.132 0.312 0.213 0.513 0.213 0.198 0 0.378-0.080 0.508-0.209l4.473-4.475c0.132-0.131 0.213-0.311 0.213-0.511s-0.081-0.381-0.213-0.511l-0-0c-0.131-0.13-0.312-0.21-0.512-0.21s-0.38 0.080-0.512 0.21l-4.471 4.471c-0.131 0.131-0.213 0.312-0.213 0.512s0.081 0.381 0.213 0.512l0 0zM30.3 8.786v21.36h-23.219v-0.344l-2.058 2.201-3.32-3.326 5.378-5.029v-23.647h14.76l8.459 8.786zM22.235 8.071h3.986l-3.986-4.138v4.138zM27.858 9.904h-7.454v-7.458h-10.88v18.914l5.46-5.106-1.639-1.636 4.596-4.601 5.746 5.75-4.592 4.595-1.646-1.648-7.925 8.474v0.515h18.334v-17.798z"></path>
</svg>
