<!-- Generated by IcoMoon.io -->
<svg version="1.1" xmlns="http://www.w3.org/2000/svg" width="32" height="32" viewBox="0 0 32 32">
<title>legal-agreement</title>
<path d="M9.316 24.383c-0 0-0.001 0-0.001 0-0.181 0-0.339-0.096-0.427-0.24l-0.001-0.002-2.122-3.533c-0.142-0.237-0.066-0.544 0.171-0.686 0.074-0.045 0.162-0.072 0.258-0.072 0.181 0 0.34 0.096 0.427 0.241l0.001 0.002 2.122 3.533c0.142 0.237 0.065 0.544-0.172 0.686-0.073 0.045-0.162 0.071-0.257 0.071v0zM16.033 16.958c-0 0-0.001 0-0.002 0-0.088 0-0.171-0.023-0.243-0.064l0.002 0.001-3.182-1.768c-0.242-0.135-0.329-0.439-0.195-0.68s0.439-0.329 0.68-0.195l3.182 1.768c0.242 0.134 0.329 0.439 0.195 0.68-0.087 0.155-0.25 0.257-0.437 0.257-0 0-0 0-0.001 0h0z"></path>
<path d="M6.486 21.556c-0 0-0 0-0 0-0.138 0-0.263-0.056-0.353-0.147v0c-0.091-0.090-0.147-0.215-0.147-0.354s0.056-0.263 0.147-0.354v0l7.073-7.075c0.090-0.091 0.215-0.147 0.354-0.147s0.263 0.056 0.354 0.147v0c0.091 0.091 0.147 0.216 0.147 0.354s-0.056 0.263-0.146 0.354l-7.073 7.075c-0.090 0.091-0.215 0.147-0.352 0.147-0 0-0.001 0-0.001 0h0z"></path>
<path d="M13.559 14.482c-0 0-0 0-0.001 0-0.138 0-0.263-0.056-0.353-0.146v0l-1.064-1.064c-0.091-0.090-0.147-0.215-0.147-0.354s0.056-0.263 0.147-0.354v0c0.090-0.091 0.216-0.147 0.354-0.147s0.263 0.056 0.354 0.147v0l1.064 1.064c0.091 0.091 0.147 0.216 0.147 0.354s-0.056 0.263-0.147 0.354v0c-0.091 0.091-0.216 0.146-0.354 0.147v0zM6.486 21.556c-0 0-0 0-0 0-0.138 0-0.263-0.056-0.353-0.147v0l-1.064-1.065c-0.196-0.195-0.196-0.512 0-0.707 0.090-0.091 0.215-0.147 0.354-0.147s0.263 0.056 0.354 0.147v0l1.064 1.065c0.196 0.196 0.196 0.512 0 0.707-0.090 0.091-0.215 0.147-0.352 0.147-0 0-0.001 0-0.001 0h0zM23.103 24.032c-0 0-0 0-0.001 0-0.089 0-0.172-0.023-0.245-0.064l0.002 0.001c-0.154-0.087-0.257-0.25-0.257-0.437 0-0.089 0.023-0.173 0.064-0.245l-0.001 0.003 1.767-3.179c0.087-0.154 0.25-0.257 0.437-0.257 0.089 0 0.173 0.023 0.245 0.064l-0.003-0.001c0.154 0.087 0.257 0.25 0.257 0.437 0 0.089-0.023 0.173-0.064 0.246l0.001-0.003-1.767 3.179c-0.087 0.154-0.251 0.257-0.438 0.257v0zM16.386 16.608c-0 0-0 0-0.001 0-0.195 0-0.364-0.111-0.446-0.274l-0.001-0.003c-0.033-0.065-0.053-0.142-0.053-0.224 0-0.195 0.111-0.363 0.274-0.446l0.003-0.001 2.827-1.415c0.247-0.123 0.547-0.023 0.671 0.224 0.033 0.065 0.053 0.142 0.053 0.224 0 0.195-0.111 0.363-0.273 0.446l-0.003 0.001-2.828 1.414c-0.065 0.033-0.142 0.053-0.223 0.053v0z"></path>
<path d="M25.578 21.559c-0 0-0 0-0 0-0.138 0-0.263-0.056-0.353-0.147v0l-7.073-7.073c-0.091-0.090-0.147-0.215-0.147-0.354s0.056-0.263 0.147-0.354v0c0.090-0.091 0.215-0.147 0.354-0.147s0.263 0.056 0.353 0.147v0l7.073 7.073c0.091 0.090 0.147 0.215 0.147 0.354s-0.056 0.263-0.147 0.354v0c-0.090 0.091-0.215 0.147-0.352 0.147-0 0-0.001 0-0.001 0h0z"></path>
<path d="M18.506 14.486c-0 0-0 0-0.001 0-0.138 0-0.263-0.056-0.353-0.147l-0-0c-0.091-0.090-0.147-0.215-0.147-0.354s0.056-0.263 0.147-0.354v0l1.063-1.064c0.090-0.091 0.215-0.147 0.354-0.147s0.263 0.056 0.353 0.147v0c0.091 0.090 0.147 0.216 0.147 0.354s-0.056 0.263-0.147 0.354v0l-1.063 1.064c-0.090 0.091-0.215 0.147-0.353 0.147-0 0-0.001 0-0.001 0h0zM25.578 21.559c-0 0-0 0-0 0-0.138 0-0.263-0.056-0.353-0.147v0c-0.091-0.090-0.147-0.215-0.147-0.354s0.056-0.263 0.146-0.354v0l1.064-1.065c0.090-0.091 0.215-0.147 0.354-0.147s0.263 0.056 0.354 0.147v0c0.091 0.090 0.147 0.215 0.147 0.354s-0.056 0.263-0.147 0.354v0l-1.064 1.065c-0.090 0.091-0.215 0.147-0.352 0.147-0 0-0.001 0-0.001 0h0zM13.205 19.786c-0 0-0 0-0.001 0-0.138 0-0.263-0.056-0.353-0.146v0c-0.196-0.196-0.196-0.512 0-0.707l3.183-3.18c0.090-0.091 0.215-0.147 0.354-0.147s0.263 0.056 0.354 0.147v0c0.091 0.090 0.147 0.215 0.147 0.354s-0.056 0.263-0.147 0.354v0l-3.183 3.18c-0.090 0.091-0.215 0.147-0.353 0.147-0 0-0 0-0.001 0h0zM14.798 21.733c-0 0-0 0-0.001 0-0.138 0-0.263-0.056-0.353-0.147v0c-0.091-0.090-0.147-0.215-0.147-0.354s0.056-0.263 0.147-0.354v0l2.298-2.299c0.090-0.091 0.215-0.147 0.354-0.147s0.263 0.056 0.354 0.147v0c0.091 0.090 0.147 0.215 0.147 0.354s-0.056 0.263-0.147 0.354v0l-2.298 2.299c-0.090 0.090-0.215 0.146-0.353 0.146-0 0-0 0-0 0v0z"></path>
<path d="M18.511 19.434c-0 0-0 0-0 0-0.138 0-0.263-0.056-0.354-0.146v0c-0.090-0.091-0.214-0.147-0.352-0.147-0 0-0.001 0-0.001 0h0c-0.001 0-0.001 0-0.002 0-0.138 0-0.262 0.056-0.352 0.147l-0 0c-0.090 0.091-0.215 0.147-0.354 0.147s-0.263-0.056-0.354-0.147v0c-0.091-0.090-0.147-0.215-0.147-0.354s0.056-0.263 0.147-0.354v0c0.271-0.272 0.645-0.44 1.059-0.44 0.001 0 0.001 0 0.002 0h0c0.401 0 0.778 0.157 1.061 0.44 0.090 0.091 0.146 0.216 0.146 0.354s-0.056 0.264-0.147 0.354v0c-0.090 0.090-0.215 0.146-0.353 0.146-0 0-0.001 0-0.001 0h0z"></path>
<path d="M23.107 24.030c-0 0-0 0-0 0-0.138 0-0.263-0.056-0.353-0.147v0l-4.595-4.595c-0.091-0.090-0.147-0.215-0.147-0.354s0.056-0.263 0.147-0.354v0c0.090-0.091 0.215-0.147 0.354-0.147s0.263 0.056 0.354 0.147v0l4.595 4.595c0.091 0.090 0.147 0.215 0.147 0.354s-0.056 0.263-0.147 0.354v0c-0.091 0.090-0.216 0.146-0.354 0.146h-0zM13.914 22.098c-0.448 0-0.896-0.171-1.238-0.511-0.682-0.682-0.682-1.793 0-2.475 0.090-0.091 0.216-0.147 0.354-0.147s0.263 0.056 0.354 0.147v0c0.091 0.090 0.147 0.215 0.147 0.354s-0.056 0.263-0.147 0.354v0c-0.293 0.293-0.293 0.768 0 1.061s0.769 0.291 1.061-0c0.195-0.195 0.512-0.196 0.707 0.001 0.090 0.090 0.146 0.215 0.146 0.353s-0.056 0.264-0.147 0.354l-0 0c-0.34 0.34-0.789 0.511-1.237 0.511zM15.326 32c-0.001 0-0.001 0 0 0-0.468 0-0.907-0.181-1.237-0.512-0.682-0.683-0.682-1.794 0.001-2.475l0.354-0.355c0.662-0.661 1.814-0.661 2.475 0.001 0.682 0.682 0.682 1.792 0 2.474l-0.354 0.354c-0.331 0.331-0.77 0.513-1.238 0.513zM15.68 29.145c-0.001 0-0.001 0-0.002 0-0.206 0-0.393 0.084-0.527 0.219l-0 0-0.353 0.355c-0.293 0.292-0.293 0.768-0.001 1.061 0.135 0.135 0.322 0.219 0.528 0.219 0 0 0.001 0 0.001 0h0c0.2 0 0.389-0.078 0.531-0.22l0.354-0.354c0.292-0.292 0.292-0.767 0-1.059-0.142-0.142-0.331-0.221-0.532-0.221z"></path>
<path d="M13.558 30.231c-0.468 0-0.907-0.182-1.237-0.512-0.682-0.682-0.682-1.793 0-2.476l0.354-0.354c0.66-0.66 1.814-0.661 2.475 0 0.331 0.33 0.513 0.77 0.513 1.238s-0.182 0.907-0.513 1.238l-0.354 0.354c-0.331 0.331-0.771 0.513-1.238 0.513zM13.912 27.377c-0.2 0-0.388 0.078-0.53 0.219l-0.354 0.354c-0.293 0.293-0.293 0.769 0 1.061 0.135 0.135 0.321 0.219 0.528 0.219 0.001 0 0.001 0 0.002 0h-0c0.201 0 0.389-0.078 0.532-0.22l0.354-0.354c0.136-0.135 0.22-0.322 0.22-0.528 0-0.001 0-0.002 0-0.002v0c0-0.201-0.078-0.389-0.22-0.531s-0.331-0.219-0.531-0.219z"></path>
<path d="M11.791 28.463c-0.467 0-0.907-0.182-1.237-0.513-0.33-0.329-0.513-0.768-0.513-1.236s0.181-0.908 0.513-1.239l0.354-0.354c0.662-0.662 1.816-0.661 2.475 0 0.33 0.331 0.513 0.77 0.513 1.238s-0.182 0.907-0.513 1.238l-0.354 0.354c-0.331 0.331-0.771 0.513-1.237 0.513zM12.144 25.609c-0.2 0-0.389 0.078-0.531 0.22l-0.354 0.354c-0.136 0.135-0.22 0.323-0.22 0.529 0 0.001 0 0.001 0 0.002v-0c0 0.001 0 0.001 0 0.002 0 0.206 0.084 0.393 0.22 0.527l0 0c0.284 0.284 0.778 0.283 1.061 0.001l0.354-0.354c0.136-0.135 0.22-0.322 0.22-0.529 0-0.001 0-0.001 0-0.002v0c0-0.201-0.078-0.389-0.22-0.531-0.135-0.136-0.321-0.22-0.527-0.22-0.001 0-0.002 0-0.003 0h0z"></path>
<path d="M10.022 26.695c-0.468 0-0.907-0.182-1.238-0.513s-0.513-0.77-0.513-1.238 0.183-0.907 0.513-1.238l0.353-0.354c0.661-0.661 1.814-0.661 2.475 0 0.331 0.331 0.513 0.77 0.513 1.238s-0.182 0.907-0.513 1.238l-0.354 0.354c-0.33 0.33-0.769 0.512-1.237 0.512zM10.376 23.84c-0.2 0-0.389 0.078-0.531 0.22l-0.354 0.354c-0.142 0.142-0.22 0.33-0.22 0.531s0.078 0.388 0.22 0.531c0.283 0.283 0.777 0.283 1.060 0l0.354-0.354c0.142-0.141 0.22-0.33 0.22-0.53s-0.077-0.389-0.22-0.531c-0.135-0.136-0.322-0.219-0.528-0.219-0.001 0-0.002 0-0.002 0h0zM17.447 32c-0.448 0-0.896-0.171-1.236-0.511-0.091-0.090-0.147-0.215-0.147-0.354s0.056-0.263 0.147-0.354v0c0.090-0.091 0.215-0.147 0.354-0.147s0.263 0.056 0.354 0.147v0c0.291 0.292 0.767 0.291 1.061-0.001 0.292-0.292 0.293-0.768 0-1.061-0.090-0.090-0.146-0.215-0.146-0.353s0.056-0.264 0.147-0.354v0c0.196-0.194 0.512-0.195 0.707 0.001 0.134 0.135 0.321 0.219 0.526 0.219 0.001 0 0.002 0 0.003 0h0c0.2 0 0.389-0.078 0.531-0.22 0.292-0.293 0.293-0.769 0-1.061-0.090-0.090-0.146-0.215-0.146-0.353 0-0 0-0 0-0.001v0c0-0 0-0.001 0-0.001 0-0.138 0.056-0.262 0.146-0.353l0-0c0.090-0.091 0.215-0.147 0.354-0.147s0.263 0.056 0.354 0.147v0c0.292 0.292 0.768 0.292 1.061-0 0.292-0.292 0.293-0.768 0-1.060-0.090-0.090-0.146-0.215-0.146-0.353 0-0 0-0.001 0-0.001v0c0-0.128 0.049-0.256 0.146-0.353 0.090-0.091 0.215-0.147 0.354-0.147s0.263 0.056 0.354 0.147v0c0.283 0.283 0.776 0.283 1.060-0.001 0.293-0.293 0.293-0.768 0.001-1.060-0.091-0.090-0.147-0.215-0.147-0.354s0.056-0.263 0.147-0.354v0c0.090-0.091 0.215-0.147 0.354-0.147s0.263 0.056 0.354 0.146v0c0.682 0.682 0.681 1.792-0.001 2.474-0.331 0.331-0.77 0.513-1.238 0.513h-0.018c0 0.006 0 0.014 0 0.021 0 0.482-0.196 0.919-0.512 1.235v0c-0.342 0.341-0.79 0.511-1.238 0.511h-0.018c0.005 0.454-0.166 0.91-0.511 1.256-0.331 0.331-0.771 0.513-1.238 0.513 0-0.001-0.012 0-0.019 0 0.004 0.454-0.167 0.909-0.512 1.256-0.342 0.341-0.791 0.512-1.239 0.512z"></path>
<path d="M16.565 31.636c-0 0-0 0-0 0-0.138 0-0.263-0.056-0.353-0.147v0l-0.178-0.178c-0.091-0.090-0.147-0.215-0.147-0.354s0.056-0.263 0.147-0.354v0c0.090-0.091 0.215-0.147 0.354-0.147s0.263 0.056 0.354 0.147v0l0.178 0.178c0.091 0.090 0.147 0.215 0.147 0.354s-0.056 0.263-0.147 0.354v0c-0.091 0.090-0.216 0.146-0.354 0.147h-0zM18.334 29.867c-0 0-0 0-0.001 0-0.138 0-0.263-0.056-0.353-0.147v0l-0.532-0.532c-0.091-0.090-0.147-0.215-0.147-0.354s0.056-0.263 0.147-0.354v0c0.090-0.091 0.215-0.147 0.354-0.147s0.263 0.056 0.354 0.146l0.532 0.532c0.091 0.090 0.147 0.215 0.147 0.354s-0.056 0.263-0.147 0.354v0c-0.090 0.091-0.215 0.147-0.353 0.147-0 0-0 0-0 0v0zM20.102 28.098c-0 0-0 0-0.001 0-0.138 0-0.263-0.056-0.353-0.147v0l-0.531-0.532c-0.196-0.196-0.196-0.512 0-0.707 0.090-0.091 0.215-0.147 0.354-0.147s0.263 0.056 0.354 0.147v0l0.531 0.532c0.195 0.195 0.195 0.512 0 0.707-0.090 0.091-0.215 0.147-0.353 0.147-0 0-0.001 0-0.001 0h0zM21.87 26.329c-0 0-0 0-0 0-0.138 0-0.263-0.056-0.353-0.147v0l-0.531-0.53c-0.195-0.195-0.195-0.512 0-0.707 0.090-0.091 0.215-0.147 0.354-0.147s0.263 0.056 0.354 0.147v0l0.531 0.531c0.196 0.195 0.196 0.512 0 0.707-0.090 0.090-0.215 0.146-0.352 0.146-0 0-0.001 0-0.001 0h0zM23.639 24.561c-0 0-0 0-0 0-0.138 0-0.263-0.056-0.353-0.146v0l-0.532-0.532c-0.091-0.090-0.147-0.215-0.147-0.354s0.056-0.263 0.147-0.354v0c0.090-0.091 0.215-0.147 0.354-0.147s0.263 0.056 0.354 0.147v0l0.532 0.532c0.091 0.090 0.147 0.215 0.147 0.354s-0.056 0.263-0.147 0.354v0c-0.090 0.090-0.215 0.146-0.352 0.146-0 0-0.001 0-0.001 0h0zM5.072 20.847c-0 0-0 0-0 0-0.138 0-0.263-0.056-0.354-0.147v0l-1.768-1.767c-0.091-0.090-0.147-0.215-0.147-0.353 0-0 0-0 0-0v0c0-0.133 0.053-0.26 0.147-0.354l7.781-7.781c0.094-0.094 0.22-0.146 0.354-0.146s0.26 0.053 0.354 0.146l1.768 1.768c0.091 0.090 0.147 0.215 0.147 0.354s-0.056 0.263-0.147 0.354v0l-7.781 7.78c-0.090 0.091-0.215 0.147-0.352 0.147-0 0-0.001 0-0.001 0h0zM4.011 18.58l1.061 1.060 7.073-7.073-1.060-1.061zM26.996 20.847c-0 0-0 0-0 0-0.138 0-0.263-0.056-0.354-0.147v0l-7.779-7.779c-0.091-0.090-0.147-0.216-0.147-0.354s0.056-0.263 0.147-0.354v0l1.767-1.768c0.188-0.188 0.52-0.188 0.707 0l7.781 7.779c0.090 0.090 0.146 0.215 0.146 0.353 0 0 0 0 0 0v0c0 0.133-0.053 0.26-0.147 0.354l-1.769 1.767c-0.090 0.091-0.215 0.147-0.352 0.147-0 0-0.001 0-0.001 0h0zM19.924 12.568l7.072 7.072 1.061-1.060-7.073-7.073zM16.034 11.003c-3.033 0-5.502-2.468-5.502-5.502s2.468-5.502 5.502-5.502 5.502 2.468 5.502 5.502-2.468 5.502-5.502 5.502zM16.034 1c-2.482 0-4.501 2.019-4.501 4.501s2.019 4.501 4.501 4.501 4.501-2.019 4.501-4.501-2.019-4.501-4.501-4.501z"></path>
<path d="M18.043 8.002h-4.001c-0.277 0-0.5-0.224-0.5-0.5s0.223-0.5 0.5-0.5h4.001c0.277 0 0.5 0.223 0.5 0.5s-0.224 0.5-0.5 0.5z"></path>
<path d="M16.042 8.002c-0.277 0-0.5-0.224-0.5-0.5v-4.501c0-0.277 0.223-0.5 0.5-0.5s0.5 0.223 0.5 0.5v4.501c0 0.276-0.224 0.5-0.5 0.5z"></path>
<path d="M18.043 4.001h-4.001c-0.277 0-0.5-0.223-0.5-0.5s0.223-0.5 0.5-0.5h4.001c0.277 0 0.5 0.223 0.5 0.5s-0.224 0.5-0.5 0.5zM18.543 5.502h-1c-0.277 0-0.5-0.223-0.5-0.5s0.223-0.5 0.5-0.5h1c0.277 0 0.5 0.223 0.5 0.5s-0.224 0.5-0.5 0.5zM14.542 5.502h-1c-0.277 0-0.5-0.223-0.5-0.5s0.223-0.5 0.5-0.5h1c0.277 0 0.5 0.223 0.5 0.5s-0.224 0.5-0.5 0.5z"></path>
</svg>
