<!-- Generated by IcoMoon.io -->
<svg version="1.1" xmlns="http://www.w3.org/2000/svg" width="59" height="32" viewBox="0 0 59 32">
<title>logo-text</title>
<path d="M13.79 14.16v0.768c0 0.148 0.028 0.25 0.074 0.305s0.157 0.083 0.314 0.083h0.074v0.268h-1.748v-0.268h0.056c0.157 0 0.268-0.028 0.314-0.092 0.046-0.056 0.074-0.157 0.074-0.305v-1.914c0-0.148-0.028-0.25-0.074-0.305s-0.157-0.083-0.314-0.083h-0.074v-0.268l1.313-0.028c0.324 0 0.583 0.009 0.758 0.028s0.342 0.065 0.49 0.148c0.148 0.083 0.259 0.185 0.333 0.314s0.111 0.277 0.111 0.425c0 0.213-0.065 0.388-0.194 0.546-0.129 0.148-0.296 0.25-0.49 0.296s-0.453 0.074-0.777 0.074h-0.24zM13.79 13.873h0.157c0.25 0 0.425-0.056 0.509-0.166s0.129-0.259 0.129-0.444c0-0.166-0.028-0.296-0.092-0.398s-0.139-0.166-0.231-0.203c-0.092-0.028-0.25-0.046-0.462-0.046v1.258zM17.017 15.38c-0.12 0.083-0.24 0.148-0.361 0.185-0.129 0.046-0.259 0.065-0.398 0.065-0.185 0-0.324-0.037-0.407-0.12-0.092-0.083-0.139-0.185-0.139-0.305 0-0.176 0.092-0.324 0.277-0.462 0.185-0.129 0.509-0.277 0.99-0.444v-0.176c0-0.129-0.028-0.203-0.093-0.24s-0.129-0.056-0.213-0.056c-0.203 0-0.314 0.074-0.333 0.222-0.018 0.102-0.046 0.176-0.093 0.222s-0.12 0.065-0.222 0.065c-0.092 0-0.166-0.028-0.213-0.074-0.056-0.046-0.083-0.102-0.083-0.166 0-0.148 0.102-0.277 0.296-0.379s0.453-0.157 0.786-0.157c0.185 0 0.333 0.009 0.462 0.037s0.222 0.065 0.296 0.12c0.074 0.065 0.129 0.12 0.148 0.194 0.028 0.065 0.037 0.157 0.037 0.268v0.906c0 0.139 0.037 0.203 0.12 0.203 0.074 0 0.12-0.046 0.139-0.129h0.194c-0.009 0.166-0.065 0.287-0.176 0.361s-0.25 0.12-0.416 0.12c-0.305-0.009-0.499-0.092-0.601-0.259zM16.971 15.121v-0.555c-0.222 0.092-0.361 0.176-0.435 0.25-0.065 0.074-0.102 0.148-0.102 0.231 0 0.065 0.018 0.111 0.055 0.166 0.037 0.046 0.093 0.074 0.157 0.074 0.055 0 0.111-0.009 0.166-0.037 0.065-0.037 0.111-0.074 0.157-0.129zM19.459 14.049c0.093-0.166 0.194-0.287 0.314-0.37s0.25-0.12 0.388-0.12 0.24 0.046 0.305 0.129c0.074 0.083 0.102 0.176 0.102 0.277 0 0.092-0.028 0.176-0.083 0.24s-0.129 0.102-0.231 0.102c-0.055 0-0.102-0.009-0.129-0.028-0.037-0.018-0.083-0.065-0.139-0.129s-0.12-0.092-0.185-0.092c-0.102 0-0.185 0.065-0.231 0.185-0.055 0.129-0.074 0.314-0.074 0.564v0.213c0 0.12 0.018 0.203 0.055 0.25s0.12 0.074 0.25 0.074h0.046v0.25h-1.443v-0.25c0.139 0 0.222-0.018 0.259-0.065s0.055-0.129 0.055-0.25v-0.694c0-0.12-0.018-0.203-0.055-0.25s-0.129-0.065-0.268-0.065v-0.25l0.99-0.213c0.046 0.129 0.065 0.287 0.074 0.49zM22.002 14.271v0.749c0 0.12 0.018 0.203 0.055 0.25s0.12 0.065 0.24 0.065v0.25h-1.434v-0.25h0.065c0.139 0 0.222-0.028 0.259-0.074s0.055-0.129 0.055-0.24v-0.666c0-0.12-0.018-0.203-0.055-0.25s-0.129-0.065-0.268-0.065v-0.259l1.054-0.176c0.028 0.074 0.037 0.176 0.037 0.305 0.111-0.12 0.231-0.213 0.37-0.277s0.287-0.092 0.453-0.092c0.185 0 0.333 0.037 0.444 0.102 0.12 0.065 0.203 0.176 0.25 0.314 0.102-0.139 0.222-0.24 0.351-0.314 0.139-0.065 0.287-0.102 0.462-0.102 0.139 0 0.268 0.028 0.388 0.074 0.12 0.056 0.203 0.12 0.268 0.194s0.102 0.157 0.12 0.231 0.028 0.185 0.028 0.333v0.629c0 0.12 0.018 0.203 0.065 0.25 0.037 0.046 0.139 0.065 0.287 0.065v0.25h-1.406v-0.25c0.12 0 0.203-0.018 0.24-0.065s0.055-0.129 0.055-0.24v-0.675c0-0.129-0.028-0.231-0.074-0.296s-0.12-0.102-0.222-0.102c-0.093 0-0.185 0.028-0.268 0.083s-0.157 0.139-0.231 0.25v0.749c0 0.12 0.018 0.203 0.055 0.24 0.037 0.046 0.12 0.065 0.24 0.065v0.25h-1.36v-0.25c0.12 0 0.194-0.028 0.231-0.065 0.037-0.046 0.055-0.129 0.055-0.24v-0.675c0-0.129-0.028-0.231-0.074-0.296s-0.12-0.102-0.222-0.102c-0.083 0-0.166 0.028-0.259 0.083s-0.176 0.129-0.259 0.24zM26.987 15.38c-0.12 0.083-0.24 0.148-0.361 0.185-0.129 0.046-0.259 0.065-0.398 0.065-0.185 0-0.324-0.037-0.407-0.12-0.093-0.083-0.139-0.185-0.139-0.305 0-0.176 0.093-0.324 0.277-0.462 0.185-0.129 0.509-0.277 0.99-0.444v-0.176c0-0.129-0.028-0.203-0.093-0.24s-0.129-0.056-0.213-0.056c-0.203 0-0.314 0.074-0.333 0.222-0.018 0.102-0.046 0.176-0.093 0.222s-0.12 0.065-0.222 0.065c-0.093 0-0.166-0.028-0.213-0.074-0.055-0.046-0.083-0.102-0.083-0.166 0-0.148 0.102-0.277 0.296-0.379s0.453-0.157 0.786-0.157c0.185 0 0.333 0.009 0.462 0.037 0.12 0.018 0.222 0.065 0.296 0.12 0.074 0.065 0.129 0.12 0.148 0.194 0.028 0.065 0.037 0.157 0.037 0.268v0.906c0 0.139 0.037 0.203 0.12 0.203 0.074 0 0.12-0.046 0.139-0.129h0.194c-0.009 0.166-0.065 0.287-0.176 0.361s-0.25 0.12-0.416 0.12c-0.305-0.009-0.499-0.092-0.601-0.259zM26.941 15.121v-0.555c-0.222 0.092-0.361 0.176-0.435 0.25-0.065 0.074-0.102 0.148-0.102 0.231 0 0.065 0.018 0.111 0.055 0.166 0.037 0.046 0.093 0.074 0.157 0.074 0.055 0 0.111-0.009 0.166-0.037 0.055-0.037 0.111-0.074 0.157-0.129zM29.429 14.049c0.093-0.166 0.194-0.287 0.314-0.37s0.25-0.12 0.388-0.12 0.24 0.046 0.305 0.129c0.074 0.083 0.102 0.176 0.102 0.277 0 0.092-0.028 0.176-0.083 0.24s-0.129 0.102-0.231 0.102c-0.055 0-0.102-0.009-0.129-0.028-0.037-0.018-0.083-0.065-0.139-0.129s-0.12-0.092-0.185-0.092c-0.102 0-0.185 0.065-0.231 0.185-0.055 0.129-0.074 0.314-0.074 0.564v0.213c0 0.12 0.018 0.203 0.055 0.25s0.12 0.074 0.25 0.074h0.046v0.25h-1.443v-0.25c0.139 0 0.222-0.018 0.259-0.065s0.055-0.129 0.055-0.25v-0.694c0-0.12-0.018-0.203-0.055-0.25s-0.129-0.065-0.268-0.065v-0.25l0.99-0.213c0.037 0.129 0.065 0.287 0.074 0.49zM32.675 14.714l-0.065 0.157c-0.046 0.111-0.065 0.194-0.065 0.24 0 0.074 0.028 0.129 0.074 0.166 0.056 0.028 0.139 0.046 0.259 0.046v0.268h-1.064v-0.268c0.203 0 0.37-0.176 0.509-0.518l0.99-2.506h0.277l1.008 2.497c0.102 0.25 0.194 0.398 0.268 0.444 0.083 0.046 0.157 0.074 0.231 0.074v0.268h-1.6v-0.268c0.148 0 0.231-0.018 0.268-0.046s0.056-0.065 0.056-0.102c0-0.037-0.019-0.092-0.046-0.148l-0.028-0.074-0.093-0.231h-0.98zM32.777 14.437h0.786l-0.407-0.962-0.379 0.962z"></path>
<path d="M36.171 14.271v0.749c0 0.12 0.019 0.203 0.056 0.25s0.12 0.065 0.24 0.065v0.25h-1.434v-0.25h0.065c0.139 0 0.222-0.028 0.259-0.074s0.056-0.129 0.056-0.24v-0.666c0-0.12-0.019-0.203-0.056-0.25s-0.129-0.065-0.268-0.065v-0.259l1.054-0.176c0.028 0.074 0.037 0.176 0.037 0.305 0.111-0.12 0.231-0.213 0.37-0.277s0.287-0.092 0.453-0.092c0.185 0 0.333 0.037 0.444 0.102 0.12 0.065 0.203 0.176 0.25 0.314 0.102-0.139 0.222-0.24 0.351-0.314 0.139-0.065 0.287-0.102 0.462-0.102 0.139 0 0.268 0.028 0.388 0.074 0.12 0.056 0.203 0.12 0.268 0.194s0.102 0.157 0.12 0.231 0.028 0.185 0.028 0.333v0.629c0 0.12 0.019 0.203 0.065 0.25 0.037 0.046 0.139 0.065 0.287 0.065v0.25h-1.406v-0.25c0.12 0 0.203-0.018 0.24-0.065s0.056-0.129 0.056-0.24v-0.675c0-0.129-0.028-0.231-0.074-0.296s-0.12-0.102-0.222-0.102c-0.093 0-0.185 0.028-0.268 0.083s-0.157 0.139-0.231 0.25v0.749c0 0.12 0.019 0.203 0.056 0.24 0.037 0.046 0.12 0.065 0.24 0.065v0.25h-1.36v-0.25c0.12 0 0.194-0.028 0.231-0.065 0.037-0.046 0.056-0.129 0.056-0.24v-0.675c0-0.129-0.028-0.231-0.074-0.296s-0.12-0.102-0.222-0.102c-0.083 0-0.166 0.028-0.259 0.083s-0.176 0.129-0.259 0.24zM40.749 14.585c0 0.259 0.046 0.453 0.129 0.583s0.222 0.194 0.398 0.194c0.185 0 0.361-0.092 0.518-0.287l0.222 0.129c-0.093 0.129-0.222 0.24-0.388 0.324s-0.361 0.129-0.564 0.129c-0.314 0-0.583-0.092-0.805-0.287s-0.333-0.453-0.333-0.777 0.111-0.583 0.324-0.768c0.213-0.185 0.481-0.277 0.786-0.277s0.555 0.083 0.758 0.259c0.194 0.166 0.296 0.425 0.296 0.777h-1.341zM40.749 14.345h0.601c-0.009-0.351-0.111-0.527-0.305-0.527-0.102 0-0.176 0.046-0.222 0.129-0.046 0.092-0.074 0.222-0.074 0.398zM43.496 14.049c0.093-0.166 0.194-0.287 0.314-0.37s0.25-0.12 0.388-0.12 0.24 0.046 0.305 0.129c0.074 0.083 0.102 0.176 0.102 0.277 0 0.092-0.028 0.176-0.083 0.24s-0.129 0.102-0.231 0.102c-0.056 0-0.102-0.009-0.129-0.028-0.037-0.018-0.083-0.065-0.139-0.129s-0.12-0.092-0.185-0.092c-0.102 0-0.185 0.065-0.231 0.185-0.056 0.129-0.074 0.314-0.074 0.564v0.213c0 0.12 0.019 0.203 0.056 0.25s0.12 0.074 0.25 0.074h0.046v0.25h-1.443v-0.25c0.139 0 0.222-0.018 0.259-0.065s0.056-0.129 0.056-0.25v-0.694c0-0.12-0.019-0.203-0.056-0.25s-0.129-0.065-0.268-0.065v-0.25l0.99-0.213c0.037 0.129 0.065 0.287 0.074 0.49zM45.928 13.558v1.461c0 0.12 0.019 0.203 0.056 0.25s0.129 0.065 0.268 0.065v0.25h-1.461v-0.25h0.056c0.139 0 0.222-0.028 0.259-0.074s0.056-0.129 0.056-0.25v-0.712c0-0.12-0.019-0.203-0.056-0.25s-0.12-0.074-0.259-0.074h-0.056v-0.25l1.138-0.166zM45.124 12.726c0-0.12 0.046-0.222 0.129-0.305s0.185-0.129 0.305-0.129c0.12 0 0.222 0.046 0.305 0.129s0.12 0.185 0.12 0.305c0 0.12-0.046 0.222-0.129 0.305s-0.185 0.129-0.305 0.129c-0.12 0-0.222-0.046-0.305-0.129s-0.12-0.185-0.12-0.305zM48.444 14.983l0.24 0.111c-0.065 0.185-0.185 0.324-0.361 0.425s-0.379 0.148-0.61 0.148c-0.324 0-0.592-0.092-0.814-0.268s-0.333-0.425-0.333-0.74c0-0.333 0.12-0.592 0.361-0.795s0.555-0.305 0.934-0.305c0.24 0 0.425 0.046 0.564 0.129s0.213 0.203 0.213 0.342c0 0.083-0.028 0.148-0.083 0.213s-0.129 0.092-0.213 0.092c-0.176 0-0.287-0.111-0.333-0.342-0.019-0.065-0.037-0.111-0.065-0.139s-0.074-0.046-0.148-0.046c-0.139 0-0.25 0.056-0.314 0.166-0.074 0.111-0.102 0.277-0.102 0.499 0 0.305 0.046 0.527 0.129 0.657 0.083 0.139 0.222 0.203 0.398 0.203 0.25 0.009 0.425-0.111 0.536-0.351zM50.386 15.38c-0.12 0.083-0.24 0.148-0.361 0.185-0.129 0.046-0.259 0.065-0.398 0.065-0.185 0-0.324-0.037-0.407-0.12-0.093-0.083-0.139-0.185-0.139-0.305 0-0.176 0.093-0.324 0.277-0.462 0.185-0.129 0.509-0.277 0.99-0.444v-0.176c0-0.129-0.028-0.203-0.093-0.24s-0.129-0.056-0.213-0.056c-0.203 0-0.314 0.074-0.333 0.222-0.019 0.102-0.046 0.176-0.093 0.222s-0.12 0.065-0.222 0.065c-0.093 0-0.166-0.028-0.213-0.074-0.056-0.046-0.083-0.102-0.083-0.166 0-0.148 0.102-0.277 0.296-0.379s0.453-0.157 0.786-0.157c0.185 0 0.333 0.009 0.462 0.037 0.12 0.018 0.222 0.065 0.296 0.12 0.074 0.065 0.129 0.12 0.148 0.194 0.028 0.065 0.037 0.157 0.037 0.268v0.906c0 0.139 0.037 0.203 0.12 0.203 0.074 0 0.12-0.046 0.139-0.129h0.194c-0.009 0.166-0.065 0.287-0.176 0.361s-0.25 0.12-0.416 0.12c-0.305-0.009-0.499-0.092-0.601-0.259zM50.34 15.121v-0.555c-0.222 0.092-0.361 0.176-0.435 0.25-0.065 0.074-0.102 0.148-0.102 0.231 0 0.065 0.019 0.111 0.056 0.166 0.037 0.046 0.093 0.074 0.157 0.074 0.056 0 0.111-0.009 0.166-0.037 0.056-0.037 0.111-0.074 0.157-0.129zM52.846 14.243v0.777c0 0.111 0.019 0.194 0.046 0.24 0.037 0.046 0.093 0.074 0.176 0.074v0.25h-1.332v-0.25c0.139 0 0.222-0.018 0.268-0.065 0.037-0.046 0.056-0.129 0.056-0.25v-0.666c0-0.12-0.019-0.203-0.056-0.25s-0.129-0.065-0.268-0.065v-0.259l1.054-0.176c0.028 0.065 0.046 0.157 0.046 0.287 0.102-0.111 0.213-0.203 0.333-0.259 0.111-0.056 0.231-0.083 0.361-0.083 0.222 0 0.398 0.065 0.527 0.185s0.194 0.296 0.194 0.509v0.777c0 0.12 0.019 0.203 0.056 0.25s0.12 0.065 0.25 0.065v0.25h-1.323v-0.25c0.065 0 0.12-0.018 0.166-0.056s0.065-0.12 0.065-0.259v-0.712c0-0.129-0.019-0.222-0.056-0.268s-0.083-0.074-0.157-0.074c-0.065 0-0.139 0.018-0.203 0.065-0.056 0.056-0.129 0.12-0.203 0.213z"></path>
<path d="M14.021 20.254l-1.101-2.479c-0.092-0.203-0.148-0.324-0.185-0.388-0.037-0.055-0.074-0.102-0.129-0.129s-0.148-0.046-0.268-0.046v-0.268h1.72v0.268c-0.24 0-0.361 0.055-0.361 0.176 0 0.065 0.037 0.176 0.102 0.324l0.666 1.461 0.62-1.471c0.046-0.111 0.065-0.203 0.065-0.277 0-0.148-0.12-0.222-0.361-0.222v-0.268h1.138v0.268c-0.129 0-0.231 0.037-0.305 0.102-0.065 0.074-0.176 0.277-0.324 0.638l-0.98 2.312h-0.296zM17.008 18.164v1.461c0 0.12 0.018 0.203 0.055 0.25s0.129 0.065 0.268 0.065v0.25h-1.461v-0.25h0.056c0.139 0 0.222-0.028 0.259-0.074s0.055-0.129 0.055-0.25v-0.712c0-0.12-0.018-0.203-0.055-0.25s-0.12-0.074-0.259-0.074h-0.056v-0.25l1.138-0.166zM16.203 17.332c0-0.12 0.046-0.222 0.129-0.305s0.185-0.129 0.305-0.129c0.12 0 0.222 0.046 0.305 0.129s0.12 0.185 0.12 0.305-0.046 0.222-0.129 0.305c-0.083 0.083-0.185 0.129-0.305 0.129s-0.222-0.046-0.305-0.129c-0.074-0.093-0.12-0.185-0.12-0.305zM17.711 20.264l-0.018-0.647h0.231c0.12 0.268 0.351 0.407 0.684 0.407 0.139 0 0.25-0.028 0.342-0.074s0.139-0.102 0.139-0.166c0-0.055-0.028-0.093-0.074-0.12s-0.166-0.055-0.342-0.093c-0.277-0.055-0.472-0.111-0.601-0.157s-0.231-0.129-0.314-0.231c-0.083-0.102-0.12-0.222-0.12-0.361 0-0.194 0.083-0.361 0.24-0.481 0.166-0.12 0.379-0.185 0.647-0.185 0.213 0 0.425 0.037 0.638 0.12 0.037-0.037 0.065-0.074 0.093-0.12h0.194l0.018 0.592h-0.194c-0.12-0.24-0.37-0.361-0.731-0.361-0.12 0-0.213 0.018-0.296 0.055-0.074 0.037-0.111 0.093-0.111 0.148 0 0.065 0.028 0.111 0.093 0.139s0.203 0.065 0.444 0.111c0.24 0.046 0.425 0.102 0.555 0.148 0.12 0.055 0.222 0.129 0.287 0.222 0.074 0.102 0.102 0.213 0.102 0.342 0 0.213-0.093 0.379-0.277 0.509s-0.416 0.194-0.684 0.194c-0.203 0-0.425-0.046-0.657-0.129-0.046 0.028-0.074 0.074-0.093 0.129h-0.194zM21.41 19.986c-0.12 0.083-0.24 0.148-0.361 0.185-0.129 0.046-0.259 0.065-0.398 0.065-0.185 0-0.324-0.037-0.407-0.12-0.093-0.083-0.139-0.185-0.139-0.305 0-0.176 0.093-0.324 0.277-0.462 0.185-0.129 0.509-0.277 0.99-0.444v-0.176c0-0.129-0.028-0.203-0.093-0.24s-0.129-0.055-0.213-0.055c-0.203 0-0.314 0.074-0.333 0.222-0.018 0.102-0.046 0.176-0.093 0.222s-0.12 0.065-0.222 0.065c-0.093 0-0.166-0.028-0.213-0.074-0.055-0.046-0.083-0.102-0.083-0.166 0-0.148 0.102-0.277 0.296-0.379s0.453-0.157 0.786-0.157c0.185 0 0.333 0.009 0.462 0.037s0.222 0.065 0.296 0.12c0.074 0.065 0.129 0.12 0.148 0.194 0.028 0.065 0.037 0.157 0.037 0.268v0.906c0 0.139 0.037 0.203 0.12 0.203 0.074 0 0.12-0.046 0.139-0.129h0.194c-0.009 0.166-0.065 0.287-0.176 0.361s-0.25 0.12-0.416 0.12c-0.296-0.009-0.499-0.093-0.601-0.259zM21.373 19.727v-0.555c-0.222 0.093-0.361 0.176-0.435 0.25-0.065 0.074-0.102 0.148-0.102 0.231 0 0.065 0.018 0.111 0.055 0.166 0.037 0.046 0.093 0.074 0.157 0.074 0.055 0 0.111-0.009 0.166-0.037 0.055-0.037 0.102-0.083 0.157-0.129zM27.015 19.117l-0.018 1.073h-2.941v-0.268h0.046c0.166 0 0.268-0.028 0.314-0.093 0.046-0.055 0.074-0.157 0.074-0.305v-1.914c0-0.148-0.028-0.25-0.074-0.305s-0.157-0.083-0.314-0.083h-0.046v-0.268h1.729v0.268h-0.065c-0.166 0-0.268 0.028-0.314 0.093-0.046 0.055-0.074 0.157-0.074 0.305v1.84c0 0.139 0.009 0.231 0.028 0.277s0.055 0.083 0.129 0.111c0.065 0.037 0.185 0.046 0.351 0.046 0.287 0 0.49-0.074 0.638-0.213 0.139-0.139 0.231-0.333 0.287-0.573h0.25zM28.652 19.986c-0.12 0.083-0.24 0.148-0.361 0.185-0.129 0.046-0.259 0.065-0.398 0.065-0.185 0-0.324-0.037-0.407-0.12-0.093-0.083-0.139-0.185-0.139-0.305 0-0.176 0.093-0.324 0.277-0.462 0.185-0.129 0.509-0.277 0.99-0.444v-0.176c0-0.129-0.028-0.203-0.093-0.24s-0.129-0.055-0.213-0.055c-0.203 0-0.314 0.074-0.333 0.222-0.018 0.102-0.046 0.176-0.093 0.222s-0.12 0.065-0.222 0.065c-0.093 0-0.166-0.028-0.213-0.074-0.055-0.046-0.083-0.102-0.083-0.166 0-0.148 0.102-0.277 0.296-0.379s0.453-0.157 0.786-0.157c0.185 0 0.333 0.009 0.462 0.037 0.12 0.018 0.222 0.065 0.296 0.12 0.074 0.065 0.129 0.12 0.148 0.194 0.028 0.065 0.037 0.157 0.037 0.268v0.906c0 0.139 0.037 0.203 0.12 0.203 0.074 0 0.12-0.046 0.139-0.129h0.194c-0.009 0.166-0.065 0.287-0.176 0.361s-0.25 0.12-0.416 0.12c-0.305-0.009-0.499-0.093-0.601-0.259zM28.606 19.727v-0.555c-0.222 0.093-0.361 0.176-0.435 0.25-0.065 0.074-0.102 0.148-0.102 0.231 0 0.065 0.018 0.111 0.055 0.166 0.037 0.046 0.093 0.074 0.157 0.074 0.055 0 0.111-0.009 0.166-0.037 0.055-0.037 0.111-0.083 0.157-0.129zM30.825 20.236l-0.61-1.415c-0.065-0.148-0.12-0.24-0.157-0.277s-0.102-0.046-0.185-0.046v-0.25h1.304v0.25c-0.166 0-0.25 0.028-0.25 0.093 0 0.028 0.018 0.093 0.055 0.176l0.305 0.731 0.573-1.249h0.407l0.583 1.249 0.305-0.768c0.019-0.046 0.028-0.083 0.028-0.102 0-0.083-0.093-0.12-0.277-0.12v-0.25h0.851v0.25c-0.083 0-0.157 0.028-0.203 0.083s-0.111 0.176-0.185 0.361l-0.546 1.304h-0.416l-0.592-1.249-0.564 1.249h-0.425zM34.895 19.588v0.324c0 0.065 0.009 0.102 0.028 0.129s0.065 0.037 0.129 0.037h0.028v0.111h-0.731v-0.111h0.028c0.065 0 0.111-0.009 0.129-0.037s0.028-0.065 0.028-0.129v-0.805c0-0.065-0.009-0.102-0.028-0.129s-0.065-0.037-0.129-0.037h-0.037v-0.111l0.546-0.009c0.139 0 0.24 0 0.314 0.009s0.148 0.028 0.203 0.065c0.065 0.037 0.111 0.074 0.139 0.129s0.046 0.111 0.046 0.185c0 0.093-0.028 0.166-0.083 0.231s-0.12 0.102-0.203 0.129-0.194 0.028-0.324 0.028h-0.083zM34.895 19.468h0.065c0.102 0 0.176-0.028 0.213-0.074s0.056-0.111 0.056-0.185c0-0.065-0.009-0.129-0.037-0.166s-0.056-0.074-0.102-0.083c-0.037-0.009-0.102-0.018-0.194-0.018v0.527zM36.902 19.736l-0.009 0.453h-1.239v-0.111h0.019c0.065 0 0.111-0.009 0.129-0.037s0.028-0.065 0.028-0.129v-0.805c0-0.065-0.009-0.102-0.028-0.129s-0.065-0.037-0.129-0.037h-0.019v-0.111h0.731v0.111h-0.028c-0.065 0-0.111 0.009-0.129 0.037s-0.028 0.065-0.028 0.129v0.777c0 0.055 0 0.093 0.009 0.111s0.028 0.037 0.056 0.046c0.028 0.009 0.074 0.018 0.148 0.018 0.12 0 0.203-0.028 0.268-0.093 0.056-0.055 0.102-0.139 0.12-0.24h0.102zM38.206 19.736l-0.009 0.453h-1.239v-0.111h0.019c0.065 0 0.111-0.009 0.129-0.037s0.028-0.065 0.028-0.129v-0.805c0-0.065-0.009-0.102-0.028-0.129s-0.065-0.037-0.129-0.037h-0.019v-0.111h0.731v0.111h-0.028c-0.065 0-0.111 0.009-0.129 0.037s-0.028 0.065-0.028 0.129v0.777c0 0.055 0 0.093 0.009 0.111s0.028 0.037 0.056 0.046 0.074 0.018 0.148 0.018c0.12 0 0.203-0.028 0.268-0.093 0.056-0.055 0.102-0.139 0.12-0.24h0.102zM39.602 19.672v0.509h-0.111c-0.009-0.055-0.028-0.102-0.056-0.129-0.111 0.111-0.259 0.166-0.444 0.166-0.213 0-0.379-0.065-0.499-0.203-0.129-0.139-0.185-0.296-0.185-0.49 0-0.185 0.065-0.351 0.185-0.499s0.296-0.213 0.518-0.213c0.166 0 0.305 0.055 0.416 0.166 0.019-0.037 0.028-0.074 0.046-0.12h0.111l0.019 0.499h-0.111c-0.037-0.139-0.083-0.24-0.157-0.305-0.074-0.074-0.166-0.102-0.268-0.102-0.12 0-0.203 0.046-0.268 0.139-0.056 0.093-0.093 0.231-0.093 0.435 0 0.139 0.009 0.25 0.028 0.324 0.019 0.083 0.065 0.139 0.129 0.185s0.129 0.065 0.203 0.065c0.102 0 0.185-0.037 0.268-0.102 0.074-0.065 0.129-0.176 0.166-0.314h0.102z"></path>
</svg>
