<!-- Generated by IcoMoon.io -->
<svg version="1.1" xmlns="http://www.w3.org/2000/svg" width="59" height="32" viewBox="0 0 59 32">
<title>logo-symbol</title>
<path d="M36.106 8.102c-0.712-0.823-1.628-1.406-2.747-1.729s-2.71-0.49-4.782-0.49c-1.119 0-2.691 0.037-4.698 0.102l-2.516 0.093v0.684h0.37c1.017 0 1.674 0.093 1.979 0.268s0.499 0.499 0.592 0.962c0.037 0.194 0.065 0.49 0.083 0.888 1.387 0.305 2.543 0.416 3.385 0.462 1.434 0.074 2.608-0.018 3.172 0.749 0.166 0.231 0.231 0.472 0.259 0.638 0.268 0.028 0.786 0.12 1.23 0.518 0.203 0.185 0.536 0.472 0.509 0.888-0.019 0.305-0.222 0.527-0.305 0.61-0.056-0.083-0.148-0.185-0.277-0.287-1.008-0.749-2.932 0.305-3.579 0.666-0.555 0.305-3.958 2.247-4.338 5.447-0.093 0.805-0.028 1.988-0.009 2.34 0.065 1.313 0.083 2.090-0.129 3.2-0.093 0.462-0.296 0.795-0.629 1.008s-0.925 0.324-1.785 0.324h-0.527v0.684h9.175v-0.694h-0.666c-0.897 0-1.508-0.12-1.831-0.351s-0.527-0.601-0.601-1.082c-0.074-0.49-0.111-1.517-0.111-3.098v-4.208h2.201c2.294 0 3.903-0.213 4.809-0.647 0.916-0.435 1.609-1.073 2.099-1.905 0.49-0.842 0.731-1.803 0.731-2.895 0.009-1.276-0.351-2.312-1.064-3.145z"></path>
</svg>
