<!-- Generated by IcoMoon.io -->
<svg version="1.1" xmlns="http://www.w3.org/2000/svg" width="59" height="32" viewBox="0 0 59 32">
<title>logo-wordmark</title>
<path d="M3.052 16.139v0.592c0 0.111 0.018 0.194 0.055 0.24s0.12 0.065 0.24 0.065h0.055v0.203h-1.341v-0.203h0.046c0.12 0 0.203-0.018 0.24-0.065s0.055-0.12 0.055-0.24v-1.471c0-0.111-0.018-0.194-0.055-0.24s-0.12-0.065-0.24-0.065h-0.065v-0.203l1.008-0.018c0.25 0 0.444 0.009 0.583 0.018s0.268 0.046 0.379 0.111c0.111 0.065 0.203 0.139 0.259 0.24s0.083 0.213 0.083 0.333c0 0.166-0.046 0.305-0.148 0.416-0.102 0.12-0.231 0.194-0.379 0.231s-0.351 0.055-0.601 0.055h-0.176zM3.052 15.917h0.12c0.194 0 0.324-0.046 0.388-0.129s0.102-0.194 0.102-0.342c0-0.129-0.028-0.231-0.074-0.305-0.046-0.083-0.111-0.129-0.185-0.157s-0.194-0.037-0.351-0.037v0.971zM5.54 17.082c-0.093 0.065-0.185 0.111-0.277 0.148-0.102 0.037-0.203 0.046-0.305 0.046-0.139 0-0.25-0.028-0.314-0.093-0.074-0.065-0.102-0.139-0.102-0.24 0-0.129 0.074-0.25 0.213-0.351s0.398-0.213 0.768-0.342v-0.139c0-0.093-0.028-0.157-0.074-0.185s-0.102-0.037-0.166-0.037c-0.157 0-0.24 0.056-0.259 0.166-0.009 0.074-0.037 0.129-0.074 0.166s-0.093 0.055-0.166 0.055-0.129-0.018-0.166-0.055c-0.037-0.037-0.065-0.083-0.065-0.129 0-0.111 0.074-0.213 0.222-0.287 0.148-0.083 0.351-0.12 0.601-0.12 0.139 0 0.259 0.009 0.351 0.028s0.176 0.046 0.231 0.092c0.056 0.046 0.093 0.092 0.12 0.148 0.019 0.056 0.028 0.12 0.028 0.213v0.694c0 0.102 0.028 0.157 0.093 0.157 0.056 0 0.093-0.037 0.102-0.102h0.148c0 0.129-0.046 0.222-0.139 0.277s-0.194 0.093-0.314 0.093c-0.222-0.009-0.379-0.074-0.453-0.203zM5.503 16.879v-0.425c-0.166 0.074-0.277 0.139-0.333 0.194s-0.074 0.12-0.074 0.176c0 0.046 0.019 0.093 0.046 0.129s0.074 0.055 0.12 0.055 0.083-0.009 0.129-0.028c0.037-0.028 0.074-0.055 0.111-0.102zM7.417 16.055c0.074-0.129 0.148-0.222 0.24-0.287s0.194-0.092 0.296-0.092 0.185 0.037 0.24 0.102c0.056 0.065 0.083 0.139 0.083 0.213s-0.018 0.129-0.065 0.185-0.102 0.074-0.176 0.074c-0.046 0-0.074-0.009-0.102-0.028s-0.065-0.046-0.111-0.102c-0.046-0.046-0.093-0.074-0.139-0.074-0.083 0-0.139 0.046-0.176 0.148s-0.056 0.24-0.056 0.435v0.166c0 0.093 0.019 0.157 0.046 0.194s0.093 0.055 0.194 0.055h0.037v0.194h-1.128v-0.194c0.111 0 0.176-0.018 0.203-0.055s0.046-0.102 0.046-0.194v-0.518c0-0.093-0.019-0.157-0.046-0.194s-0.093-0.055-0.203-0.055v-0.194l0.758-0.157c0.037 0.092 0.056 0.222 0.056 0.379zM9.378 16.222v0.583c0 0.093 0.018 0.157 0.046 0.185 0.028 0.037 0.092 0.055 0.185 0.055v0.194h-1.11v-0.194h0.046c0.102 0 0.176-0.018 0.194-0.055 0.028-0.037 0.037-0.102 0.037-0.185v-0.518c0-0.093-0.018-0.157-0.046-0.194s-0.102-0.055-0.203-0.055v-0.194l0.814-0.129c0.018 0.056 0.028 0.129 0.028 0.24 0.083-0.092 0.176-0.166 0.287-0.213 0.102-0.046 0.222-0.074 0.351-0.074 0.139 0 0.259 0.028 0.342 0.083 0.092 0.056 0.157 0.129 0.194 0.24 0.074-0.111 0.166-0.185 0.268-0.24s0.222-0.083 0.351-0.083c0.111 0 0.213 0.018 0.296 0.056 0.092 0.037 0.157 0.092 0.203 0.148s0.074 0.12 0.092 0.176c0.018 0.055 0.018 0.148 0.018 0.259v0.481c0 0.093 0.018 0.157 0.046 0.194s0.102 0.046 0.222 0.046v0.194h-1.091v-0.194c0.092 0 0.157-0.018 0.185-0.055s0.037-0.102 0.037-0.185v-0.509c0-0.102-0.018-0.176-0.056-0.231s-0.092-0.074-0.176-0.074c-0.074 0-0.139 0.018-0.203 0.065s-0.12 0.111-0.176 0.194v0.583c0 0.093 0.018 0.157 0.046 0.185 0.028 0.037 0.092 0.055 0.185 0.055v0.194h-1.045v-0.194c0.092 0 0.148-0.018 0.176-0.055s0.046-0.093 0.046-0.185v-0.536c0-0.102-0.018-0.176-0.056-0.231-0.037-0.046-0.092-0.074-0.166-0.074-0.065 0-0.129 0.018-0.194 0.065-0.046 0.046-0.111 0.102-0.176 0.185zM13.225 17.082c-0.092 0.065-0.185 0.111-0.277 0.148-0.102 0.037-0.203 0.046-0.305 0.046-0.139 0-0.25-0.028-0.314-0.093-0.074-0.065-0.102-0.139-0.102-0.24 0-0.129 0.074-0.25 0.213-0.351s0.398-0.213 0.768-0.342v-0.139c0-0.093-0.028-0.157-0.074-0.185s-0.102-0.037-0.166-0.037c-0.157 0-0.24 0.056-0.259 0.166-0.009 0.074-0.037 0.129-0.074 0.166s-0.092 0.055-0.166 0.055-0.129-0.018-0.166-0.055c-0.037-0.037-0.065-0.083-0.065-0.129 0-0.111 0.074-0.213 0.222-0.287 0.148-0.083 0.351-0.12 0.601-0.12 0.139 0 0.259 0.009 0.351 0.028s0.176 0.046 0.231 0.092c0.056 0.046 0.092 0.092 0.12 0.148 0.018 0.056 0.028 0.12 0.028 0.213v0.694c0 0.102 0.028 0.157 0.092 0.157 0.056 0 0.092-0.037 0.102-0.102h0.148c0 0.129-0.046 0.222-0.139 0.277s-0.194 0.093-0.314 0.093c-0.222-0.009-0.379-0.074-0.453-0.203zM13.188 16.879v-0.425c-0.166 0.074-0.277 0.139-0.333 0.194s-0.074 0.12-0.074 0.176c0 0.046 0.018 0.093 0.046 0.129s0.074 0.055 0.12 0.055 0.083-0.009 0.129-0.028c0.037-0.028 0.074-0.055 0.111-0.102zM15.103 16.055c0.074-0.129 0.148-0.222 0.24-0.287s0.194-0.092 0.296-0.092 0.185 0.037 0.24 0.102c0.056 0.065 0.083 0.139 0.083 0.213s-0.018 0.129-0.065 0.185c-0.046 0.055-0.102 0.074-0.176 0.074-0.046 0-0.074-0.009-0.102-0.028s-0.065-0.046-0.111-0.102c-0.046-0.046-0.092-0.074-0.139-0.074-0.083 0-0.139 0.046-0.176 0.148s-0.056 0.24-0.056 0.435v0.166c0 0.093 0.018 0.157 0.046 0.194s0.092 0.055 0.194 0.055h0.037v0.194h-1.119v-0.194c0.111 0 0.176-0.018 0.203-0.055s0.046-0.102 0.046-0.194v-0.518c0-0.093-0.018-0.157-0.046-0.194s-0.092-0.055-0.203-0.055v-0.194l0.758-0.157c0.018 0.092 0.046 0.222 0.046 0.379zM17.609 16.564l-0.046 0.12c-0.037 0.083-0.055 0.148-0.055 0.185 0 0.055 0.018 0.102 0.065 0.129 0.037 0.028 0.111 0.037 0.194 0.037v0.203h-0.823v-0.203c0.157 0 0.287-0.129 0.398-0.398l0.768-1.933h0.213l0.777 1.933c0.074 0.194 0.148 0.305 0.213 0.342s0.12 0.055 0.176 0.055v0.203h-1.239v-0.203c0.111 0 0.185-0.009 0.203-0.028 0.028-0.018 0.037-0.046 0.037-0.083 0-0.028-0.009-0.065-0.037-0.12l-0.028-0.055-0.074-0.185h-0.74zM17.692 16.351h0.601l-0.314-0.74-0.287 0.74z"></path>
<path d="M20.31 16.222v0.583c0 0.093 0.018 0.157 0.046 0.185 0.028 0.037 0.093 0.055 0.185 0.055v0.194h-1.11v-0.194h0.046c0.102 0 0.176-0.018 0.194-0.055 0.028-0.037 0.037-0.102 0.037-0.185v-0.518c0-0.093-0.018-0.157-0.046-0.194s-0.102-0.055-0.203-0.055v-0.194l0.814-0.129c0.018 0.056 0.028 0.129 0.028 0.24 0.083-0.092 0.176-0.166 0.287-0.213 0.102-0.046 0.222-0.074 0.351-0.074 0.139 0 0.259 0.028 0.342 0.083 0.093 0.056 0.157 0.129 0.194 0.24 0.074-0.111 0.166-0.185 0.268-0.24s0.222-0.083 0.351-0.083c0.111 0 0.213 0.018 0.296 0.056 0.093 0.037 0.157 0.092 0.203 0.148s0.074 0.12 0.093 0.176c0.018 0.055 0.018 0.148 0.018 0.259v0.481c0 0.093 0.018 0.157 0.046 0.194s0.102 0.046 0.222 0.046v0.194h-1.091v-0.194c0.093 0 0.157-0.018 0.185-0.055s0.037-0.102 0.037-0.185v-0.509c0-0.102-0.018-0.176-0.055-0.231s-0.093-0.074-0.176-0.074c-0.074 0-0.139 0.018-0.203 0.065s-0.12 0.111-0.176 0.194v0.583c0 0.093 0.018 0.157 0.046 0.185 0.028 0.037 0.093 0.055 0.185 0.055v0.194h-1.045v-0.194c0.093 0 0.148-0.018 0.176-0.055s0.046-0.093 0.046-0.185v-0.536c0-0.102-0.018-0.176-0.055-0.231-0.037-0.046-0.093-0.074-0.166-0.074-0.065 0-0.129 0.018-0.194 0.065-0.046 0.046-0.111 0.102-0.176 0.185zM23.843 16.472c0 0.203 0.037 0.351 0.102 0.453s0.166 0.148 0.305 0.148c0.148 0 0.277-0.074 0.398-0.222l0.166 0.102c-0.074 0.102-0.166 0.185-0.296 0.25s-0.277 0.102-0.435 0.102c-0.24 0-0.453-0.074-0.62-0.222-0.176-0.148-0.259-0.351-0.259-0.601s0.083-0.444 0.25-0.592c0.166-0.139 0.37-0.213 0.601-0.213 0.24 0 0.435 0.065 0.583 0.194s0.231 0.333 0.231 0.601h-1.027zM23.834 16.287h0.462c-0.009-0.268-0.083-0.407-0.24-0.407-0.074 0-0.129 0.037-0.166 0.102s-0.055 0.166-0.055 0.305zM25.951 16.055c0.074-0.129 0.148-0.222 0.24-0.287s0.194-0.092 0.296-0.092 0.185 0.037 0.24 0.102c0.055 0.065 0.083 0.139 0.083 0.213s-0.018 0.129-0.065 0.185-0.102 0.074-0.176 0.074c-0.046 0-0.074-0.009-0.102-0.028s-0.065-0.046-0.111-0.102c-0.046-0.046-0.093-0.074-0.139-0.074-0.083 0-0.139 0.046-0.176 0.148s-0.055 0.24-0.055 0.435v0.166c0 0.093 0.018 0.157 0.046 0.194s0.093 0.055 0.194 0.055h0.037v0.194h-1.119v-0.194c0.111 0 0.176-0.018 0.203-0.055s0.046-0.102 0.046-0.194v-0.518c0-0.093-0.018-0.157-0.046-0.194s-0.093-0.055-0.203-0.055v-0.194l0.758-0.157c0.018 0.092 0.037 0.222 0.046 0.379zM27.829 15.676v1.128c0 0.093 0.018 0.157 0.046 0.194s0.102 0.055 0.203 0.055v0.194h-1.128v-0.194h0.046c0.102 0 0.166-0.018 0.194-0.055s0.037-0.102 0.037-0.185v-0.546c0-0.093-0.018-0.157-0.046-0.194s-0.093-0.055-0.194-0.055h-0.046v-0.203l0.888-0.139zM27.209 15.038c0-0.092 0.037-0.166 0.102-0.231s0.139-0.102 0.231-0.102 0.166 0.037 0.231 0.102c0.065 0.065 0.093 0.139 0.093 0.231s-0.028 0.166-0.093 0.231-0.139 0.102-0.231 0.102-0.176-0.037-0.24-0.102c-0.065-0.065-0.093-0.148-0.093-0.231zM29.771 16.777l0.185 0.083c-0.055 0.139-0.148 0.25-0.277 0.324-0.139 0.074-0.296 0.111-0.472 0.111-0.25 0-0.453-0.065-0.629-0.203-0.166-0.139-0.259-0.324-0.259-0.573 0-0.259 0.093-0.462 0.277-0.62s0.425-0.231 0.721-0.231c0.185 0 0.333 0.037 0.435 0.102 0.111 0.065 0.157 0.157 0.157 0.268 0 0.065-0.018 0.12-0.065 0.166s-0.093 0.074-0.166 0.074c-0.129 0-0.222-0.083-0.259-0.259-0.009-0.056-0.028-0.092-0.046-0.111s-0.055-0.037-0.111-0.037c-0.111 0-0.194 0.046-0.25 0.129s-0.083 0.213-0.083 0.388c0 0.24 0.037 0.407 0.102 0.509s0.166 0.157 0.305 0.157c0.213 0 0.351-0.093 0.435-0.277zM31.26 17.082c-0.093 0.065-0.185 0.111-0.277 0.148-0.102 0.037-0.203 0.046-0.305 0.046-0.139 0-0.25-0.028-0.314-0.093-0.074-0.065-0.102-0.139-0.102-0.24 0-0.129 0.074-0.25 0.213-0.351s0.398-0.213 0.768-0.342v-0.139c0-0.093-0.028-0.157-0.074-0.185s-0.102-0.037-0.166-0.037c-0.157 0-0.24 0.056-0.259 0.166-0.009 0.074-0.037 0.129-0.074 0.166s-0.093 0.055-0.166 0.055-0.129-0.018-0.166-0.055c-0.037-0.037-0.065-0.083-0.065-0.129 0-0.111 0.074-0.213 0.222-0.287 0.148-0.083 0.351-0.12 0.601-0.12 0.139 0 0.259 0.009 0.351 0.028s0.176 0.046 0.231 0.092c0.055 0.046 0.093 0.092 0.12 0.148 0.018 0.056 0.028 0.12 0.028 0.213v0.694c0 0.102 0.028 0.157 0.093 0.157 0.055 0 0.093-0.037 0.102-0.102h0.148c0 0.129-0.046 0.222-0.139 0.277s-0.194 0.093-0.314 0.093c-0.222-0.009-0.37-0.074-0.453-0.203zM31.232 16.879v-0.425c-0.166 0.074-0.277 0.139-0.333 0.194s-0.074 0.12-0.074 0.176c0 0.046 0.018 0.093 0.046 0.129s0.074 0.055 0.12 0.055 0.083-0.009 0.129-0.028c0.037-0.028 0.074-0.055 0.111-0.102zM33.165 16.203v0.601c0 0.083 0.009 0.148 0.037 0.185s0.074 0.055 0.139 0.055v0.194h-1.027v-0.194c0.111 0 0.176-0.018 0.203-0.046 0.028-0.037 0.046-0.093 0.046-0.194v-0.518c0-0.093-0.019-0.157-0.046-0.194s-0.093-0.055-0.203-0.055v-0.194l0.814-0.129c0.019 0.046 0.037 0.12 0.037 0.222 0.083-0.092 0.166-0.157 0.259-0.194 0.093-0.046 0.185-0.065 0.277-0.065 0.176 0 0.305 0.046 0.407 0.139s0.148 0.222 0.148 0.388v0.601c0 0.093 0.019 0.157 0.046 0.185 0.028 0.037 0.093 0.055 0.194 0.055v0.194h-1.027v-0.194c0.056 0 0.093-0.018 0.129-0.046s0.056-0.093 0.056-0.194v-0.555c0-0.102-0.009-0.166-0.037-0.203s-0.065-0.056-0.12-0.056c-0.056 0-0.102 0.019-0.157 0.056-0.065 0.037-0.12 0.093-0.176 0.157zM36.782 17.286l-0.851-1.914c-0.065-0.157-0.12-0.25-0.139-0.296-0.028-0.046-0.056-0.074-0.102-0.102-0.046-0.018-0.111-0.037-0.203-0.037v-0.203h1.323v0.203c-0.185 0-0.277 0.046-0.277 0.139 0 0.046 0.028 0.129 0.083 0.25l0.509 1.128 0.481-1.128c0.037-0.083 0.056-0.157 0.056-0.213 0-0.111-0.093-0.166-0.277-0.166v-0.203h0.879v0.203c-0.102 0-0.176 0.028-0.231 0.083s-0.139 0.213-0.25 0.49l-0.758 1.766h-0.24zM39.084 15.676v1.128c0 0.093 0.019 0.157 0.046 0.194s0.102 0.055 0.203 0.055v0.194h-1.128v-0.194h0.046c0.102 0 0.166-0.018 0.194-0.055s0.037-0.102 0.037-0.185v-0.546c0-0.093-0.019-0.157-0.046-0.194s-0.093-0.055-0.194-0.055h-0.046v-0.203l0.888-0.139zM38.465 15.038c0-0.092 0.037-0.166 0.102-0.231s0.139-0.102 0.231-0.102 0.166 0.037 0.231 0.102c0.065 0.065 0.093 0.139 0.093 0.231s-0.028 0.166-0.093 0.231-0.139 0.102-0.231 0.102-0.176-0.037-0.24-0.102c-0.065-0.065-0.093-0.148-0.093-0.231zM39.63 17.295l-0.009-0.499h0.176c0.093 0.203 0.268 0.314 0.527 0.314 0.111 0 0.194-0.018 0.268-0.055s0.102-0.074 0.102-0.129c0-0.037-0.019-0.074-0.056-0.093s-0.129-0.046-0.259-0.074c-0.213-0.046-0.37-0.083-0.462-0.12-0.102-0.037-0.185-0.102-0.24-0.176-0.065-0.083-0.093-0.176-0.093-0.277 0-0.157 0.065-0.277 0.185-0.37s0.296-0.139 0.499-0.139c0.157 0 0.324 0.028 0.49 0.092 0.028-0.028 0.056-0.056 0.074-0.092h0.148l0.019 0.453h-0.148c-0.093-0.185-0.287-0.277-0.564-0.277-0.093 0-0.166 0.018-0.222 0.046s-0.093 0.065-0.093 0.111 0.028 0.083 0.074 0.111c0.046 0.028 0.157 0.055 0.342 0.093s0.333 0.074 0.425 0.12c0.093 0.037 0.166 0.093 0.222 0.176 0.056 0.074 0.083 0.166 0.083 0.259 0 0.157-0.074 0.296-0.213 0.398s-0.314 0.148-0.527 0.148c-0.157 0-0.324-0.037-0.499-0.102-0.037 0.028-0.056 0.055-0.074 0.102h-0.176zM42.479 17.082c-0.093 0.065-0.185 0.111-0.277 0.148-0.102 0.037-0.203 0.046-0.305 0.046-0.139 0-0.25-0.028-0.314-0.093-0.074-0.065-0.102-0.139-0.102-0.24 0-0.129 0.074-0.25 0.213-0.351s0.398-0.213 0.768-0.342v-0.139c0-0.093-0.028-0.157-0.074-0.185s-0.102-0.037-0.166-0.037c-0.157 0-0.24 0.056-0.259 0.166-0.009 0.074-0.037 0.129-0.074 0.166s-0.093 0.055-0.166 0.055-0.129-0.018-0.166-0.055c-0.037-0.037-0.065-0.083-0.065-0.129 0-0.111 0.074-0.213 0.222-0.287 0.148-0.083 0.351-0.12 0.601-0.12 0.139 0 0.259 0.009 0.351 0.028s0.176 0.046 0.231 0.092c0.056 0.046 0.093 0.092 0.12 0.148 0.019 0.056 0.028 0.12 0.028 0.213v0.694c0 0.102 0.028 0.157 0.093 0.157 0.056 0 0.093-0.037 0.102-0.102h0.148c0 0.129-0.046 0.222-0.139 0.277s-0.194 0.093-0.314 0.093c-0.222-0.009-0.37-0.074-0.453-0.203zM42.451 16.879v-0.425c-0.166 0.074-0.277 0.139-0.333 0.194s-0.074 0.12-0.074 0.176c0 0.046 0.019 0.093 0.046 0.129s0.074 0.055 0.12 0.055 0.083-0.009 0.129-0.028c0.028-0.028 0.065-0.055 0.111-0.102zM46.798 16.407l-0.009 0.832h-2.266v-0.203h0.037c0.12 0 0.203-0.018 0.24-0.065s0.056-0.12 0.056-0.24v-1.471c0-0.111-0.019-0.194-0.056-0.24s-0.12-0.065-0.24-0.065h-0.037v-0.203h1.332v0.203h-0.046c-0.129 0-0.203 0.018-0.24 0.065s-0.056 0.12-0.056 0.24v1.424c0 0.111 0.009 0.176 0.019 0.213s0.046 0.065 0.093 0.093c0.056 0.028 0.139 0.037 0.268 0.037 0.222 0 0.379-0.055 0.49-0.166s0.185-0.259 0.222-0.444h0.194zM48.065 17.082c-0.093 0.065-0.185 0.111-0.277 0.148-0.102 0.037-0.203 0.046-0.305 0.046-0.139 0-0.25-0.028-0.314-0.093-0.074-0.065-0.102-0.139-0.102-0.24 0-0.129 0.074-0.25 0.213-0.351s0.398-0.213 0.768-0.342v-0.139c0-0.093-0.028-0.157-0.074-0.185s-0.102-0.037-0.166-0.037c-0.157 0-0.24 0.056-0.259 0.166-0.009 0.074-0.037 0.129-0.074 0.166s-0.093 0.055-0.166 0.055-0.129-0.018-0.166-0.055c-0.037-0.037-0.065-0.083-0.065-0.129 0-0.111 0.074-0.213 0.222-0.287 0.148-0.083 0.351-0.12 0.601-0.12 0.139 0 0.259 0.009 0.351 0.028s0.176 0.046 0.231 0.092c0.056 0.046 0.093 0.092 0.12 0.148 0.019 0.056 0.028 0.12 0.028 0.213v0.694c0 0.102 0.028 0.157 0.093 0.157 0.056 0 0.093-0.037 0.102-0.102h0.148c0 0.129-0.046 0.222-0.139 0.277s-0.194 0.093-0.314 0.093c-0.222-0.009-0.379-0.074-0.453-0.203zM48.028 16.879v-0.425c-0.166 0.074-0.277 0.139-0.333 0.194s-0.074 0.12-0.074 0.176c0 0.046 0.019 0.093 0.046 0.129s0.074 0.055 0.12 0.055 0.083-0.009 0.129-0.028c0.037-0.028 0.074-0.055 0.111-0.102zM49.739 17.267l-0.472-1.091c-0.046-0.12-0.093-0.185-0.12-0.213s-0.083-0.037-0.139-0.037v-0.194h1.008v0.194c-0.129 0-0.185 0.028-0.185 0.074 0 0.028 0.009 0.065 0.037 0.129l0.231 0.564 0.435-0.962h0.314l0.444 0.962 0.24-0.592c0.009-0.037 0.019-0.065 0.019-0.083 0-0.065-0.074-0.092-0.213-0.092v-0.194h0.657v0.194c-0.065 0-0.12 0.018-0.157 0.065-0.037 0.037-0.083 0.129-0.139 0.277l-0.425 0.999h-0.324l-0.453-0.962-0.435 0.962h-0.324zM52.874 16.777v0.25c0 0.046 0.009 0.083 0.028 0.102s0.046 0.028 0.102 0.028h0.028v0.083h-0.564v-0.083h0.019c0.056 0 0.083-0.009 0.102-0.028s0.028-0.055 0.028-0.102v-0.62c0-0.046-0.009-0.083-0.028-0.102s-0.046-0.028-0.102-0.028h-0.028v-0.083l0.425-0.009c0.102 0 0.185 0 0.25 0.009s0.111 0.018 0.157 0.046 0.083 0.055 0.111 0.102c0.028 0.046 0.037 0.093 0.037 0.139 0 0.065-0.019 0.129-0.065 0.176s-0.093 0.083-0.157 0.093c-0.065 0.018-0.148 0.028-0.25 0.028h-0.093zM52.874 16.684h0.046c0.083 0 0.139-0.018 0.166-0.055s0.037-0.083 0.037-0.139-0.009-0.093-0.028-0.129-0.046-0.055-0.074-0.065c-0.028-0.009-0.083-0.018-0.148-0.018v0.407zM54.428 16.888v0.351h-0.953v-0.083h0.019c0.056 0 0.083-0.009 0.102-0.028s0.028-0.055 0.028-0.102v-0.62c0-0.046-0.009-0.083-0.028-0.102s-0.046-0.028-0.102-0.028h-0.019v-0.083h0.564v0.083h-0.019c-0.056 0-0.083 0.009-0.102 0.028s-0.028 0.055-0.028 0.102v0.592c0 0.046 0 0.074 0.009 0.093s0.019 0.028 0.037 0.037c0.019 0.009 0.056 0.018 0.111 0.018 0.093 0 0.157-0.018 0.203-0.065s0.074-0.111 0.093-0.185h0.083zM55.427 16.888v0.351h-0.953v-0.083h0.019c0.056 0 0.083-0.009 0.102-0.028s0.028-0.055 0.028-0.102v-0.62c0-0.046-0.009-0.083-0.028-0.102s-0.046-0.028-0.102-0.028h-0.019v-0.083h0.564v0.083h-0.019c-0.056 0-0.083 0.009-0.102 0.028s-0.028 0.055-0.028 0.102v0.592c0 0.046 0 0.074 0.009 0.093s0.019 0.028 0.037 0.037c0.019 0.009 0.056 0.018 0.111 0.018 0.093 0 0.157-0.018 0.203-0.065s0.074-0.111 0.093-0.185h0.083zM56.499 16.842v0.388h-0.083c-0.009-0.037-0.028-0.074-0.046-0.102-0.083 0.083-0.203 0.129-0.342 0.129-0.157 0-0.287-0.055-0.388-0.157-0.093-0.102-0.148-0.231-0.148-0.379 0-0.139 0.046-0.268 0.148-0.379s0.231-0.166 0.398-0.166c0.129 0 0.231 0.046 0.324 0.129 0.009-0.028 0.019-0.055 0.028-0.093h0.083l0.009 0.388h-0.083c-0.028-0.102-0.065-0.185-0.12-0.24s-0.129-0.083-0.203-0.083c-0.093 0-0.157 0.037-0.203 0.102-0.046 0.074-0.065 0.185-0.065 0.333 0 0.102 0.009 0.194 0.028 0.25 0.019 0.065 0.046 0.111 0.102 0.139 0.046 0.037 0.102 0.046 0.157 0.046 0.074 0 0.148-0.028 0.203-0.083s0.102-0.129 0.129-0.24h0.074z"></path>
</svg>
