<!-- Generated by IcoMoon.io -->
<svg version="1.1" xmlns="http://www.w3.org/2000/svg" width="32" height="32" viewBox="0 0 32 32">
<title>parenthood</title>
<path d="M13.72 4.644c0.609 0.103 1.121 0.45 1.442 0.934l0.005 0.008c0.646 0.987 0.374 2.318-0.621 2.969l-1.763 1.153v0.767l-3.277 2.132c-0.483 0.314-0.619 0.96-0.305 1.443s0.96 0.619 1.443 0.305l3.037-1.977c0.227 0.122 0.497 0.194 0.783 0.194 0.001 0 0.001 0 0.002 0h-0c0.93 0 1.683-0.754 1.683-1.683v-4.737c-0-1.25-1.316-2.060-2.429-1.509z"></path>
<path d="M14.584 2.066c0 1.141-0.925 2.066-2.066 2.066s-2.066-0.925-2.066-2.066c0-1.141 0.925-2.066 2.066-2.066s2.066 0.925 2.066 2.066z"></path>
<path d="M10.052 5.571c-0.646 0.082-1.064 0.733-0.859 1.36l2.374-1.553-1.515 0.193z"></path>
<path d="M7.072 4.627c0 1.313-1.064 2.377-2.377 2.377s-2.377-1.064-2.377-2.377c0-1.313 1.064-2.377 2.377-2.377s2.377 1.064 2.377 2.377z"></path>
<path d="M14.339 6.128c-0.349-0.534-1.065-0.684-1.599-0.334l-5.069 3.315-4.084 0.479 2.938-1.035c-0.365-0.308-0.855-0.466-1.366-0.394l-3.071 0.434c-0.951 0.134-1.613 1.014-1.479 1.966l1.398 8.815 1.259 5.292-1.445 5.602c-0.191 0.741 0.255 1.497 0.996 1.688s1.497-0.255 1.688-0.996l1.531-5.935c0.056-0.218 0.059-0.448 0.006-0.667l-1.278-5.374 0.632-0.089 2.632 4.071 0.593 7.754c0.058 0.76 0.72 1.334 1.488 1.276 0.763-0.058 1.335-0.724 1.276-1.488l-0.62-8.105c-0.019-0.243-0.098-0.463-0.221-0.652l0.003 0.005-2.188-3.384-0.863-6.104-3.641-0.385 4.354-0.51c0.187-0.023 0.356-0.087 0.502-0.183l-0.004 0.003 5.297-3.464c0.534-0.349 0.684-1.065 0.334-1.599zM31.394 20.587l-2.501-12.634c-0.152-0.768-0.822-1.32-1.604-1.32h-2.327c0.299 0.224 0.522 0.535 0.631 0.896l0.003 0.012c0.277 0.931-0.253 1.911-1.184 2.188-0.197 0.059-0.362 0.072-0.55 0.074l-1.083 1.572-4.066-0.069c-0.652-0.010-1.184 0.506-1.195 1.156s0.506 1.184 1.156 1.195l4.716 0.079c0.4-0 0.753-0.2 0.965-0.505l0.003-0.004 2.521-3.658-1.553 4.325c-0.226 0.63-0.831 1.035-1.481 1.025-0.578-0.010-0.22-0.004-2.36-0.040l-1.13 5.707c-0.085 0.431 0.245 0.831 0.682 0.831h1.509v9.080c0 0.83 0.672 1.502 1.502 1.502s1.502-0.673 1.502-1.502v-9.080h0.649v9.080c0 0.83 0.672 1.502 1.502 1.502s1.502-0.673 1.502-1.502v-9.080h1.509c0.436 0 0.767-0.401 0.682-0.831z"></path>
<path d="M22.487 9.817l-0.074 0.376 0.243 0.004 0.45-0.386zM24.702 7.923c-0.086-0.571-0.619-0.963-1.189-0.877l-1.787 0.27-1.579-0.641 0.694 0.105c-0.292-0.5-0.834-0.837-1.455-0.837-0.93 0-1.683 0.754-1.683 1.683v2.721c0.29-0.138 0.63-0.219 0.988-0.219 0.015 0 0.030 0 0.045 0l-0.002-0 2.336 0.040v-0.428c-0.070-0.042-1.709-1.13-1.709-1.13l1.845 0.749c0.116 0.049 0.251 0.077 0.393 0.077 0.055 0 0.109-0.004 0.162-0.012l-0.006 0.001 2.071-0.313c0.571-0.086 0.964-0.619 0.878-1.189zM25.875 0.48c-1.365 0-2.483 1.055-2.586 2.394-0.277-0.814-1.048-1.399-1.955-1.399-1.141 0-2.066 0.925-2.066 2.066s0.925 2.066 2.066 2.066c1.054 0 1.923-0.79 2.049-1.809 0.313 1.081 1.31 1.872 2.492 1.872 1.433 0 2.594-1.161 2.594-2.594s-1.162-2.594-2.594-2.594z"></path>
</svg>
